M48
;Layer_Color=9474304
;FILE_FORMAT=2:4
INCH,TZ
;TYPE=PLATED
T01F00S00C0.0276
T02F00S00C0.0280
T03F00S00C0.0287
T04F00S00C0.0307
T05F00S00C0.0315
T06F00S00C0.0354
T07F00S00C0.0370
T08F00S00C0.0472
T09F00S00C0.0866
T10F00S00C0.1260
T11F00S00C0.2598
%
T01
X42516Y13500
X43500
X74516Y11500
X75500
X80000Y14008
Y14992
X89500Y14000
Y13016
Y17016
Y18000
X75484Y24000
X74500
X58492Y32000
X57508
X59016Y36500
X60000
X73000Y36000
X73984
X71484Y32000
X70500
T02
X39500Y14914
X77000Y10000
X64500Y21000
X64000Y27000
X48500Y25000
X39500
X23000Y28000
X15000Y37000
X15500Y42000
X22500Y35500
X30500Y34000
X28500Y44500
X47000Y44000
X50000Y40500
X48500Y34500
X77500Y32500
X76500Y39500
X85500Y40500
X85000Y33500
X70500Y47500
Y51500
T03
X47429Y28016
X48429
Y30984
X47429
X41429
X40429
X38929
X37929
Y28016
X38929
X40429
X41429
X40929Y21484
X39929
Y18516
X40929
X31929Y28516
X30929
X29429Y21984
X28429
Y19016
X29429
X30929Y31484
X31929
T04
X2000Y14937
X3000
X4000
X5000
X20000
X21000
X22000
X23000
X27937Y13500
Y12500
Y11500
Y10500
X31063
Y11500
Y12500
Y13500
X63000Y15437
X64000
X65000
X66000
X67500
X68500
X69500
X70500
X82437Y15000
Y14000
Y13000
X85563
Y14000
Y15000
Y16000
X82437
X70500Y18563
X69500
X68500
X67500
X66000
X65000
X64000
X63000
X54063Y18500
Y19500
Y17500
Y16500
X50937
Y17500
Y18500
Y19500
X45492Y19500
Y20500
Y21500
Y18500
X42366
Y19500
Y20500
Y21500
X42866Y28000
Y29000
Y30000
Y31000
X45992
Y30000
Y29000
Y28000
X36429
Y29000
Y30000
Y31000
X33303
Y30000
Y29000
Y28000
X34429Y22500
Y21500
Y20500
Y19500
X31303
Y20500
Y21500
Y22500
X23000Y18063
X22000
X21000
X20000
X5000
X4000
X3000
X2000
X35929Y41000
Y42000
Y43000
Y44000
X39055
Y43000
Y42000
Y41000
X43866Y38000
Y37000
Y36000
Y35000
X46992
Y36000
Y37000
Y38000
X46937Y48000
Y49000
Y50000
Y51000
X50063
Y50000
Y49000
Y48000
X16563Y48500
Y49500
Y50500
Y47500
X13437
Y48500
Y49500
Y50500
T05
X7000Y15335
X25500
X55500Y15335
X57000
X59500
X61000
X61500Y12665
Y8335
X63000
X64500
X66000
X67500
X69500
X71000
X72500
Y12665
X71000
X69500
X67500
X66000
X64500
X63000
X87000Y14335
Y18665
X86335Y20000
X83165
Y18000
X78835
Y20000
X90665
X72500Y20335
X71000
X69665Y23000
Y24500
X71000Y24665
X72500
X73500Y28335
X75000
X64500
X64665Y24500
X65335
Y23000
X64665
X60335
Y24500
X58500Y26165
X57000
Y21835
X58500
X59500Y19665
X61000
X57000
X55500
X48429Y17835
X46929
X47094Y16500
X46929Y22165
X48429
X46595Y25000
Y26500
X42264
Y25000
X37095Y24500
Y26000
X32764
Y24500
X36429Y22165
X37929
Y17835
X36429
X34595Y16500
X42764
X30264
X25500Y19665
Y21835
X23665Y23000
Y20500
X19335
Y23000
Y25500
X23665
X25500Y26165
X12665Y23000
X8335
X7165
X7000Y19665
X6165Y20000
X1835
X2835Y23000
X17500Y46835
X19000
X20500
X22000
X30929Y44165
Y39835
X32429
X33929
Y44165
X32429
X41429Y44665
X42929
X44429
Y40335
X42929
X41429
X40429Y38665
X38929
Y34335
X40429
X42764Y33000
X37594
X33264
X47094
X61835Y35500
Y37000
X66165
X66835
Y38500
Y35500
X66165
X64500Y32665
X73500
X75000
X71165Y35500
Y37000
Y38500
X56500Y47335
X55000
X53500
X52000
Y51665
X53500
X55000
X56500
X22000Y51165
X20500
X19000
X17500
T06
X18016Y35319
X19984
Y37681
X18016
Y41319
X19984
Y43681
X18016
T07
X63000Y29000
X66500
X67500
X68500
X69500
X70500
X71500
X62000
X61000
X60000
X59000
X58000
X60000Y31664
X61000
X62000
X67000
X68000
X69000
T08
X5913Y11112
X8000
X10087
X19413Y11112
X21500
X23587
X34756Y11112
X36843
X38929
X52913Y11112
X55000
X57087
X12496Y31000
X8496
Y35000
Y36500
Y40500
X8500Y42000
X12500
X12496Y40500
Y36500
Y35000
X12500Y46000
X8500
T09
X11000Y33000
Y38500
X11004Y44000
T10
X1500Y8000
X29500
X76000
X90000
X77000Y27000
X35000Y37000
X90000Y47500
X73500
X1500Y51500
T11
X46500Y10500
X74500Y15500
X81000Y9000
X86500
X88500Y23500
X82000
Y30500
X88000
X53000Y29500
Y23500
X16500Y23000
Y28500
Y17500
X10500Y18500
Y27500
X3500
X27000Y35500
Y41000
X53000Y43000
X59000
X53000Y36000
X65000Y43000
X71000
X77000
X82500
X88500
X88000Y36500
X82000
X67000Y49500
X61000
X43000
X37000
X31000
X25500
X10000
X4500
M30
