G04*
G04 #@! TF.GenerationSoftware,Altium Limited,Altium Designer,25.3.3 (18)*
G04*
G04 Layer_Color=0*
%FSLAX25Y25*%
%MOIN*%
G70*
G04*
G04 #@! TF.SameCoordinates,B8643030-5FD7-41C3-8E4B-713DA0037FD2*
G04*
G04*
G04 #@! TF.FilePolarity,Positive*
G04*
G01*
G75*
%ADD57C,0.00394*%
D57*
X885000Y428032D02*
Y431969D01*
X883032Y430000D02*
X886969D01*
X270000Y353032D02*
Y356969D01*
X268032Y355000D02*
X271969D01*
X825000Y428032D02*
Y431969D01*
X823032Y430000D02*
X826969D01*
X770000Y428032D02*
Y431969D01*
X768032Y430000D02*
X771969D01*
X710000Y428032D02*
Y431969D01*
X708032Y430000D02*
X711969D01*
X650000Y428032D02*
Y431969D01*
X648032Y430000D02*
X651969D01*
X590000Y428032D02*
Y431969D01*
X588032Y430000D02*
X591969D01*
X530000Y428032D02*
Y431969D01*
X528032Y430000D02*
X531969D01*
X743032Y155000D02*
X746969D01*
X745000Y153032D02*
Y156969D01*
X885000Y233032D02*
Y236968D01*
X883031Y235000D02*
X886969D01*
X530000Y293032D02*
Y296969D01*
X528031Y295000D02*
X531968D01*
X370000Y493032D02*
Y496969D01*
X368032Y495000D02*
X371969D01*
X880000Y363032D02*
Y366969D01*
X878032Y365000D02*
X881969D01*
X188031Y425000D02*
X191969D01*
X190000Y423032D02*
Y426968D01*
X188031Y365000D02*
X191969D01*
X190000Y363032D02*
Y366968D01*
X608032Y495000D02*
X611969D01*
X610000Y493032D02*
Y496969D01*
X668032Y495000D02*
X671969D01*
X670000Y493032D02*
Y496969D01*
X428031Y495000D02*
X431968D01*
X430000Y493032D02*
Y496969D01*
X43031Y495000D02*
X46968D01*
X45000Y493032D02*
Y496969D01*
X98032Y495000D02*
X101969D01*
X100000Y493032D02*
Y496969D01*
X253031Y495000D02*
X256968D01*
X255000Y493032D02*
Y496969D01*
X308032Y495000D02*
X311968D01*
X310000Y493032D02*
Y496969D01*
X808031Y90000D02*
X811969D01*
X810000Y88032D02*
Y91969D01*
X863031Y90000D02*
X866969D01*
X865000Y88032D02*
Y91969D01*
X465000Y103032D02*
Y106969D01*
X463032Y105000D02*
X466969D01*
X165000Y283032D02*
Y286969D01*
X163032Y285000D02*
X166969D01*
X165000Y228032D02*
Y231969D01*
X163032Y230000D02*
X166969D01*
X165000Y173032D02*
Y176969D01*
X163032Y175000D02*
X166969D01*
X818032Y235000D02*
X821968D01*
X820000Y233032D02*
Y236968D01*
X528031Y235000D02*
X531968D01*
X530000Y233032D02*
Y236968D01*
X33032Y275000D02*
X36969D01*
X35000Y273032D02*
Y276969D01*
X103032Y275000D02*
X106969D01*
X105000Y273032D02*
Y276969D01*
X64724Y330000D02*
X68661D01*
X66693Y328032D02*
Y331969D01*
X64764Y440000D02*
X68701D01*
X66732Y438032D02*
Y441969D01*
X528032Y360000D02*
X531969D01*
X530000Y358032D02*
Y361969D01*
X818032Y305000D02*
X821969D01*
X820000Y303032D02*
Y306969D01*
X268032Y410000D02*
X271969D01*
X270000Y408032D02*
Y411969D01*
X818032Y365000D02*
X821969D01*
X820000Y363032D02*
Y366969D01*
X878032Y305000D02*
X881969D01*
X880000Y303032D02*
Y306969D01*
X103032Y185000D02*
X106969D01*
X105000Y183032D02*
Y186969D01*
X66693Y383032D02*
Y386969D01*
X64724Y385000D02*
X68661D01*
M02*
