G04*
G04 #@! TF.GenerationSoftware,Altium Limited,Altium Designer,25.3.3 (18)*
G04*
G04 Layer_Color=128*
%FSLAX25Y25*%
%MOIN*%
G70*
G04*
G04 #@! TF.SameCoordinates,B8643030-5FD7-41C3-8E4B-713DA0037FD2*
G04*
G04*
G04 #@! TF.FilePolarity,Positive*
G04*
G01*
G75*
%ADD12C,0.00500*%
D12*
X872008Y430000D02*
X897992D01*
X885000Y417008D02*
Y442992D01*
X257008Y355000D02*
X282992D01*
X270000Y342008D02*
Y367992D01*
X233504Y111122D02*
X238228D01*
X235866Y108760D02*
Y113484D01*
X212638Y111122D02*
X217362D01*
X215000Y108760D02*
Y113484D01*
X191772Y111122D02*
X196496D01*
X194134Y108760D02*
Y113484D01*
X812008Y430000D02*
X837992D01*
X825000Y417008D02*
Y442992D01*
X757008Y430000D02*
X782992D01*
X770000Y417008D02*
Y442992D01*
X697008Y430000D02*
X722992D01*
X710000Y417008D02*
Y442992D01*
X637008Y430000D02*
X662992D01*
X650000Y417008D02*
Y442992D01*
X577008Y430000D02*
X602992D01*
X590000Y417008D02*
Y442992D01*
X517008Y430000D02*
X542992D01*
X530000Y417008D02*
Y442992D01*
X893622Y130157D02*
X896378D01*
X895000Y128779D02*
Y131535D01*
X893622Y140000D02*
X896378D01*
X895000Y138622D02*
Y141378D01*
X893622Y170158D02*
X896378D01*
X895000Y168780D02*
Y171535D01*
X893622Y180000D02*
X896378D01*
X895000Y178622D02*
Y181378D01*
X423779Y135000D02*
X426535D01*
X425157Y133622D02*
Y136378D01*
X433622Y135000D02*
X436378D01*
X435000Y133622D02*
Y136378D01*
X732008Y155000D02*
X757992D01*
X745000Y142008D02*
Y167992D01*
X743780Y115000D02*
X746535D01*
X745157Y113622D02*
Y116378D01*
X753622Y115000D02*
X756378D01*
X755000Y113622D02*
Y116378D01*
X309095Y135000D02*
X312165D01*
X310630Y133465D02*
Y136536D01*
X309095Y125000D02*
X312165D01*
X310630Y123465D02*
Y126535D01*
X309095Y115000D02*
X312165D01*
X310630Y113465D02*
Y116535D01*
X309095Y105000D02*
X312165D01*
X310630Y103465D02*
Y106535D01*
X277835Y105000D02*
X280906D01*
X279370Y103465D02*
Y106535D01*
X277835Y115000D02*
X280906D01*
X279370Y113465D02*
Y116535D01*
X277835Y125000D02*
X280906D01*
X279370Y123465D02*
Y126535D01*
X277835Y135000D02*
X280906D01*
X279370Y133465D02*
Y136536D01*
X872008Y235000D02*
X897992D01*
X885000Y222008D02*
Y247992D01*
X763701Y270000D02*
X776299D01*
X770000Y263701D02*
Y276299D01*
X343701Y370000D02*
X356299D01*
X350000Y363701D02*
Y376299D01*
X728701Y475000D02*
X741299D01*
X735000Y468701D02*
Y481299D01*
X753701Y80000D02*
X766299D01*
X760000Y73701D02*
Y86299D01*
X288701Y80000D02*
X301299D01*
X295000Y73701D02*
Y86299D01*
X8701Y80000D02*
X21299D01*
X15000Y73701D02*
Y86299D01*
X8701Y515000D02*
X21299D01*
X15000Y508701D02*
Y521299D01*
X893701Y80000D02*
X906299D01*
X900000Y73701D02*
Y86299D01*
X893701Y475000D02*
X906299D01*
X900000Y468701D02*
Y481299D01*
X517008Y295000D02*
X542992D01*
X530000Y282008D02*
Y307992D01*
X357008Y495000D02*
X382992D01*
X370000Y482008D02*
Y507992D01*
X867008Y365000D02*
X892992D01*
X880000Y352008D02*
Y377992D01*
X48465Y149370D02*
X51535D01*
X50000Y147835D02*
Y150905D01*
X38465Y149370D02*
X41535D01*
X40000Y147835D02*
Y150905D01*
X28465Y149370D02*
X31535D01*
X30000Y147835D02*
Y150905D01*
X18465Y149370D02*
X21535D01*
X20000Y147835D02*
Y150905D01*
X18465Y180630D02*
X21535D01*
X20000Y179095D02*
Y182165D01*
X28465Y180630D02*
X31535D01*
X30000Y179095D02*
Y182165D01*
X38465Y180630D02*
X41535D01*
X40000Y179095D02*
Y182165D01*
X48465Y180630D02*
X51535D01*
X50000Y179095D02*
Y182165D01*
X178386Y436811D02*
X181929D01*
X180157Y435039D02*
Y438583D01*
X198071Y436811D02*
X201614D01*
X199843Y435039D02*
Y438583D01*
X178386Y413189D02*
X181929D01*
X180157Y411417D02*
Y414961D01*
X198071Y413189D02*
X201614D01*
X199843Y411417D02*
Y414961D01*
X178386Y376811D02*
X181929D01*
X180157Y375039D02*
Y378583D01*
X198071Y376811D02*
X201614D01*
X199843Y375039D02*
Y378583D01*
X178386Y353189D02*
X181929D01*
X180157Y351417D02*
Y354961D01*
X198071Y353189D02*
X201614D01*
X199843Y351417D02*
Y354961D01*
X563425Y516653D02*
X566575D01*
X565000Y515079D02*
Y518228D01*
X563425Y473347D02*
X566575D01*
X565000Y471772D02*
Y474921D01*
X597008Y495000D02*
X622992D01*
X610000Y482008D02*
Y507992D01*
X657008Y495000D02*
X682992D01*
X670000Y482008D02*
Y507992D01*
X417008Y495000D02*
X442992D01*
X430000Y482008D02*
Y507992D01*
X32008Y495000D02*
X57992D01*
X45000Y482008D02*
Y507992D01*
X87008Y495000D02*
X112992D01*
X100000Y482008D02*
Y507992D01*
X242008Y495000D02*
X267992D01*
X255000Y482008D02*
Y507992D01*
X297008Y495000D02*
X322992D01*
X310000Y482008D02*
Y507992D01*
X164094Y505000D02*
X167165D01*
X165630Y503465D02*
Y506535D01*
X164094Y495000D02*
X167165D01*
X165630Y493465D02*
Y496535D01*
X164094Y485000D02*
X167165D01*
X165630Y483465D02*
Y486535D01*
X164094Y475000D02*
X167165D01*
X165630Y473465D02*
Y476535D01*
X132835Y475000D02*
X135906D01*
X134370Y473465D02*
Y476535D01*
X132835Y485000D02*
X135906D01*
X134370Y483465D02*
Y486535D01*
X132835Y495000D02*
X135906D01*
X134370Y493465D02*
Y496535D01*
X132835Y505000D02*
X135906D01*
X134370Y503465D02*
Y506535D01*
X218425Y511654D02*
X221575D01*
X220000Y510079D02*
Y513228D01*
X218425Y468347D02*
X221575D01*
X220000Y466772D02*
Y469921D01*
X188425Y468347D02*
X191575D01*
X190000Y466772D02*
Y469921D01*
X188425Y511654D02*
X191575D01*
X190000Y510079D02*
Y513228D01*
X203425Y468347D02*
X206575D01*
X205000Y466772D02*
Y469921D01*
X203425Y511654D02*
X206575D01*
X205000Y510079D02*
Y513228D01*
X173425Y468347D02*
X176575D01*
X175000Y466772D02*
Y469921D01*
X173425Y511654D02*
X176575D01*
X175000Y510079D02*
Y513228D01*
X499094Y510000D02*
X502165D01*
X500630Y508465D02*
Y511535D01*
X499094Y500000D02*
X502165D01*
X500630Y498465D02*
Y501535D01*
X499094Y490000D02*
X502165D01*
X500630Y488465D02*
Y491535D01*
X499094Y480000D02*
X502165D01*
X500630Y478465D02*
Y481535D01*
X467835Y480000D02*
X470905D01*
X469370Y478465D02*
Y481535D01*
X467835Y490000D02*
X470905D01*
X469370Y488465D02*
Y491535D01*
X467835Y500000D02*
X470905D01*
X469370Y498465D02*
Y501535D01*
X467835Y510000D02*
X470905D01*
X469370Y508465D02*
Y511535D01*
X548425Y473347D02*
X551575D01*
X550000Y471772D02*
Y474921D01*
X548425Y516653D02*
X551575D01*
X550000Y515079D02*
Y518228D01*
X533425Y516653D02*
X536575D01*
X535000Y515079D02*
Y518228D01*
X533425Y473347D02*
X536575D01*
X535000Y471772D02*
Y474921D01*
X518425Y473347D02*
X521575D01*
X520000Y471772D02*
Y474921D01*
X518425Y516653D02*
X521575D01*
X520000Y515079D02*
Y518228D01*
X660079Y355000D02*
X663228D01*
X661654Y353425D02*
Y356575D01*
X616772Y355000D02*
X619921D01*
X618347Y353425D02*
Y356575D01*
X660079Y370000D02*
X663228D01*
X661654Y368425D02*
Y371575D01*
X616772Y370000D02*
X619921D01*
X618347Y368425D02*
Y371575D01*
X666772Y385000D02*
X669921D01*
X668347Y383425D02*
Y386575D01*
X710079Y385000D02*
X713228D01*
X711654Y383425D02*
Y386575D01*
X666772Y370000D02*
X669921D01*
X668347Y368425D02*
Y371575D01*
X710079Y370000D02*
X713228D01*
X711654Y368425D02*
Y371575D01*
X666772Y355000D02*
X669921D01*
X668347Y353425D02*
Y356575D01*
X710079Y355000D02*
X713228D01*
X711654Y353425D02*
Y356575D01*
X651772Y245000D02*
X654921D01*
X653346Y243425D02*
Y246575D01*
X695079Y245000D02*
X698228D01*
X696654Y243425D02*
Y246575D01*
X601772Y245000D02*
X604921D01*
X603346Y243425D02*
Y246575D01*
X645079Y245000D02*
X648228D01*
X646654Y243425D02*
Y246575D01*
X601772Y230000D02*
X604921D01*
X603346Y228425D02*
Y231575D01*
X645079Y230000D02*
X648228D01*
X646654Y228425D02*
Y231575D01*
X695079Y230000D02*
X698228D01*
X696654Y228425D02*
Y231575D01*
X651772Y230000D02*
X654921D01*
X653346Y228425D02*
Y231575D01*
X723425Y83346D02*
X726575D01*
X725000Y81772D02*
Y84921D01*
X723425Y126654D02*
X726575D01*
X725000Y125079D02*
Y128228D01*
X797008Y90000D02*
X822992D01*
X810000Y77008D02*
Y102992D01*
X852008Y90000D02*
X877992D01*
X865000Y77008D02*
Y102992D01*
X905079Y200000D02*
X908228D01*
X906653Y198425D02*
Y201575D01*
X861772Y200000D02*
X864921D01*
X863346Y198425D02*
Y201575D01*
X868425Y143347D02*
X871575D01*
X870000Y141772D02*
Y144921D01*
X868425Y186653D02*
X871575D01*
X870000Y185079D02*
Y188228D01*
X798622Y149921D02*
X801378D01*
X800000Y148543D02*
Y151299D01*
X798622Y140079D02*
X801378D01*
X800000Y138701D02*
Y141457D01*
X786772Y180000D02*
X789921D01*
X788346Y178425D02*
Y181575D01*
X830079Y180000D02*
X833228D01*
X831653Y178425D02*
Y181575D01*
X830079Y200000D02*
X833228D01*
X831653Y198425D02*
Y201575D01*
X786772Y200000D02*
X789921D01*
X788346Y198425D02*
Y201575D01*
X452008Y105000D02*
X477992D01*
X465000Y92008D02*
Y117992D01*
X253425Y196654D02*
X256575D01*
X255000Y195079D02*
Y198228D01*
X253425Y153346D02*
X256575D01*
X255000Y151772D02*
Y154921D01*
X253425Y218347D02*
X256575D01*
X255000Y216772D02*
Y219921D01*
X253425Y261654D02*
X256575D01*
X255000Y260079D02*
Y263228D01*
X191772Y205000D02*
X194921D01*
X193346Y203425D02*
Y206575D01*
X235079Y205000D02*
X238228D01*
X236654Y203425D02*
Y206575D01*
X191772Y230000D02*
X194921D01*
X193346Y228425D02*
Y231575D01*
X235079Y230000D02*
X238228D01*
X236654Y228425D02*
Y231575D01*
X191772Y255000D02*
X194921D01*
X193346Y253425D02*
Y256575D01*
X235079Y255000D02*
X238228D01*
X236654Y253425D02*
Y256575D01*
X152008Y285000D02*
X177992D01*
X165000Y272008D02*
Y297992D01*
X152008Y230000D02*
X177992D01*
X165000Y217008D02*
Y242992D01*
X152008Y175000D02*
X177992D01*
X165000Y162008D02*
Y187992D01*
X68425Y196654D02*
X71575D01*
X70000Y195079D02*
Y198228D01*
X68425Y153346D02*
X71575D01*
X70000Y151772D02*
Y154921D01*
X822835Y130000D02*
X825906D01*
X824370Y128465D02*
Y131535D01*
X822835Y140000D02*
X825906D01*
X824370Y138465D02*
Y141535D01*
X822835Y150000D02*
X825906D01*
X824370Y148465D02*
Y151535D01*
X822835Y160000D02*
X825906D01*
X824370Y158465D02*
Y161535D01*
X854095Y160000D02*
X857165D01*
X855630Y158465D02*
Y161535D01*
X854095Y150000D02*
X857165D01*
X855630Y148465D02*
Y151535D01*
X854095Y140000D02*
X857165D01*
X855630Y138465D02*
Y141535D01*
X854095Y130000D02*
X857165D01*
X855630Y128465D02*
Y131535D01*
X807008Y235000D02*
X832992D01*
X820000Y222008D02*
Y247992D01*
X598150Y290000D02*
X601850D01*
X600000Y288150D02*
Y291850D01*
X588150Y290000D02*
X591850D01*
X590000Y288150D02*
Y291850D01*
X578150Y290000D02*
X581850D01*
X580000Y288150D02*
Y291850D01*
X658465Y154370D02*
X661535D01*
X660000Y152835D02*
Y155905D01*
X648465Y154370D02*
X651535D01*
X650000Y152835D02*
Y155905D01*
X638465Y154370D02*
X641535D01*
X640000Y152835D02*
Y155905D01*
X628465Y154370D02*
X631535D01*
X630000Y152835D02*
Y155905D01*
X628465Y185630D02*
X631535D01*
X630000Y184095D02*
Y187165D01*
X638465Y185630D02*
X641535D01*
X640000Y184095D02*
Y187165D01*
X648465Y185630D02*
X651535D01*
X650000Y184095D02*
Y187165D01*
X658465Y185630D02*
X661535D01*
X660000Y184095D02*
Y187165D01*
X703465Y154370D02*
X706535D01*
X705000Y152835D02*
Y155905D01*
X693465Y154370D02*
X696535D01*
X695000Y152835D02*
Y155905D01*
X683465Y154370D02*
X686535D01*
X685000Y152835D02*
Y155905D01*
X673465Y154370D02*
X676535D01*
X675000Y152835D02*
Y155905D01*
X673465Y185630D02*
X676535D01*
X675000Y184095D02*
Y187165D01*
X683465Y185630D02*
X686535D01*
X685000Y184095D02*
Y187165D01*
X693465Y185630D02*
X696535D01*
X695000Y184095D02*
Y187165D01*
X703465Y185630D02*
X706535D01*
X705000Y184095D02*
Y187165D01*
X708425Y83346D02*
X711575D01*
X710000Y81772D02*
Y84921D01*
X708425Y126654D02*
X711575D01*
X710000Y125079D02*
Y128228D01*
X553425Y153347D02*
X556575D01*
X555000Y151772D02*
Y154921D01*
X553425Y196653D02*
X556575D01*
X555000Y195079D02*
Y198228D01*
X539094Y195000D02*
X542165D01*
X540630Y193465D02*
Y196535D01*
X539094Y185000D02*
X542165D01*
X540630Y183465D02*
Y186535D01*
X539094Y175000D02*
X542165D01*
X540630Y173465D02*
Y176535D01*
X539094Y165000D02*
X542165D01*
X540630Y163465D02*
Y166535D01*
X507835Y165000D02*
X510906D01*
X509370Y163465D02*
Y166535D01*
X507835Y175000D02*
X510906D01*
X509370Y173465D02*
Y176535D01*
X507835Y185000D02*
X510906D01*
X509370Y183465D02*
Y186535D01*
X507835Y195000D02*
X510906D01*
X509370Y193465D02*
Y196535D01*
X568425Y153347D02*
X571575D01*
X570000Y151772D02*
Y154921D01*
X568425Y196653D02*
X571575D01*
X570000Y195079D02*
Y198228D01*
X608425Y153347D02*
X611575D01*
X610000Y151772D02*
Y154921D01*
X608425Y196653D02*
X611575D01*
X610000Y195079D02*
Y198228D01*
X593425Y153347D02*
X596575D01*
X595000Y151772D02*
Y154921D01*
X593425Y196653D02*
X596575D01*
X595000Y195079D02*
Y198228D01*
X748425Y283347D02*
X751575D01*
X750000Y281772D02*
Y284921D01*
X748425Y326654D02*
X751575D01*
X750000Y325079D02*
Y328228D01*
X517008Y235000D02*
X542992D01*
X530000Y222008D02*
Y247992D01*
X713150Y290000D02*
X716850D01*
X715000Y288150D02*
Y291850D01*
X703150Y290000D02*
X706850D01*
X705000Y288150D02*
Y291850D01*
X693150Y290000D02*
X696850D01*
X695000Y288150D02*
Y291850D01*
X703622Y320000D02*
X706378D01*
X705000Y318622D02*
Y321378D01*
X713465Y320000D02*
X716221D01*
X714843Y318622D02*
Y321378D01*
X733425Y326654D02*
X736575D01*
X735000Y325079D02*
Y328228D01*
X733425Y283347D02*
X736575D01*
X735000Y281772D02*
Y284921D01*
X683150Y290000D02*
X686850D01*
X685000Y288150D02*
Y291850D01*
X673150Y290000D02*
X676850D01*
X675000Y288150D02*
Y291850D01*
X663150Y290000D02*
X666850D01*
X665000Y288150D02*
Y291850D01*
X628150Y290000D02*
X631850D01*
X630000Y288150D02*
Y291850D01*
X618150Y290000D02*
X621850D01*
X620000Y288150D02*
Y291850D01*
X608150Y290000D02*
X611850D01*
X610000Y288150D02*
Y291850D01*
X743622Y240000D02*
X746378D01*
X745000Y238622D02*
Y241378D01*
X753465Y240000D02*
X756220D01*
X754843Y238622D02*
Y241378D01*
X673425Y83346D02*
X676575D01*
X675000Y81772D02*
Y84921D01*
X673425Y126654D02*
X676575D01*
X675000Y125079D02*
Y128228D01*
X723425Y203346D02*
X726575D01*
X725000Y201772D02*
Y204921D01*
X723425Y246654D02*
X726575D01*
X725000Y245079D02*
Y248228D01*
X708425Y203346D02*
X711575D01*
X710000Y201772D02*
Y204921D01*
X708425Y246654D02*
X711575D01*
X710000Y245079D02*
Y248228D01*
X568425Y218347D02*
X571575D01*
X570000Y216772D02*
Y219921D01*
X568425Y261653D02*
X571575D01*
X570000Y260079D02*
Y263228D01*
X583425Y218347D02*
X586575D01*
X585000Y216772D02*
Y219921D01*
X583425Y261653D02*
X586575D01*
X585000Y260079D02*
Y263228D01*
X693425Y126654D02*
X696575D01*
X695000Y125079D02*
Y128228D01*
X693425Y83346D02*
X696575D01*
X695000Y81772D02*
Y84921D01*
X658425Y126654D02*
X661575D01*
X660000Y125079D02*
Y128228D01*
X658425Y83346D02*
X661575D01*
X660000Y81772D02*
Y84921D01*
X628425Y83346D02*
X631575D01*
X630000Y81772D02*
Y84921D01*
X628425Y126654D02*
X631575D01*
X630000Y125079D02*
Y128228D01*
X668150Y316644D02*
X671850D01*
X670000Y314793D02*
Y318494D01*
X678150Y316644D02*
X681850D01*
X680000Y314793D02*
Y318494D01*
X688150Y316644D02*
X691850D01*
X690000Y314793D02*
Y318494D01*
X728622Y360000D02*
X731378D01*
X730000Y358622D02*
Y361378D01*
X738465Y360000D02*
X741221D01*
X739843Y358622D02*
Y361378D01*
X573701Y320000D02*
X576457D01*
X575079Y318622D02*
Y321378D01*
X583543Y320000D02*
X586299D01*
X584921Y318622D02*
Y321378D01*
X643425Y83346D02*
X646575D01*
X645000Y81772D02*
Y84921D01*
X643425Y126654D02*
X646575D01*
X645000Y125079D02*
Y128228D01*
X598150Y316644D02*
X601850D01*
X600000Y314793D02*
Y318494D01*
X608150Y316644D02*
X611850D01*
X610000Y314793D02*
Y318494D01*
X618150Y316644D02*
X621850D01*
X620000Y314793D02*
Y318494D01*
X613425Y83346D02*
X616575D01*
X615000Y81772D02*
Y84921D01*
X613425Y126654D02*
X616575D01*
X615000Y125079D02*
Y128228D01*
X588779Y365000D02*
X591535D01*
X590158Y363622D02*
Y366378D01*
X598622Y365000D02*
X601378D01*
X600000Y363622D02*
Y366378D01*
X643425Y283347D02*
X646575D01*
X645000Y281772D02*
Y284921D01*
X643425Y326654D02*
X646575D01*
X645000Y325079D02*
Y328228D01*
X568504Y111122D02*
X573228D01*
X570866Y108760D02*
Y113484D01*
X547638Y111122D02*
X552362D01*
X550000Y108760D02*
Y113484D01*
X526772Y111122D02*
X531496D01*
X529134Y108760D02*
Y113484D01*
X228465Y149370D02*
X231535D01*
X230000Y147835D02*
Y150905D01*
X218465Y149370D02*
X221535D01*
X220000Y147835D02*
Y150905D01*
X208465Y149370D02*
X211535D01*
X210000Y147835D02*
Y150905D01*
X198465Y149370D02*
X201535D01*
X200000Y147835D02*
Y150905D01*
X198465Y180630D02*
X201535D01*
X200000Y179095D02*
Y182165D01*
X208465Y180630D02*
X211535D01*
X210000Y179095D02*
Y182165D01*
X218465Y180630D02*
X221535D01*
X220000Y179095D02*
Y182165D01*
X228465Y180630D02*
X231535D01*
X230000Y179095D02*
Y182165D01*
X345197Y111122D02*
X349921D01*
X347559Y108760D02*
Y113484D01*
X366063Y111122D02*
X370787D01*
X368425Y108760D02*
Y113484D01*
X386929Y111122D02*
X391654D01*
X389291Y108760D02*
Y113484D01*
X22008Y275000D02*
X47992D01*
X35000Y262008D02*
Y287992D01*
X92008Y275000D02*
X117992D01*
X105000Y262008D02*
Y287992D01*
X105669Y330000D02*
X114331D01*
X110000Y325669D02*
Y334331D01*
X122598Y350000D02*
X127323D01*
X124961Y347638D02*
Y352362D01*
X122598Y310000D02*
X127323D01*
X124961Y307638D02*
Y312362D01*
X82598Y350000D02*
X87323D01*
X84961Y347638D02*
Y352362D01*
X82598Y310000D02*
X87323D01*
X84961Y307638D02*
Y312362D01*
X105709Y440000D02*
X114370D01*
X110039Y435669D02*
Y444331D01*
X122638Y460000D02*
X127362D01*
X125000Y457638D02*
Y462362D01*
X122638Y420000D02*
X127362D01*
X125000Y417638D02*
Y422362D01*
X82638Y460000D02*
X87362D01*
X85000Y457638D02*
Y462362D01*
X82638Y420000D02*
X87362D01*
X85000Y417638D02*
Y422362D01*
X517008Y360000D02*
X542992D01*
X530000Y347008D02*
Y372992D01*
X807008Y305000D02*
X832992D01*
X820000Y292008D02*
Y317992D01*
X257008Y410000D02*
X282992D01*
X270000Y397008D02*
Y422992D01*
X807008Y365000D02*
X832992D01*
X820000Y352008D02*
Y377992D01*
X867008Y305000D02*
X892992D01*
X880000Y292008D02*
Y317992D01*
X92008Y185000D02*
X117992D01*
X105000Y172008D02*
Y197992D01*
X82598Y365000D02*
X87323D01*
X84961Y362638D02*
Y367362D01*
X82598Y405000D02*
X87323D01*
X84961Y402638D02*
Y407362D01*
X122598Y365000D02*
X127323D01*
X124961Y362638D02*
Y367362D01*
X122598Y405000D02*
X127323D01*
X124961Y402638D02*
Y407362D01*
X105669Y385000D02*
X114331D01*
X110000Y380669D02*
Y389331D01*
X301063Y165000D02*
X304213D01*
X302638Y163425D02*
Y166575D01*
X344370Y165000D02*
X347520D01*
X345945Y163425D02*
Y166575D01*
X426063Y165000D02*
X429213D01*
X427638Y163425D02*
Y166575D01*
X469370Y165000D02*
X472520D01*
X470945Y163425D02*
Y166575D01*
X407854Y214837D02*
X410728D01*
X409291Y213400D02*
Y216274D01*
X407854Y185163D02*
X410728D01*
X409291Y183726D02*
Y186600D01*
X397854Y185163D02*
X400728D01*
X399291Y183726D02*
Y186600D01*
X397854Y214837D02*
X400728D01*
X399291Y213400D02*
Y216274D01*
X282854Y219837D02*
X285728D01*
X284291Y218400D02*
Y221274D01*
X282854Y190163D02*
X285728D01*
X284291Y188726D02*
Y191600D01*
X326063Y260000D02*
X329213D01*
X327638Y258425D02*
Y261575D01*
X369370Y260000D02*
X372520D01*
X370945Y258425D02*
Y261575D01*
X326063Y245000D02*
X329213D01*
X327638Y243425D02*
Y246575D01*
X369370Y245000D02*
X372520D01*
X370945Y243425D02*
Y246575D01*
X421063Y265000D02*
X424213D01*
X422638Y263425D02*
Y266575D01*
X464370Y265000D02*
X467520D01*
X465945Y263425D02*
Y266575D01*
X458386Y310000D02*
X461457D01*
X459921Y308465D02*
Y311536D01*
X458386Y300000D02*
X461457D01*
X459921Y298465D02*
Y301536D01*
X458386Y290000D02*
X461457D01*
X459921Y288465D02*
Y291535D01*
X458386Y280000D02*
X461457D01*
X459921Y278465D02*
Y281536D01*
X427126Y280000D02*
X430197D01*
X428661Y278465D02*
Y281536D01*
X427126Y290000D02*
X430197D01*
X428661Y288465D02*
Y291535D01*
X427126Y300000D02*
X430197D01*
X428661Y298465D02*
Y301536D01*
X427126Y310000D02*
X430197D01*
X428661Y308465D02*
Y311536D01*
X464370Y250000D02*
X467520D01*
X465945Y248425D02*
Y251575D01*
X421063Y250000D02*
X424213D01*
X422638Y248425D02*
Y251575D01*
X387717Y343346D02*
X390866D01*
X389291Y341772D02*
Y344921D01*
X387717Y386654D02*
X390866D01*
X389291Y385079D02*
Y388228D01*
X402717Y386654D02*
X405866D01*
X404291Y385079D02*
Y388228D01*
X402717Y343346D02*
X405866D01*
X404291Y341772D02*
Y344921D01*
X472854Y280163D02*
X475728D01*
X474291Y278726D02*
Y281600D01*
X472854Y309837D02*
X475728D01*
X474291Y308400D02*
Y311274D01*
X482854Y309837D02*
X485728D01*
X484291Y308400D02*
Y311274D01*
X482854Y280163D02*
X485728D01*
X484291Y278726D02*
Y281600D01*
X469370Y330000D02*
X472520D01*
X470945Y328425D02*
Y331575D01*
X426063Y330000D02*
X429213D01*
X427638Y328425D02*
Y331575D01*
X402854Y309837D02*
X405728D01*
X404291Y308400D02*
Y311274D01*
X402854Y280163D02*
X405728D01*
X404291Y278726D02*
Y281600D01*
X387854Y309837D02*
X390728D01*
X389291Y308400D02*
Y311274D01*
X387854Y280163D02*
X390728D01*
X389291Y278726D02*
Y281600D01*
X362756Y310000D02*
X365827D01*
X364291Y308465D02*
Y311536D01*
X362756Y300000D02*
X365827D01*
X364291Y298465D02*
Y301536D01*
X362756Y290000D02*
X365827D01*
X364291Y288465D02*
Y291535D01*
X362756Y280000D02*
X365827D01*
X364291Y278465D02*
Y281536D01*
X331496Y280000D02*
X334567D01*
X333032Y278465D02*
Y281536D01*
X331496Y290000D02*
X334567D01*
X333032Y288465D02*
Y291535D01*
X331496Y300000D02*
X334567D01*
X333032Y298465D02*
Y301536D01*
X331496Y310000D02*
X334567D01*
X333032Y308465D02*
Y311536D01*
X307854Y314837D02*
X310728D01*
X309291Y313400D02*
Y316274D01*
X307854Y285163D02*
X310728D01*
X309291Y283726D02*
Y286600D01*
X125079Y230000D02*
X128228D01*
X126654Y228425D02*
Y231575D01*
X81772Y230000D02*
X84921D01*
X83346Y228425D02*
Y231575D01*
X16772Y200000D02*
X19921D01*
X18346Y198425D02*
Y201575D01*
X60079Y200000D02*
X63228D01*
X61654Y198425D02*
Y201575D01*
X26772Y230000D02*
X29921D01*
X28346Y228425D02*
Y231575D01*
X70079Y230000D02*
X73228D01*
X71654Y228425D02*
Y231575D01*
X342756Y225000D02*
X345827D01*
X344291Y223465D02*
Y226536D01*
X342756Y215000D02*
X345827D01*
X344291Y213465D02*
Y216535D01*
X342756Y205000D02*
X345827D01*
X344291Y203465D02*
Y206536D01*
X342756Y195000D02*
X345827D01*
X344291Y193465D02*
Y196536D01*
X311496Y195000D02*
X314567D01*
X313032Y193465D02*
Y196536D01*
X311496Y205000D02*
X314567D01*
X313032Y203465D02*
Y206536D01*
X311496Y215000D02*
X314567D01*
X313032Y213465D02*
Y216535D01*
X311496Y225000D02*
X314567D01*
X313032Y223465D02*
Y226536D01*
X453386Y215000D02*
X456457D01*
X454921Y213465D02*
Y216535D01*
X453386Y205000D02*
X456457D01*
X454921Y203465D02*
Y206536D01*
X453386Y195000D02*
X456457D01*
X454921Y193465D02*
Y196536D01*
X453386Y185000D02*
X456457D01*
X454921Y183465D02*
Y186536D01*
X422126Y185000D02*
X425197D01*
X423661Y183465D02*
Y186536D01*
X422126Y195000D02*
X425197D01*
X423661Y193465D02*
Y196536D01*
X422126Y205000D02*
X425197D01*
X423661Y203465D02*
Y206536D01*
X422126Y215000D02*
X425197D01*
X423661Y213465D02*
Y216535D01*
X322717Y441654D02*
X325866D01*
X324291Y440079D02*
Y443228D01*
X322717Y398346D02*
X325866D01*
X324291Y396772D02*
Y399921D01*
X389016Y440000D02*
X392087D01*
X390551Y438465D02*
Y441536D01*
X389016Y430000D02*
X392087D01*
X390551Y428465D02*
Y431535D01*
X389016Y420000D02*
X392087D01*
X390551Y418465D02*
Y421535D01*
X389016Y410000D02*
X392087D01*
X390551Y408465D02*
Y411536D01*
X357756Y410000D02*
X360827D01*
X359291Y408465D02*
Y411536D01*
X357756Y420000D02*
X360827D01*
X359291Y418465D02*
Y421535D01*
X357756Y430000D02*
X360827D01*
X359291Y428465D02*
Y431535D01*
X357756Y440000D02*
X360827D01*
X359291Y438465D02*
Y441536D01*
X337717Y398346D02*
X340866D01*
X339291Y396772D02*
Y399921D01*
X337717Y441654D02*
X340866D01*
X339291Y440079D02*
Y443228D01*
X412717Y403346D02*
X415866D01*
X414291Y401772D02*
Y404921D01*
X412717Y446654D02*
X415866D01*
X414291Y445079D02*
Y448228D01*
X427717Y446654D02*
X430866D01*
X429291Y445079D02*
Y448228D01*
X427717Y403346D02*
X430866D01*
X429291Y401772D02*
Y404921D01*
X317854Y285163D02*
X320728D01*
X319291Y283726D02*
Y286600D01*
X317854Y314837D02*
X320728D01*
X319291Y313400D02*
Y316274D01*
X307717Y398346D02*
X310866D01*
X309291Y396772D02*
Y399921D01*
X307717Y441654D02*
X310866D01*
X309291Y440079D02*
Y443228D01*
X377717Y178346D02*
X380866D01*
X379291Y176772D02*
Y179921D01*
X377717Y221654D02*
X380866D01*
X379291Y220079D02*
Y223228D01*
X362717Y178346D02*
X365866D01*
X364291Y176772D02*
Y179921D01*
X362717Y221654D02*
X365866D01*
X364291Y220079D02*
Y223228D01*
X442717Y403346D02*
X445866D01*
X444291Y401772D02*
Y404921D01*
X442717Y446654D02*
X445866D01*
X444291Y445079D02*
Y448228D01*
X377854Y280163D02*
X380728D01*
X379291Y278726D02*
Y281600D01*
X377854Y309837D02*
X380728D01*
X379291Y308400D02*
Y311274D01*
X468386Y380000D02*
X471457D01*
X469921Y378465D02*
Y381536D01*
X468386Y370000D02*
X471457D01*
X469921Y368465D02*
Y371535D01*
X468386Y360000D02*
X471457D01*
X469921Y358465D02*
Y361536D01*
X468386Y350000D02*
X471457D01*
X469921Y348465D02*
Y351536D01*
X437126Y350000D02*
X440197D01*
X438661Y348465D02*
Y351536D01*
X437126Y360000D02*
X440197D01*
X438661Y358465D02*
Y361536D01*
X437126Y370000D02*
X440197D01*
X438661Y368465D02*
Y371535D01*
X437126Y380000D02*
X440197D01*
X438661Y378465D02*
Y381536D01*
X292854Y190163D02*
X295728D01*
X294291Y188726D02*
Y191600D01*
X292854Y219837D02*
X295728D01*
X294291Y218400D02*
Y221274D01*
X412854Y280163D02*
X415728D01*
X414291Y278726D02*
Y281600D01*
X412854Y309837D02*
X415728D01*
X414291Y308400D02*
Y311274D01*
X374370Y330000D02*
X377520D01*
X375945Y328425D02*
Y331575D01*
X331063Y330000D02*
X334213D01*
X332638Y328425D02*
Y331575D01*
X482717Y178346D02*
X485866D01*
X484291Y176772D02*
Y179921D01*
X482717Y221654D02*
X485866D01*
X484291Y220079D02*
Y223228D01*
X467717Y178346D02*
X470866D01*
X469291Y176772D02*
Y179921D01*
X467717Y221654D02*
X470866D01*
X469291Y220079D02*
Y223228D01*
X98504Y111122D02*
X103228D01*
X100866Y108760D02*
Y113484D01*
X77638Y111122D02*
X82362D01*
X80000Y108760D02*
Y113484D01*
X56772Y111122D02*
X61496D01*
X59134Y108760D02*
Y113484D01*
X393600Y149138D02*
X396400D01*
X395000Y147738D02*
Y150538D01*
X638600Y270000D02*
X641400D01*
X640000Y268600D02*
Y271400D01*
X468600Y440000D02*
X471400D01*
X470000Y438600D02*
Y441400D01*
X483600Y345000D02*
X486400D01*
X485000Y343600D02*
Y346400D01*
X393600Y250000D02*
X396400D01*
X395000Y248600D02*
Y251400D01*
X483600Y250000D02*
X486400D01*
X485000Y248600D02*
Y251400D01*
X643600Y210000D02*
X646400D01*
X645000Y208600D02*
Y211400D01*
X768600Y100000D02*
X771400D01*
X770000Y98600D02*
Y101400D01*
X853600Y405000D02*
X856400D01*
X855000Y403600D02*
Y406400D01*
X848600Y335000D02*
X851400D01*
X850000Y333600D02*
Y336400D01*
X703600Y515000D02*
X706400D01*
X705000Y513600D02*
Y516400D01*
X703600Y475000D02*
X706400D01*
X705000Y473600D02*
Y476400D01*
X498600Y405000D02*
X501400D01*
X500000Y403600D02*
Y406400D01*
X763600Y395000D02*
X766400D01*
X765000Y393600D02*
Y396400D01*
X773600Y325000D02*
X776400D01*
X775000Y323600D02*
Y326400D01*
X228600Y280000D02*
X231400D01*
X230000Y278600D02*
Y281400D01*
X148600Y370000D02*
X151400D01*
X150000Y368600D02*
Y371400D01*
X153600Y420000D02*
X156400D01*
X155000Y418600D02*
Y421400D01*
X223600Y355000D02*
X226400D01*
X225000Y353600D02*
Y356400D01*
X283600Y445000D02*
X286400D01*
X285000Y443600D02*
Y446400D01*
X303600Y340000D02*
X306400D01*
X305000Y338600D02*
Y341400D01*
M02*
