G04*
G04 #@! TF.GenerationSoftware,Altium Limited,Altium Designer,25.3.3 (18)*
G04*
G04 Layer_Color=65535*
%FSLAX25Y25*%
%MOIN*%
G70*
G04*
G04 #@! TF.SameCoordinates,FA0FBF1E-B46A-408A-9661-D3152EBB2E0D*
G04*
G04*
G04 #@! TF.FilePolarity,Positive*
G04*
G01*
G75*
%ADD10C,0.00787*%
%ADD11C,0.00500*%
%ADD12C,0.00591*%
D10*
X303894Y363480D02*
G03*
X303894Y363480I-394J0D01*
G01*
X224394Y366059D02*
G03*
X224394Y366059I-394J0D01*
G01*
X224894Y308559D02*
G03*
X224894Y308559I-394J0D01*
G01*
X254394Y350500D02*
G03*
X254394Y350500I-394J0D01*
G01*
X164906Y335228D02*
G03*
X164906Y335228I-394J0D01*
G01*
X264394Y304492D02*
G03*
X264394Y304492I-394J0D01*
G01*
X503406Y327228D02*
G03*
X503406Y327228I-394J0D01*
G01*
X304394Y304138D02*
G03*
X304394Y304138I-394J0D01*
G01*
X396098Y308276D02*
Y317724D01*
X420902D01*
X396098Y308276D02*
X420902D01*
Y317724D01*
X184740Y323024D02*
Y340976D01*
X192260D01*
Y323024D02*
Y340976D01*
X184740Y323024D02*
X192260D01*
X185134Y326094D02*
X191866D01*
X188500Y321449D02*
Y323024D01*
Y340976D02*
Y342551D01*
X179760Y323512D02*
Y341465D01*
X172240Y323512D02*
X179760D01*
X172240D02*
Y341465D01*
X179760D01*
X172634Y338394D02*
X179366D01*
X176000Y341465D02*
Y343039D01*
Y321937D02*
Y323512D01*
X173740Y279024D02*
Y296976D01*
X181260D01*
Y279024D02*
Y296976D01*
X173740Y279024D02*
X181260D01*
X174134Y282094D02*
X180866D01*
X177500Y277449D02*
Y279024D01*
Y296976D02*
Y298551D01*
X191760Y279024D02*
Y296976D01*
X184240Y279024D02*
X191760D01*
X184240D02*
Y296976D01*
X191760D01*
X184634Y293906D02*
X191366D01*
X188000Y296976D02*
Y298551D01*
Y277449D02*
Y279024D01*
X371402Y308276D02*
Y317724D01*
X346598Y308276D02*
X371402D01*
X346598Y317724D02*
X371402D01*
X346598Y308276D02*
Y317724D01*
X333319Y298154D02*
X435681D01*
Y254846D02*
Y298154D01*
X333319Y254846D02*
X435681D01*
X333319D02*
Y298154D01*
X331819Y368154D02*
X434181D01*
Y324846D02*
Y368154D01*
X331819Y324846D02*
X434181D01*
X331819D02*
Y368154D01*
D11*
X323185Y340843D02*
G03*
X323185Y340843I-19685J0D01*
G01*
X248606Y338500D02*
G03*
X248606Y338500I-24606J0D01*
G01*
X249106Y281000D02*
G03*
X249106Y281000I-24606J0D01*
G01*
X323685Y281500D02*
G03*
X323685Y281500I-19685J0D01*
G01*
X275260Y319752D02*
Y361248D01*
X256756Y319752D02*
X275260D01*
X256756D02*
Y361248D01*
X275260D01*
X105654Y344283D02*
X162346D01*
X105654Y279717D02*
Y344283D01*
Y279717D02*
X162346D01*
Y344283D01*
X275260Y260752D02*
Y302248D01*
X256756Y260752D02*
X275260D01*
X256756D02*
Y302248D01*
X275260D01*
X444154Y336283D02*
X500846D01*
X444154Y271717D02*
Y336283D01*
Y271717D02*
X500846D01*
Y336283D01*
D12*
X403376Y302032D02*
Y305968D01*
X405344D01*
X406000Y305312D01*
Y304000D01*
X405344Y303344D01*
X403376D01*
X404688D02*
X406000Y302032D01*
X407312D02*
X408624D01*
X407968D01*
Y305968D01*
X407312Y305312D01*
X292844Y367312D02*
X292188Y367968D01*
X290876D01*
X290220Y367312D01*
Y364688D01*
X290876Y364032D01*
X292188D01*
X292844Y364688D01*
X294156Y367312D02*
X294812Y367968D01*
X296124D01*
X296780Y367312D01*
Y366656D01*
X296124Y366000D01*
X295468D01*
X296124D01*
X296780Y365344D01*
Y364688D01*
X296124Y364032D01*
X294812D01*
X294156Y364688D01*
X204000Y364812D02*
X203344Y365468D01*
X202032D01*
X201376Y364812D01*
Y362188D01*
X202032Y361532D01*
X203344D01*
X204000Y362188D01*
X205312Y361532D02*
X206624D01*
X205968D01*
Y365468D01*
X205312Y364812D01*
X209844Y309312D02*
X209188Y309968D01*
X207876D01*
X207220Y309312D01*
Y306688D01*
X207876Y306032D01*
X209188D01*
X209844Y306688D01*
X213780Y306032D02*
X211156D01*
X213780Y308656D01*
Y309312D01*
X213124Y309968D01*
X211812D01*
X211156Y309312D01*
X195032Y321220D02*
X198968D01*
Y323188D01*
X198312Y323844D01*
X195688D01*
X195032Y323188D01*
Y321220D01*
X195688Y325156D02*
X195032Y325812D01*
Y327124D01*
X195688Y327780D01*
X196344D01*
X197000Y327124D01*
Y326468D01*
Y327124D01*
X197656Y327780D01*
X198312D01*
X198968Y327124D01*
Y325812D01*
X198312Y325156D01*
X166032Y327876D02*
X169968D01*
Y329844D01*
X169312Y330500D01*
X166688D01*
X166032Y329844D01*
Y327876D01*
X169968Y331812D02*
Y333124D01*
Y332468D01*
X166032D01*
X166688Y331812D01*
X168032Y287220D02*
X171968D01*
Y289188D01*
X171312Y289844D01*
X168688D01*
X168032Y289188D01*
Y287220D01*
X171968Y293780D02*
Y291156D01*
X169344Y293780D01*
X168688D01*
X168032Y293124D01*
Y291812D01*
X168688Y291156D01*
X193532Y285220D02*
X197468D01*
Y287188D01*
X196812Y287844D01*
X194188D01*
X193532Y287188D01*
Y285220D01*
X197468Y291124D02*
X193532D01*
X195500Y289156D01*
Y291780D01*
X253800Y368836D02*
Y366212D01*
X255112Y364900D01*
X256424Y366212D01*
Y368836D01*
X257736Y364900D02*
Y368836D01*
X259704D01*
X260360Y368180D01*
Y366868D01*
X259704Y366212D01*
X257736D01*
X259048D02*
X260360Y364900D01*
X261671D02*
X262983D01*
X262327D01*
Y368836D01*
X261671Y368180D01*
X107824Y351936D02*
X106512D01*
X107168D01*
Y348656D01*
X106512Y348000D01*
X105856D01*
X105200Y348656D01*
X109136Y348000D02*
X110448D01*
X109792D01*
Y351936D01*
X109136Y351280D01*
X256300Y311836D02*
Y309212D01*
X257612Y307900D01*
X258924Y309212D01*
Y311836D01*
X260236Y307900D02*
Y311836D01*
X262204D01*
X262860Y311180D01*
Y309868D01*
X262204Y309212D01*
X260236D01*
X261548D02*
X262860Y307900D01*
X266795D02*
X264172D01*
X266795Y310524D01*
Y311180D01*
X266139Y311836D01*
X264827D01*
X264172Y311180D01*
X350720Y301532D02*
Y305468D01*
X352688D01*
X353344Y304812D01*
Y303500D01*
X352688Y302844D01*
X350720D01*
X352032D02*
X353344Y301532D01*
X357280D02*
X354656D01*
X357280Y304156D01*
Y304812D01*
X356624Y305468D01*
X355312D01*
X354656Y304812D01*
X446324Y343936D02*
X445012D01*
X445668D01*
Y340656D01*
X445012Y340000D01*
X444356D01*
X443700Y340656D01*
X450260Y340000D02*
X447636D01*
X450260Y342624D01*
Y343280D01*
X449604Y343936D01*
X448292D01*
X447636Y343280D01*
X341844Y248812D02*
X341188Y249468D01*
X339876D01*
X339220Y248812D01*
Y246188D01*
X339876Y245532D01*
X341188D01*
X341844Y246188D01*
X345780Y249468D02*
X344468Y248812D01*
X343156Y247500D01*
Y246188D01*
X343812Y245532D01*
X345124D01*
X345780Y246188D01*
Y246844D01*
X345124Y247500D01*
X343156D01*
X338344Y377812D02*
X337688Y378468D01*
X336376D01*
X335720Y377812D01*
Y375188D01*
X336376Y374532D01*
X337688D01*
X338344Y375188D01*
X342280Y378468D02*
X339656D01*
Y376500D01*
X340968Y377156D01*
X341624D01*
X342280Y376500D01*
Y375188D01*
X341624Y374532D01*
X340312D01*
X339656Y375188D01*
X292844Y307812D02*
X292188Y308468D01*
X290876D01*
X290220Y307812D01*
Y305188D01*
X290876Y304532D01*
X292188D01*
X292844Y305188D01*
X296124Y304532D02*
Y308468D01*
X294156Y306500D01*
X296780D01*
M02*
