M48
;Layer_Color=9474304
;FILE_FORMAT=2:4
INCH,TZ
;TYPE=PLATED
T01F00S00C0.0276
T02F00S00C0.0335
T03F00S00C0.0394
T04F00S00C0.0488
T05F00S00C0.0512
T06F00S00C0.1260
%
T01
X17750Y27299
X18800
Y30301
X17750
X17600Y31748
X18850Y31699
Y34701
X17600Y34750
T02
X22450Y27116
Y29084
X30400Y29134
Y27166
X30350Y33100
Y35069
X22400Y34834
Y32866
X34128Y31300
X37672
X39078
X42622
T03
X34021Y27650
X42879
X42729Y34650
X33871
T04
X26400Y27150
Y28150
Y29150
Y33050
Y34050
Y35050
T05
X49100Y28786
Y30754
X45872
Y28786
X15250Y29586
X12022
Y31554
Y33523
X15250
Y31554
X45872Y32723
X49100
T06
X49600Y25300
X11350Y25200
X11200Y37050
X49500Y37000
M30
