G04*
G04 #@! TF.GenerationSoftware,Altium Limited,Altium Designer,25.3.3 (18)*
G04*
G04 Layer_Color=32768*
%FSLAX25Y25*%
%MOIN*%
G70*
G04*
G04 #@! TF.SameCoordinates,FA0FBF1E-B46A-408A-9661-D3152EBB2E0D*
G04*
G04*
G04 #@! TF.FilePolarity,Positive*
G04*
G01*
G75*
%ADD10C,0.00787*%
%ADD33C,0.00394*%
%ADD34C,0.00197*%
D10*
X184346Y314232D02*
Y349768D01*
X192654D01*
Y314232D02*
Y349768D01*
X184346Y314232D02*
X192654D01*
X180154Y314720D02*
Y350256D01*
X171846Y314720D02*
X180154D01*
X171846D02*
Y350256D01*
X180154D01*
X173346Y270232D02*
Y305768D01*
X181654D01*
Y270232D02*
Y305768D01*
X173346Y270232D02*
X181654D01*
X192154D02*
Y305768D01*
X183846Y270232D02*
X192154D01*
X183846D02*
Y305768D01*
X192154D01*
X332925Y298547D02*
X436075D01*
Y254453D02*
Y298547D01*
X332925Y254453D02*
X436075D01*
X332925D02*
Y298547D01*
X331425Y368547D02*
X434575D01*
Y324453D02*
Y368547D01*
X331425Y324453D02*
X434575D01*
X331425D02*
Y368547D01*
D33*
X406532Y313000D02*
X410469D01*
X408500Y311031D02*
Y314968D01*
X357031Y313000D02*
X360968D01*
X359000Y311032D02*
Y314969D01*
D34*
X387732Y307882D02*
Y318118D01*
Y307882D02*
X429268D01*
X387732Y318118D02*
X429268D01*
Y307882D02*
Y318118D01*
X379768Y307882D02*
Y318118D01*
X338232D02*
X379768D01*
X338232Y307882D02*
X379768D01*
X338232D02*
Y318118D01*
M02*
