G04*
G04 #@! TF.GenerationSoftware,Altium Limited,Altium Designer,25.3.3 (18)*
G04*
G04 Layer_Physical_Order=1*
G04 Layer_Color=255*
%FSLAX25Y25*%
%MOIN*%
G70*
G04*
G04 #@! TF.SameCoordinates,FA0FBF1E-B46A-408A-9661-D3152EBB2E0D*
G04*
G04*
G04 #@! TF.FilePolarity,Positive*
G04*
G01*
G75*
%ADD17R,0.04724X0.04724*%
%ADD18C,0.04724*%
%ADD23R,0.06102X0.06102*%
%ADD24C,0.06102*%
%ADD25C,0.04724*%
%ADD26C,0.05315*%
%ADD27R,0.05315X0.05315*%
%ADD28C,0.06000*%
%ADD29C,0.07323*%
%ADD30R,0.07323X0.07323*%
%ADD31C,0.07677*%
G36*
X508000Y241500D02*
X507500Y241000D01*
X100000D01*
Y382000D01*
X508000D01*
Y241500D01*
D02*
G37*
%LPC*%
G36*
X268661Y355161D02*
X259339D01*
Y353891D01*
X245079D01*
X244201Y353776D01*
X243383Y353437D01*
X242681Y352898D01*
X242681Y352898D01*
X241517Y351734D01*
X219854D01*
X219854Y351734D01*
X219415Y351676D01*
X218977Y351618D01*
X218638Y351478D01*
X218159Y351279D01*
X217456Y350741D01*
X187066Y320350D01*
X185138D01*
Y318281D01*
X185063Y318184D01*
X184865Y317705D01*
X184724Y317366D01*
X184609Y316488D01*
Y303012D01*
X184638Y302791D01*
Y300679D01*
X181885D01*
X180891Y301672D01*
Y303012D01*
Y315976D01*
X180776Y316854D01*
X180635Y317193D01*
X180437Y317672D01*
X179898Y318374D01*
X178398Y319874D01*
X178222Y320010D01*
X178064Y320167D01*
X177872Y320278D01*
X177696Y320413D01*
X177490Y320498D01*
X177298Y320609D01*
X177083Y320667D01*
X176878Y320752D01*
X176657Y320781D01*
X176443Y320839D01*
X176220D01*
X176000Y320868D01*
X175780Y320839D01*
X175557D01*
X175343Y320781D01*
X175122Y320752D01*
X174917Y320667D01*
X174702Y320609D01*
X174510Y320498D01*
X174304Y320413D01*
X174128Y320278D01*
X173936Y320167D01*
X173778Y320010D01*
X173602Y319874D01*
X173467Y319698D01*
X173310Y319541D01*
X173198Y319348D01*
X173063Y319172D01*
X172978Y318967D01*
X172867Y318774D01*
X172809Y318559D01*
X172724Y318354D01*
X172695Y318134D01*
X172638Y317919D01*
Y317697D01*
X172609Y317476D01*
X172638Y317256D01*
Y317034D01*
X172695Y316819D01*
X172724Y316599D01*
X172809Y316393D01*
X172867Y316179D01*
X172978Y315986D01*
X173063Y315781D01*
X173198Y315604D01*
X173310Y315412D01*
X173467Y315255D01*
X173602Y315078D01*
X174109Y314572D01*
Y303012D01*
Y300268D01*
X174224Y299390D01*
X174365Y299051D01*
X174563Y298572D01*
X175102Y297869D01*
X178082Y294889D01*
X178082Y294889D01*
X178785Y294351D01*
X179602Y294012D01*
X180480Y293896D01*
X180480Y293896D01*
X191755D01*
X192633Y294012D01*
X192867Y294109D01*
X201586D01*
X221109Y274586D01*
Y271157D01*
X221138Y270937D01*
Y270715D01*
X221195Y270500D01*
X221224Y270280D01*
X221309Y270074D01*
X221367Y269860D01*
X221478Y269667D01*
X221563Y269462D01*
X221698Y269285D01*
X221810Y269093D01*
X221967Y268936D01*
X222102Y268759D01*
X222278Y268624D01*
X222436Y268467D01*
X222628Y268356D01*
X222804Y268220D01*
X223010Y268135D01*
X223202Y268024D01*
X223417Y267967D01*
X223622Y267882D01*
X223843Y267853D01*
X224057Y267795D01*
X224280D01*
X224500Y267766D01*
X233157D01*
X234035Y267882D01*
X234374Y268022D01*
X234853Y268220D01*
X235555Y268759D01*
X244905Y278109D01*
X260799D01*
X261138Y277770D01*
X262201Y277156D01*
X262718Y277018D01*
Y275982D01*
X262201Y275844D01*
X261138Y275230D01*
X260270Y274362D01*
X259656Y273299D01*
X259339Y272114D01*
Y270886D01*
X259656Y269701D01*
X260270Y268638D01*
X261138Y267770D01*
X262201Y267156D01*
X263386Y266839D01*
X264614D01*
X265799Y267156D01*
X266862Y267770D01*
X267201Y268109D01*
X302753D01*
X303173Y267689D01*
X303875Y267150D01*
X304693Y266811D01*
X305571Y266695D01*
X344652D01*
X345530Y266811D01*
X346348Y267150D01*
X347050Y267689D01*
X379115Y299753D01*
X379115Y299753D01*
X379654Y300455D01*
X379992Y301273D01*
X380108Y302151D01*
X380108Y302151D01*
Y303506D01*
X381032Y303889D01*
X410819Y274102D01*
X410819Y274102D01*
X411521Y273563D01*
X412339Y273224D01*
X412778Y273167D01*
X413217Y273109D01*
X413217Y273109D01*
X426563D01*
X427228Y272725D01*
X428258Y272449D01*
X429325D01*
X430355Y272725D01*
X431020Y273109D01*
X447362D01*
X448240Y273224D01*
X448579Y273365D01*
X449058Y273563D01*
X449760Y274102D01*
X458678Y283020D01*
X459357D01*
X460588Y283349D01*
X461691Y283986D01*
X462592Y284887D01*
X463229Y285991D01*
X463559Y287221D01*
Y288495D01*
X463229Y289726D01*
X462592Y290829D01*
X461691Y291730D01*
X460588Y292367D01*
X459357Y292697D01*
X458083D01*
X456853Y292367D01*
X455749Y291730D01*
X454849Y290829D01*
X454212Y289726D01*
X453882Y288495D01*
Y287815D01*
X445958Y279891D01*
X431020D01*
X430355Y280275D01*
X429325Y280551D01*
X428258D01*
X427228Y280275D01*
X426563Y279891D01*
X414621D01*
X380374Y314138D01*
Y316657D01*
X373059D01*
Y309343D01*
X373325D01*
Y303555D01*
X345184Y275414D01*
X344260Y275796D01*
Y276000D01*
X336157D01*
Y273478D01*
X306976D01*
X306398Y274055D01*
X306222Y274191D01*
X306064Y274348D01*
X305872Y274459D01*
X305696Y274594D01*
X305490Y274679D01*
X305298Y274791D01*
X305083Y274848D01*
X304878Y274933D01*
X304657Y274962D01*
X304443Y275020D01*
X304220D01*
X304000Y275049D01*
X303780Y275020D01*
X303557D01*
X303343Y274962D01*
X303122Y274933D01*
X303021Y274891D01*
X267201D01*
X266862Y275230D01*
X265799Y275844D01*
X265282Y275982D01*
Y277018D01*
X265799Y277156D01*
X266862Y277770D01*
X267730Y278638D01*
X268344Y279701D01*
X268661Y280886D01*
Y282114D01*
X268344Y283299D01*
X267730Y284362D01*
X266862Y285230D01*
X265799Y285844D01*
X265950Y286839D01*
X268661D01*
Y291000D01*
X264000D01*
X259339D01*
Y286839D01*
X262050D01*
X262201Y285844D01*
X261138Y285230D01*
X260799Y284891D01*
X243500D01*
X243500Y284891D01*
X242622Y284776D01*
X241804Y284437D01*
X241102Y283898D01*
X241102Y283898D01*
X231753Y274549D01*
X227891D01*
Y275991D01*
X227776Y276869D01*
X227635Y277208D01*
X227437Y277687D01*
X226898Y278389D01*
X205389Y299898D01*
X204687Y300437D01*
X204208Y300635D01*
X203869Y300776D01*
X202991Y300891D01*
X191967D01*
X191362Y301422D01*
Y302791D01*
X191391Y303012D01*
Y313626D01*
X191862D01*
Y315554D01*
X221259Y344951D01*
X242921D01*
X243799Y345067D01*
X244617Y345406D01*
X245319Y345945D01*
X246483Y347109D01*
X259339D01*
Y345839D01*
X262050D01*
X262201Y344844D01*
X261138Y344230D01*
X260270Y343362D01*
X259656Y342299D01*
X259339Y341114D01*
Y341000D01*
X264000D01*
X268661D01*
Y341114D01*
X268344Y342299D01*
X267730Y343362D01*
X266862Y344230D01*
X265799Y344844D01*
X265950Y345839D01*
X268661D01*
Y355161D01*
D02*
G37*
G36*
X427825Y350551D02*
X427791D01*
Y347000D01*
X431343D01*
Y347033D01*
X431067Y348064D01*
X430533Y348988D01*
X429779Y349742D01*
X428855Y350275D01*
X427825Y350551D01*
D02*
G37*
G36*
X426791D02*
X426758D01*
X425728Y350275D01*
X424804Y349742D01*
X424050Y348988D01*
X423516Y348064D01*
X423240Y347033D01*
Y347000D01*
X426791D01*
Y350551D01*
D02*
G37*
G36*
X188012Y350891D02*
X164776D01*
X163898Y350776D01*
X163080Y350437D01*
X162378Y349898D01*
X152547Y340067D01*
X151867D01*
X150636Y339737D01*
X149533Y339100D01*
X148632Y338199D01*
X147995Y337096D01*
X147665Y335865D01*
Y334591D01*
X147995Y333361D01*
X148632Y332257D01*
X149533Y331357D01*
X150636Y330720D01*
X151867Y330390D01*
X153141D01*
X154372Y330720D01*
X155475Y331357D01*
X156376Y332257D01*
X157013Y333361D01*
X157343Y334591D01*
Y335271D01*
X166180Y344109D01*
X186760D01*
X186804Y344075D01*
X187010Y343990D01*
X187202Y343879D01*
X187417Y343821D01*
X187622Y343736D01*
X187843Y343707D01*
X188057Y343650D01*
X188280D01*
X188500Y343621D01*
X188720Y343650D01*
X188943D01*
X189157Y343707D01*
X189378Y343736D01*
X189583Y343821D01*
X189798Y343879D01*
X189990Y343990D01*
X190196Y344075D01*
X190372Y344210D01*
X190564Y344321D01*
X190722Y344479D01*
X190898Y344614D01*
X191033Y344790D01*
X191190Y344947D01*
X191302Y345140D01*
X191437Y345316D01*
X191522Y345522D01*
X191633Y345714D01*
X191691Y345929D01*
X191776Y346134D01*
X191805Y346354D01*
X191862Y346569D01*
Y346792D01*
X191891Y347012D01*
X191862Y347232D01*
Y347454D01*
X191805Y347669D01*
X191776Y347889D01*
X191691Y348095D01*
X191633Y348310D01*
X191522Y348502D01*
X191437Y348707D01*
X191302Y348884D01*
X191190Y349076D01*
X191033Y349233D01*
X190898Y349410D01*
X190410Y349898D01*
X189707Y350437D01*
X189228Y350635D01*
X188890Y350776D01*
X188012Y350891D01*
D02*
G37*
G36*
X431343Y346000D02*
X427791D01*
Y342449D01*
X427825D01*
X428855Y342725D01*
X429779Y343258D01*
X430533Y344012D01*
X431067Y344936D01*
X431343Y345967D01*
Y346000D01*
D02*
G37*
G36*
X426791D02*
X423240D01*
Y345967D01*
X423516Y344936D01*
X424050Y344012D01*
X424804Y343258D01*
X425728Y342725D01*
X426758Y342449D01*
X426791D01*
Y346000D01*
D02*
G37*
G36*
X304000Y334347D02*
Y331500D01*
X306847D01*
X306633Y332298D01*
X306190Y333064D01*
X305564Y333690D01*
X304798Y334133D01*
X304000Y334347D01*
D02*
G37*
G36*
X303000D02*
X302202Y334133D01*
X301436Y333690D01*
X300810Y333064D01*
X300367Y332298D01*
X300153Y331500D01*
X303000D01*
Y334347D01*
D02*
G37*
G36*
X120857Y340067D02*
X119583D01*
X118353Y339737D01*
X117249Y339100D01*
X116349Y338199D01*
X115712Y337096D01*
X115382Y335865D01*
Y334591D01*
X115712Y333361D01*
X116349Y332257D01*
X117249Y331357D01*
X118353Y330720D01*
X119583Y330390D01*
X120857D01*
X122088Y330720D01*
X123191Y331357D01*
X124092Y332257D01*
X124729Y333361D01*
X125059Y334591D01*
Y335865D01*
X124729Y337096D01*
X124092Y338199D01*
X123191Y339100D01*
X122088Y339737D01*
X120857Y340067D01*
D02*
G37*
G36*
X224500Y332004D02*
Y329157D01*
X227347D01*
X227133Y329955D01*
X226690Y330722D01*
X226064Y331348D01*
X225298Y331790D01*
X224500Y332004D01*
D02*
G37*
G36*
X223500D02*
X222702Y331790D01*
X221936Y331348D01*
X221310Y330722D01*
X220867Y329955D01*
X220653Y329157D01*
X223500D01*
Y332004D01*
D02*
G37*
G36*
X306847Y330500D02*
X304000D01*
Y327653D01*
X304798Y327867D01*
X305564Y328310D01*
X306190Y328936D01*
X306633Y329702D01*
X306847Y330500D01*
D02*
G37*
G36*
X303000D02*
X300153D01*
X300367Y329702D01*
X300810Y328936D01*
X301436Y328310D01*
X302202Y327867D01*
X303000Y327653D01*
Y330500D01*
D02*
G37*
G36*
X227347Y328157D02*
X224500D01*
Y325311D01*
X225298Y325524D01*
X226064Y325967D01*
X226690Y326593D01*
X227133Y327360D01*
X227347Y328157D01*
D02*
G37*
G36*
X223500D02*
X220653D01*
X220867Y327360D01*
X221310Y326593D01*
X221936Y325967D01*
X222702Y325524D01*
X223500Y325311D01*
Y328157D01*
D02*
G37*
G36*
X491641Y332067D02*
X490367D01*
X489136Y331737D01*
X488033Y331100D01*
X487132Y330199D01*
X486495Y329096D01*
X486165Y327865D01*
Y326591D01*
X486495Y325361D01*
X487132Y324257D01*
X488033Y323357D01*
X489136Y322720D01*
X490367Y322390D01*
X491641D01*
X492872Y322720D01*
X493975Y323357D01*
X494876Y324257D01*
X495513Y325361D01*
X495843Y326591D01*
Y327865D01*
X495513Y329096D01*
X494876Y330199D01*
X493975Y331100D01*
X492872Y331737D01*
X491641Y332067D01*
D02*
G37*
G36*
X153141Y320382D02*
X153004D01*
Y316043D01*
X157343D01*
Y316180D01*
X157013Y317411D01*
X156376Y318514D01*
X155475Y319415D01*
X154372Y320052D01*
X153141Y320382D01*
D02*
G37*
G36*
X152004D02*
X151867D01*
X150636Y320052D01*
X149533Y319415D01*
X148632Y318514D01*
X147995Y317411D01*
X147665Y316180D01*
Y316043D01*
X152004D01*
Y320382D01*
D02*
G37*
G36*
X341783Y316652D02*
Y313500D01*
X344936D01*
X344692Y314412D01*
X344210Y315246D01*
X343529Y315927D01*
X342695Y316408D01*
X341783Y316652D01*
D02*
G37*
G36*
X394441Y316657D02*
X391283D01*
Y313500D01*
X394441D01*
Y316657D01*
D02*
G37*
G36*
X390283D02*
X387126D01*
Y313500D01*
X390283D01*
Y316657D01*
D02*
G37*
G36*
X340783Y316652D02*
X339872Y316408D01*
X339038Y315927D01*
X338357Y315246D01*
X337875Y314412D01*
X337631Y313500D01*
X340783D01*
Y316652D01*
D02*
G37*
G36*
X157343Y315043D02*
X153004D01*
Y310705D01*
X153141D01*
X154372Y311035D01*
X155475Y311672D01*
X156376Y312572D01*
X157013Y313676D01*
X157343Y314906D01*
Y315043D01*
D02*
G37*
G36*
X152004D02*
X147665D01*
Y314906D01*
X147995Y313676D01*
X148632Y312572D01*
X149533Y311672D01*
X150636Y311035D01*
X151867Y310705D01*
X152004D01*
Y315043D01*
D02*
G37*
G36*
X120857Y320382D02*
X119583D01*
X118353Y320052D01*
X117249Y319415D01*
X116349Y318514D01*
X115712Y317411D01*
X115382Y316180D01*
Y314906D01*
X115712Y313676D01*
X116349Y312572D01*
X117249Y311672D01*
X118353Y311035D01*
X119583Y310705D01*
X120857D01*
X122088Y311035D01*
X123191Y311672D01*
X124092Y312572D01*
X124729Y313676D01*
X125059Y314906D01*
Y316180D01*
X124729Y317411D01*
X124092Y318514D01*
X123191Y319415D01*
X122088Y320052D01*
X120857Y320382D01*
D02*
G37*
G36*
X344936Y312500D02*
X341783D01*
Y309348D01*
X342695Y309592D01*
X343529Y310073D01*
X344210Y310754D01*
X344692Y311588D01*
X344936Y312500D01*
D02*
G37*
G36*
X340783D02*
X337631D01*
X337875Y311588D01*
X338357Y310754D01*
X339038Y310073D01*
X339872Y309592D01*
X340783Y309348D01*
Y312500D01*
D02*
G37*
G36*
X319012Y354076D02*
X303500D01*
X303280Y354047D01*
X300138D01*
Y352119D01*
X281910Y333891D01*
X267201D01*
X266862Y334230D01*
X265799Y334844D01*
X265282Y334982D01*
Y336018D01*
X265799Y336156D01*
X266862Y336770D01*
X267730Y337638D01*
X268344Y338701D01*
X268661Y339886D01*
Y340000D01*
X264000D01*
X259339D01*
Y339886D01*
X259656Y338701D01*
X260270Y337638D01*
X261138Y336770D01*
X262201Y336156D01*
X262718Y336018D01*
Y334982D01*
X262201Y334844D01*
X261138Y334230D01*
X260270Y333362D01*
X259656Y332299D01*
X259339Y331114D01*
Y329886D01*
X259656Y328701D01*
X260270Y327638D01*
X261138Y326770D01*
X262201Y326156D01*
X263386Y325839D01*
X264614D01*
X265799Y326156D01*
X266862Y326770D01*
X267201Y327109D01*
X283315D01*
X284192Y327224D01*
X284531Y327365D01*
X285010Y327563D01*
X285713Y328102D01*
X304905Y347294D01*
X317607D01*
X320799Y344102D01*
X321501Y343563D01*
X322319Y343224D01*
X322758Y343167D01*
X323197Y343109D01*
X323197Y343109D01*
X334657D01*
Y342449D01*
X342760D01*
Y343109D01*
X391312D01*
X422800Y311621D01*
X422808Y311588D01*
X423290Y310754D01*
X423971Y310073D01*
X424805Y309592D01*
X425735Y309343D01*
X426698D01*
X427628Y309592D01*
X427658Y309609D01*
X444492D01*
X445370Y309724D01*
X445709Y309865D01*
X446188Y310063D01*
X446890Y310602D01*
X458678Y322390D01*
X459357D01*
X460588Y322720D01*
X461691Y323357D01*
X462592Y324257D01*
X463229Y325361D01*
X463559Y326591D01*
Y327865D01*
X463229Y329096D01*
X462592Y330199D01*
X461691Y331100D01*
X460588Y331737D01*
X459357Y332067D01*
X458083D01*
X456853Y331737D01*
X455749Y331100D01*
X454849Y330199D01*
X454212Y329096D01*
X453882Y327865D01*
Y327186D01*
X443087Y316391D01*
X427658D01*
X427628Y316408D01*
X427595Y316417D01*
X395115Y348898D01*
X394412Y349437D01*
X393933Y349635D01*
X393594Y349776D01*
X392717Y349891D01*
X342760D01*
Y350551D01*
X334657D01*
Y349891D01*
X324602D01*
X321410Y353083D01*
X320707Y353622D01*
X319889Y353961D01*
X319012Y354076D01*
D02*
G37*
G36*
X394441Y312500D02*
X391283D01*
Y309343D01*
X394441D01*
Y312500D01*
D02*
G37*
G36*
X390283D02*
X387126D01*
Y309343D01*
X390283D01*
Y312500D01*
D02*
G37*
G36*
X459357Y312382D02*
X459220D01*
Y308043D01*
X463559D01*
Y308180D01*
X463229Y309411D01*
X462592Y310514D01*
X461691Y311415D01*
X460588Y312052D01*
X459357Y312382D01*
D02*
G37*
G36*
X458220D02*
X458083D01*
X456853Y312052D01*
X455749Y311415D01*
X454849Y310514D01*
X454212Y309411D01*
X453882Y308180D01*
Y308043D01*
X458220D01*
Y312382D01*
D02*
G37*
G36*
X491641D02*
X490367D01*
X489136Y312052D01*
X488033Y311415D01*
X487132Y310514D01*
X486495Y309411D01*
X486165Y308180D01*
Y306906D01*
X486495Y305676D01*
X487132Y304572D01*
X488033Y303672D01*
X489136Y303035D01*
X490367Y302705D01*
X491641D01*
X492872Y303035D01*
X493975Y303672D01*
X494876Y304572D01*
X495513Y305676D01*
X495843Y306906D01*
Y308180D01*
X495513Y309411D01*
X494876Y310514D01*
X493975Y311415D01*
X492872Y312052D01*
X491641Y312382D01*
D02*
G37*
G36*
X463559Y307043D02*
X459220D01*
Y302705D01*
X459357D01*
X460588Y303035D01*
X461691Y303672D01*
X462592Y304572D01*
X463229Y305676D01*
X463559Y306906D01*
Y307043D01*
D02*
G37*
G36*
X458220D02*
X453882D01*
Y306906D01*
X454212Y305676D01*
X454849Y304572D01*
X455749Y303672D01*
X456853Y303035D01*
X458083Y302705D01*
X458220D01*
Y307043D01*
D02*
G37*
G36*
X268661Y296161D02*
X264500D01*
Y292000D01*
X268661D01*
Y296161D01*
D02*
G37*
G36*
X263500D02*
X259339D01*
Y292000D01*
X263500D01*
Y296161D01*
D02*
G37*
G36*
X307362Y294705D02*
X304500D01*
Y291843D01*
X307362D01*
Y294705D01*
D02*
G37*
G36*
X303500D02*
X300638D01*
Y291843D01*
X303500D01*
Y294705D01*
D02*
G37*
G36*
X227862Y294205D02*
X225000D01*
Y291343D01*
X227862D01*
Y294205D01*
D02*
G37*
G36*
X224000D02*
X221138D01*
Y291343D01*
X224000D01*
Y294205D01*
D02*
G37*
G36*
X120857Y300697D02*
X119583D01*
X118353Y300367D01*
X117249Y299730D01*
X116349Y298829D01*
X115712Y297726D01*
X115382Y296495D01*
Y295221D01*
X115712Y293991D01*
X116349Y292887D01*
X117249Y291986D01*
X118353Y291349D01*
X119583Y291020D01*
X120857D01*
X122088Y291349D01*
X123191Y291986D01*
X124092Y292887D01*
X124729Y293991D01*
X125059Y295221D01*
Y296495D01*
X124729Y297726D01*
X124092Y298829D01*
X123191Y299730D01*
X122088Y300367D01*
X120857Y300697D01*
D02*
G37*
G36*
X307362Y290843D02*
X304500D01*
Y287980D01*
X307362D01*
Y290843D01*
D02*
G37*
G36*
X303500D02*
X300638D01*
Y287980D01*
X303500D01*
Y290843D01*
D02*
G37*
G36*
X227862Y290343D02*
X225000D01*
Y287480D01*
X227862D01*
Y290343D01*
D02*
G37*
G36*
X224000D02*
X221138D01*
Y287480D01*
X224000D01*
Y290343D01*
D02*
G37*
G36*
X491641Y292697D02*
X490367D01*
X489136Y292367D01*
X488033Y291730D01*
X487132Y290829D01*
X486495Y289726D01*
X486165Y288495D01*
Y287221D01*
X486495Y285991D01*
X487132Y284887D01*
X488033Y283986D01*
X489136Y283349D01*
X490367Y283020D01*
X491641D01*
X492872Y283349D01*
X493975Y283986D01*
X494876Y284887D01*
X495513Y285991D01*
X495843Y287221D01*
Y288495D01*
X495513Y289726D01*
X494876Y290829D01*
X493975Y291730D01*
X492872Y292367D01*
X491641Y292697D01*
D02*
G37*
G36*
X344260Y280551D02*
X340709D01*
Y277000D01*
X344260D01*
Y280551D01*
D02*
G37*
G36*
X339709D02*
X336157D01*
Y277000D01*
X339709D01*
Y280551D01*
D02*
G37*
G36*
X153141Y300697D02*
X151867D01*
X150636Y300367D01*
X149533Y299730D01*
X148632Y298829D01*
X147995Y297726D01*
X147665Y296495D01*
Y295221D01*
X147995Y293991D01*
X148632Y292887D01*
X149533Y291986D01*
X150636Y291349D01*
X151867Y291020D01*
X153141D01*
X154349Y291343D01*
X174138Y271554D01*
Y269626D01*
X177280D01*
X177500Y269597D01*
X188000D01*
X188220Y269626D01*
X188443D01*
X188657Y269684D01*
X188878Y269712D01*
X189083Y269798D01*
X189298Y269855D01*
X189490Y269966D01*
X189696Y270051D01*
X189872Y270187D01*
X190064Y270298D01*
X190222Y270455D01*
X190398Y270590D01*
X190533Y270767D01*
X190690Y270924D01*
X190802Y271116D01*
X190937Y271293D01*
X191022Y271498D01*
X191133Y271690D01*
X191191Y271905D01*
X191276Y272111D01*
X191305Y272331D01*
X191362Y272546D01*
Y272768D01*
X191391Y272988D01*
X191362Y273209D01*
Y273431D01*
X191305Y273645D01*
X191276Y273866D01*
X191191Y274071D01*
X191133Y274286D01*
X191022Y274479D01*
X190937Y274684D01*
X190802Y274860D01*
X190690Y275053D01*
X190533Y275210D01*
X190398Y275386D01*
X190222Y275521D01*
X190064Y275679D01*
X189872Y275790D01*
X189696Y275925D01*
X189490Y276010D01*
X189298Y276121D01*
X189083Y276179D01*
X188878Y276264D01*
X188657Y276293D01*
X188443Y276350D01*
X188220D01*
X188000Y276379D01*
X178905D01*
X157593Y297691D01*
X156891Y298230D01*
X156669Y298322D01*
X156376Y298829D01*
X155475Y299730D01*
X154372Y300367D01*
X153141Y300697D01*
D02*
G37*
%LPD*%
D17*
X303500Y350685D02*
D03*
X224000Y348343D02*
D03*
X224500Y290843D02*
D03*
X188500Y316988D02*
D03*
X176000Y347500D02*
D03*
X177500Y272988D02*
D03*
X188000Y303012D02*
D03*
X304000Y291343D02*
D03*
D18*
X303500Y331000D02*
D03*
X224000Y328657D02*
D03*
X224500Y271157D02*
D03*
X188500Y347012D02*
D03*
X176000Y317476D02*
D03*
X177500Y303012D02*
D03*
X188000Y272988D02*
D03*
X304000Y271657D02*
D03*
D23*
X340209Y276500D02*
D03*
X338709Y346500D02*
D03*
D24*
X428791Y276500D02*
D03*
X427291Y346500D02*
D03*
D25*
X176000Y317476D02*
X177500Y315976D01*
Y303012D02*
Y315976D01*
X444492Y313000D02*
X458720Y327228D01*
X426217Y313000D02*
X444492D01*
X392717Y346500D02*
X426217Y313000D01*
X338709Y346500D02*
X392717D01*
X447362Y276500D02*
X458720Y287858D01*
X428791Y276500D02*
X447362D01*
X413217D02*
X428791D01*
X376717Y313000D02*
X413217Y276500D01*
X304000Y271657D02*
X305571Y270087D01*
X344652D01*
X376717Y302151D01*
Y313000D01*
X323197Y346500D02*
X338709D01*
X319012Y350685D02*
X323197Y346500D01*
X303500Y350685D02*
X319012D01*
X245079Y350500D02*
X264000D01*
X242921Y348343D02*
X245079Y350500D01*
X224000Y348343D02*
X242921D01*
X283315Y330500D02*
X303500Y350685D01*
X264000Y330500D02*
X283315D01*
X303843Y271500D02*
X304000Y271657D01*
X264000Y271500D02*
X303843D01*
X233157Y271157D02*
X243500Y281500D01*
X264000D01*
X224500Y271157D02*
X233157D01*
X219854Y348343D02*
X224000D01*
X188500Y316988D02*
X219854Y348343D01*
X188000Y316488D02*
X188500Y316988D01*
X188000Y303012D02*
Y316488D01*
X177500Y300268D02*
Y303012D01*
X180480Y297287D02*
X191755D01*
X177500Y300268D02*
X180480Y297287D01*
X191755D02*
X191967Y297500D01*
X202991D02*
X224500Y275991D01*
X191967Y297500D02*
X202991D01*
X224500Y271157D02*
Y275991D01*
X177500Y272988D02*
X188000D01*
X152504Y295858D02*
X153069Y295293D01*
X155195D02*
X177500Y272988D01*
X153069Y295293D02*
X155195D01*
X188012Y347500D02*
X188500Y347012D01*
X176000Y347500D02*
X188012D01*
X164776D02*
X176000D01*
X152504Y335228D02*
X164776Y347500D01*
D26*
X426217Y313000D02*
D03*
X341283D02*
D03*
D27*
X390783D02*
D03*
X376717D02*
D03*
D28*
X496000Y253000D02*
D03*
X495000Y370000D02*
D03*
X113500Y252000D02*
D03*
X112000Y370500D02*
D03*
D29*
X264000Y330500D02*
D03*
Y340500D02*
D03*
Y271500D02*
D03*
Y281500D02*
D03*
D30*
Y350500D02*
D03*
Y291500D02*
D03*
D31*
X120220Y295858D02*
D03*
Y315543D02*
D03*
Y335228D02*
D03*
X152504Y295858D02*
D03*
Y315543D02*
D03*
Y335228D02*
D03*
X458720Y287858D02*
D03*
Y307543D02*
D03*
Y327228D02*
D03*
X491004Y287858D02*
D03*
Y307543D02*
D03*
Y327228D02*
D03*
M02*
