G04*
G04 #@! TF.GenerationSoftware,Altium Limited,Altium Designer,25.3.3 (18)*
G04*
G04 Layer_Physical_Order=2*
G04 Layer_Color=16711680*
%FSLAX25Y25*%
%MOIN*%
G70*
G04*
G04 #@! TF.SameCoordinates,FA0FBF1E-B46A-408A-9661-D3152EBB2E0D*
G04*
G04*
G04 #@! TF.FilePolarity,Positive*
G04*
G01*
G75*
%ADD17R,0.04724X0.04724*%
%ADD18C,0.04724*%
%ADD23R,0.06102X0.06102*%
%ADD24C,0.06102*%
%ADD26C,0.05315*%
%ADD27R,0.05315X0.05315*%
%ADD28C,0.06000*%
%ADD29C,0.07323*%
%ADD30R,0.07323X0.07323*%
%ADD31C,0.07677*%
%ADD32C,0.01000*%
D17*
X303500Y350685D02*
D03*
X224000Y348343D02*
D03*
X224500Y290843D02*
D03*
X188500Y316988D02*
D03*
X176000Y347500D02*
D03*
X177500Y272988D02*
D03*
X188000Y303012D02*
D03*
X304000Y291343D02*
D03*
D18*
X303500Y331000D02*
D03*
X224000Y328657D02*
D03*
X224500Y271157D02*
D03*
X188500Y347012D02*
D03*
X176000Y317476D02*
D03*
X177500Y303012D02*
D03*
X188000Y272988D02*
D03*
X304000Y271657D02*
D03*
D23*
X340209Y276500D02*
D03*
X338709Y346500D02*
D03*
D24*
X428791Y276500D02*
D03*
X427291Y346500D02*
D03*
D26*
X426217Y313000D02*
D03*
X341283D02*
D03*
D27*
X390783D02*
D03*
X376717D02*
D03*
D28*
X496000Y253000D02*
D03*
X495000Y370000D02*
D03*
X113500Y252000D02*
D03*
X112000Y370500D02*
D03*
D29*
X264000Y330500D02*
D03*
Y340500D02*
D03*
Y271500D02*
D03*
Y281500D02*
D03*
D30*
Y350500D02*
D03*
Y291500D02*
D03*
D31*
X120220Y295858D02*
D03*
Y315543D02*
D03*
Y335228D02*
D03*
X152504Y295858D02*
D03*
Y315543D02*
D03*
Y335228D02*
D03*
X458720Y287858D02*
D03*
Y307543D02*
D03*
Y327228D02*
D03*
X491004Y287858D02*
D03*
Y307543D02*
D03*
Y327228D02*
D03*
D32*
X224000Y328657D02*
Y329857D01*
M02*
