G04*
G04 #@! TF.GenerationSoftware,Altium Limited,Altium Designer,25.3.3 (18)*
G04*
G04 Layer_Color=65535*
%FSLAX25Y25*%
%MOIN*%
G70*
G04*
G04 #@! TF.SameCoordinates,B8643030-5FD7-41C3-8E4B-713DA0037FD2*
G04*
G04*
G04 #@! TF.FilePolarity,Positive*
G04*
G01*
G75*
%ADD10C,0.00591*%
%ADD11C,0.00787*%
%ADD12C,0.00500*%
%ADD13C,0.03150*%
%ADD14C,0.00984*%
%ADD15C,0.01181*%
%ADD16C,0.01000*%
%ADD17C,0.02362*%
G36*
X842240Y529583D02*
X842508D01*
Y529316D01*
X843043D01*
Y529048D01*
X843846D01*
Y528781D01*
X844113D01*
Y528513D01*
X844916D01*
Y528245D01*
X845183D01*
Y527978D01*
X845451D01*
Y527710D01*
X845986D01*
Y527443D01*
X846254D01*
Y527175D01*
X846521D01*
Y526907D01*
X846789D01*
Y526640D01*
X847057D01*
Y526372D01*
X847859D01*
Y525570D01*
X848662D01*
Y524767D01*
X848930D01*
Y524499D01*
X849197D01*
Y524232D01*
X849465D01*
Y523964D01*
X849732D01*
Y523697D01*
X850000D01*
Y523161D01*
X850268D01*
Y522894D01*
X850535D01*
Y522626D01*
X850803D01*
Y521823D01*
X851070D01*
Y521556D01*
X851338D01*
Y521021D01*
X851606D01*
Y519683D01*
X852141D01*
Y518345D01*
X852408D01*
Y518077D01*
X852676D01*
Y515937D01*
X852408D01*
Y515669D01*
X852676D01*
Y515134D01*
X852408D01*
Y514866D01*
X850000D01*
Y515669D01*
X849732D01*
Y515937D01*
X849465D01*
Y518345D01*
X849197D01*
Y519148D01*
X848930D01*
Y519415D01*
X848662D01*
Y520485D01*
X848394D01*
Y520753D01*
X848127D01*
Y521288D01*
X847859D01*
Y522091D01*
X847592D01*
Y522359D01*
X847324D01*
Y522626D01*
X847057D01*
Y522894D01*
X846789D01*
Y523161D01*
X846521D01*
Y523429D01*
X846254D01*
Y523697D01*
X845986D01*
Y523964D01*
X845719D01*
Y524232D01*
X845451D01*
Y524499D01*
X845183D01*
Y524767D01*
X844916D01*
Y525034D01*
X844648D01*
Y525302D01*
X844381D01*
Y525570D01*
X843578D01*
Y525837D01*
X843310D01*
Y526105D01*
X842775D01*
Y526372D01*
X842508D01*
Y526640D01*
X842240D01*
Y526907D01*
X840902D01*
Y527175D01*
X840367D01*
Y527443D01*
X840099D01*
Y527710D01*
X839832D01*
Y527978D01*
X839564D01*
Y528245D01*
X839832D01*
Y528513D01*
X839564D01*
Y528781D01*
X839832D01*
Y529048D01*
X840099D01*
Y529851D01*
X842240D01*
Y529583D01*
D02*
G37*
G36*
X840099Y526640D02*
X840367D01*
Y526372D01*
X841437D01*
Y526105D01*
X842240D01*
Y525570D01*
X843043D01*
Y525302D01*
X843310D01*
Y525034D01*
X843578D01*
Y524767D01*
X844381D01*
Y524499D01*
X844648D01*
Y524232D01*
X844916D01*
Y523964D01*
X845183D01*
Y523697D01*
X845451D01*
Y523429D01*
X845719D01*
Y523161D01*
X845986D01*
Y522894D01*
X846254D01*
Y522626D01*
X846521D01*
Y521823D01*
X846789D01*
Y521556D01*
X847057D01*
Y521288D01*
X847324D01*
Y520485D01*
X847859D01*
Y519683D01*
X848127D01*
Y519415D01*
X848394D01*
Y518880D01*
X848127D01*
Y518612D01*
X848394D01*
Y518345D01*
X848662D01*
Y517275D01*
X848930D01*
Y517007D01*
X849197D01*
Y515401D01*
X848662D01*
Y514866D01*
X845451D01*
Y515134D01*
X845183D01*
Y515401D01*
X844916D01*
Y516472D01*
X844648D01*
Y516739D01*
X844381D01*
Y518345D01*
X844113D01*
Y518612D01*
X843846D01*
Y518880D01*
X843578D01*
Y519683D01*
X843043D01*
Y519950D01*
X842775D01*
Y520485D01*
X842240D01*
Y521288D01*
X841437D01*
Y521823D01*
X840902D01*
Y522091D01*
X840367D01*
Y522359D01*
X840099D01*
Y522626D01*
X839832D01*
Y522894D01*
X839564D01*
Y523161D01*
X839029D01*
Y522894D01*
X838762D01*
Y523161D01*
X838494D01*
Y523429D01*
X837959D01*
Y523964D01*
X838494D01*
Y525034D01*
X838762D01*
Y526372D01*
X839029D01*
Y526640D01*
X839297D01*
Y526907D01*
X840099D01*
Y526640D01*
D02*
G37*
G36*
X759433Y508170D02*
Y507990D01*
Y506546D01*
X759613D01*
Y506366D01*
X759433D01*
Y506186D01*
X743015D01*
Y506366D01*
X742835D01*
Y510515D01*
X759433D01*
Y508170D01*
D02*
G37*
G36*
X814820Y520799D02*
X815000D01*
Y495000D01*
X806160D01*
Y495180D01*
X805258D01*
Y495361D01*
X804716D01*
Y495541D01*
X804175D01*
Y495722D01*
X803814D01*
Y495902D01*
X803454D01*
Y496082D01*
X803093D01*
Y496263D01*
X802912D01*
Y496443D01*
X802552D01*
Y496624D01*
X802371D01*
Y496804D01*
X802010D01*
Y496984D01*
X801830D01*
Y497165D01*
X801649D01*
Y497345D01*
X801469D01*
Y497526D01*
X801289D01*
Y497706D01*
X801108D01*
Y497887D01*
X800928D01*
Y498067D01*
X800747D01*
Y498247D01*
X800567D01*
Y498428D01*
X800387D01*
Y498608D01*
X800206D01*
Y498969D01*
X800026D01*
Y499150D01*
X799845D01*
Y499330D01*
X799665D01*
Y499510D01*
X799484D01*
Y499691D01*
X799304D01*
Y499871D01*
X799124D01*
Y500232D01*
X798943D01*
Y500412D01*
X798763D01*
Y500593D01*
X798583D01*
Y500773D01*
X798402D01*
Y500954D01*
X798222D01*
Y501134D01*
X798041D01*
Y501495D01*
X797861D01*
Y501675D01*
X797680D01*
Y501856D01*
X797500D01*
Y502036D01*
X797320D01*
Y502216D01*
X797139D01*
Y502397D01*
X796959D01*
Y502758D01*
X796778D01*
Y502938D01*
X796598D01*
Y503119D01*
X796418D01*
Y503299D01*
X796237D01*
Y503479D01*
X796057D01*
Y503660D01*
X795876D01*
Y504021D01*
X795696D01*
Y504201D01*
X795515D01*
Y504382D01*
X795335D01*
Y504562D01*
X795155D01*
Y504742D01*
X794974D01*
Y504923D01*
X794794D01*
Y505283D01*
X794613D01*
Y505464D01*
X794433D01*
Y505644D01*
X794253D01*
Y505825D01*
X794072D01*
Y506005D01*
X793892D01*
Y506186D01*
X793711D01*
Y506546D01*
X793531D01*
Y506727D01*
X793351D01*
Y506907D01*
X793170D01*
Y507088D01*
X792990D01*
Y507268D01*
X792809D01*
Y507448D01*
X792629D01*
Y507809D01*
X792449D01*
Y507990D01*
X792268D01*
Y508170D01*
X792088D01*
Y508351D01*
X791907D01*
Y508531D01*
X791727D01*
Y508711D01*
X791546D01*
Y509072D01*
X791366D01*
Y509253D01*
X791186D01*
Y509433D01*
X791005D01*
Y509613D01*
X790825D01*
Y509794D01*
X790644D01*
Y509974D01*
X790464D01*
Y510335D01*
X790283D01*
Y510515D01*
X790103D01*
Y510696D01*
X789923D01*
Y510876D01*
X789742D01*
Y511057D01*
X789562D01*
Y511237D01*
X789382D01*
Y511598D01*
X789201D01*
Y511778D01*
X789021D01*
Y511959D01*
X788840D01*
Y512139D01*
X788660D01*
Y512320D01*
X788479D01*
Y512500D01*
X788299D01*
Y512861D01*
X788119D01*
Y513041D01*
X787938D01*
Y513222D01*
X787758D01*
Y513402D01*
X787577D01*
Y513583D01*
X787217D01*
Y513763D01*
X787036D01*
Y513943D01*
X786856D01*
Y514124D01*
X786495D01*
Y514304D01*
X786134D01*
Y514485D01*
X785773D01*
Y514665D01*
X785052D01*
Y514845D01*
X784150D01*
Y495000D01*
X778016D01*
Y508177D01*
X776147D01*
Y507909D01*
X775879D01*
Y507642D01*
X775612D01*
Y507909D01*
X775344D01*
Y508177D01*
X775076D01*
Y507642D01*
X774809D01*
Y507374D01*
X774541D01*
Y503628D01*
X774809D01*
Y502825D01*
X774541D01*
Y502557D01*
X773738D01*
Y502825D01*
X774006D01*
Y503092D01*
X774274D01*
Y503360D01*
X774006D01*
Y503628D01*
X773738D01*
Y507642D01*
X773471D01*
Y507374D01*
X772668D01*
Y507106D01*
X772401D01*
Y506839D01*
X771598D01*
Y506304D01*
X770795D01*
Y506036D01*
X769725D01*
Y505768D01*
X769457D01*
Y505501D01*
X768654D01*
Y505233D01*
X768387D01*
Y504966D01*
X768119D01*
Y504698D01*
X767316D01*
Y504163D01*
X766514D01*
Y503895D01*
X765711D01*
Y503360D01*
X764908D01*
Y503092D01*
X764106D01*
Y503360D01*
X763838D01*
Y503628D01*
X764106D01*
Y505768D01*
X763838D01*
Y506036D01*
X763570D01*
Y507642D01*
X763035D01*
Y508177D01*
X762232D01*
Y507642D01*
X760627D01*
Y507909D01*
X760359D01*
Y508177D01*
X759824D01*
Y508444D01*
X759557D01*
Y508712D01*
X759824D01*
Y508979D01*
X763570D01*
Y512190D01*
X763303D01*
Y512458D01*
X763035D01*
Y512726D01*
X763303D01*
Y512993D01*
X763570D01*
Y514064D01*
X764908D01*
Y513528D01*
X765176D01*
Y513261D01*
X765979D01*
Y512993D01*
X766246D01*
Y512726D01*
X767049D01*
Y512458D01*
X768119D01*
Y512190D01*
X768387D01*
Y511923D01*
X768654D01*
Y511655D01*
X768922D01*
Y511388D01*
X769190D01*
Y511655D01*
X769457D01*
Y511120D01*
X770260D01*
Y510852D01*
X770528D01*
Y510585D01*
X771330D01*
Y510317D01*
X772133D01*
Y509782D01*
X772936D01*
Y509515D01*
X773203D01*
Y509247D01*
X773471D01*
Y509515D01*
X773738D01*
Y514064D01*
X774541D01*
Y513796D01*
X774809D01*
Y513528D01*
X774541D01*
Y509247D01*
X774809D01*
Y508979D01*
X778016D01*
Y520979D01*
X784691D01*
Y520799D01*
X786675D01*
Y520619D01*
X787577D01*
Y520438D01*
X788119D01*
Y520258D01*
X788660D01*
Y520077D01*
X789021D01*
Y519897D01*
X789382D01*
Y519717D01*
X789562D01*
Y519536D01*
X789923D01*
Y519356D01*
X790103D01*
Y519175D01*
X790464D01*
Y518995D01*
X790644D01*
Y518814D01*
X790825D01*
Y518634D01*
X791005D01*
Y518454D01*
X791186D01*
Y518273D01*
X791366D01*
Y518093D01*
X791546D01*
Y517912D01*
X791727D01*
Y517732D01*
X791907D01*
Y517552D01*
X792088D01*
Y517371D01*
X792268D01*
Y517191D01*
X792449D01*
Y517010D01*
X792629D01*
Y516830D01*
X792809D01*
Y516649D01*
X792990D01*
Y516469D01*
X793170D01*
Y516108D01*
X793351D01*
Y515928D01*
X793531D01*
Y515747D01*
X793711D01*
Y515567D01*
X793892D01*
Y515387D01*
X794072D01*
Y515206D01*
X794253D01*
Y514845D01*
X794433D01*
Y514665D01*
X794613D01*
Y514485D01*
X794794D01*
Y514304D01*
X794974D01*
Y514124D01*
X795155D01*
Y513943D01*
X795335D01*
Y513763D01*
X795515D01*
Y513402D01*
X795696D01*
Y513222D01*
X795876D01*
Y513041D01*
X796057D01*
Y512861D01*
X796237D01*
Y512680D01*
X796418D01*
Y512500D01*
X796598D01*
Y512139D01*
X796778D01*
Y511959D01*
X796959D01*
Y511778D01*
X797139D01*
Y511598D01*
X797320D01*
Y511417D01*
X797500D01*
Y511237D01*
X797680D01*
Y511057D01*
X797861D01*
Y510696D01*
X798041D01*
Y510515D01*
X798222D01*
Y510335D01*
X798402D01*
Y510155D01*
X798583D01*
Y509974D01*
X798763D01*
Y509794D01*
X798943D01*
Y509433D01*
X799124D01*
Y509253D01*
X799304D01*
Y509072D01*
X799484D01*
Y508892D01*
X799665D01*
Y508711D01*
X799845D01*
Y508531D01*
X800026D01*
Y508351D01*
X800206D01*
Y507990D01*
X800387D01*
Y507809D01*
X800567D01*
Y507629D01*
X800747D01*
Y507448D01*
X800928D01*
Y507268D01*
X801108D01*
Y507088D01*
X801289D01*
Y506907D01*
X801469D01*
Y506546D01*
X801649D01*
Y506366D01*
X801830D01*
Y506186D01*
X802010D01*
Y506005D01*
X802191D01*
Y505825D01*
X802371D01*
Y505644D01*
X802552D01*
Y505283D01*
X802732D01*
Y505103D01*
X802912D01*
Y504923D01*
X803093D01*
Y504742D01*
X803273D01*
Y504562D01*
X803454D01*
Y504382D01*
X803634D01*
Y504201D01*
X803814D01*
Y503840D01*
X803995D01*
Y503660D01*
X804175D01*
Y503479D01*
X804356D01*
Y503299D01*
X804536D01*
Y503119D01*
X804716D01*
Y502938D01*
X804897D01*
Y502758D01*
X805077D01*
Y502577D01*
X805258D01*
Y502397D01*
X805438D01*
Y502216D01*
X805619D01*
Y502036D01*
X805799D01*
Y501856D01*
X806160D01*
Y501675D01*
X806340D01*
Y501495D01*
X806701D01*
Y501314D01*
X807242D01*
Y501134D01*
X807964D01*
Y500954D01*
X808686D01*
Y520979D01*
X814820D01*
Y520799D01*
D02*
G37*
G36*
X771701Y515206D02*
X741392D01*
Y515026D01*
X741211D01*
Y514845D01*
X741031D01*
Y514665D01*
X740850D01*
Y502216D01*
X741031D01*
Y501856D01*
X741211D01*
Y501675D01*
X741572D01*
Y501495D01*
X771881D01*
Y495361D01*
X741031D01*
Y495541D01*
X739588D01*
Y495722D01*
X738866D01*
Y495902D01*
X738144D01*
Y496082D01*
X737783D01*
Y496263D01*
X737423D01*
Y496443D01*
X737062D01*
Y496624D01*
X736701D01*
Y496804D01*
X736521D01*
Y496984D01*
X736340D01*
Y497165D01*
X736160D01*
Y497345D01*
X735979D01*
Y497526D01*
X735799D01*
Y497706D01*
X735619D01*
Y497887D01*
X735438D01*
Y498247D01*
X735258D01*
Y498428D01*
X735077D01*
Y498789D01*
X734897D01*
Y499330D01*
X734717D01*
Y499871D01*
X734536D01*
Y501134D01*
X734356D01*
Y515747D01*
X734536D01*
Y516830D01*
X734717D01*
Y517552D01*
X734897D01*
Y517912D01*
X735077D01*
Y518273D01*
X735258D01*
Y518634D01*
X735438D01*
Y518814D01*
X735619D01*
Y519175D01*
X735799D01*
Y519356D01*
X735979D01*
Y519536D01*
X736160D01*
Y519717D01*
X736340D01*
Y519897D01*
X736701D01*
Y520077D01*
X736881D01*
Y520258D01*
X737242D01*
Y520438D01*
X737603D01*
Y520619D01*
X737964D01*
Y520799D01*
X738505D01*
Y520979D01*
X739227D01*
Y521160D01*
X740129D01*
Y521340D01*
X771701D01*
Y515206D01*
D02*
G37*
G36*
X894923Y514845D02*
X864974D01*
Y514665D01*
X864433D01*
Y514485D01*
X864253D01*
Y514124D01*
X864072D01*
Y501675D01*
X864253D01*
Y501314D01*
X864613D01*
Y501134D01*
X865155D01*
Y500954D01*
X895103D01*
Y495000D01*
X863170D01*
Y495180D01*
X862268D01*
Y495361D01*
X861546D01*
Y495541D01*
X861186D01*
Y495722D01*
X860644D01*
Y495902D01*
X860283D01*
Y496082D01*
X860103D01*
Y496263D01*
X859742D01*
Y496443D01*
X859562D01*
Y496624D01*
X859381D01*
Y496804D01*
X859201D01*
Y496984D01*
X859021D01*
Y497165D01*
X858840D01*
Y497345D01*
X858660D01*
Y497706D01*
X858479D01*
Y497887D01*
X858299D01*
Y498247D01*
X858119D01*
Y498789D01*
X857938D01*
Y499330D01*
X857758D01*
Y500412D01*
X857577D01*
Y515387D01*
X857758D01*
Y516469D01*
X857938D01*
Y517010D01*
X858119D01*
Y517552D01*
X858299D01*
Y517912D01*
X858479D01*
Y518093D01*
X858660D01*
Y518454D01*
X858840D01*
Y518634D01*
X859021D01*
Y518814D01*
X859201D01*
Y518995D01*
X859381D01*
Y519175D01*
X859562D01*
Y519356D01*
X859742D01*
Y519536D01*
X860103D01*
Y519717D01*
X860283D01*
Y519897D01*
X860644D01*
Y520077D01*
X861005D01*
Y520258D01*
X861546D01*
Y520438D01*
X862088D01*
Y520619D01*
X862990D01*
Y520799D01*
X865155D01*
Y520979D01*
X894923D01*
Y514845D01*
D02*
G37*
G36*
X837912Y521881D02*
X838454D01*
Y521701D01*
X838814D01*
Y521521D01*
X839175D01*
Y521340D01*
X839536D01*
Y521160D01*
X839897D01*
Y520979D01*
X840077D01*
Y520799D01*
X840438D01*
Y520619D01*
X840619D01*
Y520438D01*
X840799D01*
Y520258D01*
X840979D01*
Y520077D01*
X841160D01*
Y519897D01*
X841340D01*
Y519717D01*
X841521D01*
Y519536D01*
X841701D01*
Y519356D01*
X841881D01*
Y518995D01*
X842062D01*
Y518814D01*
X842242D01*
Y518454D01*
X842423D01*
Y518273D01*
X842603D01*
Y517912D01*
X842784D01*
Y517371D01*
X842964D01*
Y517010D01*
X843144D01*
Y516469D01*
Y516289D01*
X843325D01*
Y514845D01*
X841160D01*
Y494278D01*
X834845D01*
Y513943D01*
X834665D01*
Y514124D01*
X819691D01*
Y520077D01*
X837010D01*
Y520619D01*
X837191D01*
Y520979D01*
X837371D01*
Y521521D01*
X837551D01*
Y522062D01*
X837912D01*
Y521881D01*
D02*
G37*
G36*
X886443Y488866D02*
X886624D01*
Y488325D01*
X885722D01*
Y489046D01*
X886443D01*
Y488866D01*
D02*
G37*
G36*
X869665Y488325D02*
X868763D01*
Y489046D01*
X869665D01*
Y488325D01*
D02*
G37*
G36*
X842423D02*
X841521D01*
Y489046D01*
X842423D01*
Y488325D01*
D02*
G37*
G36*
X830876Y488866D02*
X831057D01*
Y488325D01*
X829974D01*
Y488866D01*
X830155D01*
Y489046D01*
X830876D01*
Y488866D01*
D02*
G37*
G36*
X764665D02*
X764845D01*
Y488686D01*
Y488505D01*
X764665D01*
Y488325D01*
X763763D01*
Y488866D01*
X763943D01*
Y489046D01*
X764665D01*
Y488866D01*
D02*
G37*
G36*
X825103Y487783D02*
X825284D01*
Y487603D01*
X825103D01*
Y485438D01*
X824742D01*
Y485258D01*
X824382D01*
Y485077D01*
X822217D01*
Y485258D01*
X821675D01*
Y485438D01*
X821495D01*
Y485799D01*
X821314D01*
Y487783D01*
X821495D01*
Y487964D01*
X822217D01*
Y487783D01*
X822397D01*
Y485979D01*
X824201D01*
Y487964D01*
X825103D01*
Y487783D01*
D02*
G37*
G36*
X890412D02*
X890773D01*
Y487423D01*
X890954D01*
Y485258D01*
X890773D01*
Y485077D01*
X890051D01*
Y485258D01*
X889871D01*
Y487242D01*
X888067D01*
Y485258D01*
X887887D01*
Y485077D01*
X887165D01*
Y485258D01*
X886985D01*
Y487964D01*
X890412D01*
Y487783D01*
D02*
G37*
G36*
X886624Y485077D02*
X885722D01*
Y486160D01*
Y486340D01*
Y487964D01*
X886624D01*
Y485077D01*
D02*
G37*
G36*
X885361Y487242D02*
X883918D01*
Y486160D01*
Y485979D01*
Y485258D01*
X883737D01*
Y485077D01*
X883016D01*
Y485258D01*
X882835D01*
Y487423D01*
X883016D01*
Y487603D01*
X883196D01*
Y487783D01*
X883376D01*
Y487964D01*
X885361D01*
Y487242D01*
D02*
G37*
G36*
X882113Y487783D02*
X882294D01*
Y486521D01*
X882113D01*
Y486340D01*
X879768D01*
Y485979D01*
X882294D01*
Y485077D01*
X879588D01*
Y485258D01*
X879046D01*
Y485438D01*
X878866D01*
Y485619D01*
X878686D01*
Y487603D01*
X878866D01*
Y487783D01*
X879227D01*
Y487964D01*
X882113D01*
Y487783D01*
D02*
G37*
G36*
X877964D02*
X878144D01*
Y486521D01*
X877964D01*
Y486340D01*
X875438D01*
Y485979D01*
X878144D01*
Y485077D01*
X875258D01*
Y485258D01*
X874897D01*
Y485438D01*
X874716D01*
Y485619D01*
X874536D01*
Y487603D01*
X874716D01*
Y487783D01*
X874897D01*
Y487964D01*
X877964D01*
Y487783D01*
D02*
G37*
G36*
X873634D02*
X873814D01*
Y487603D01*
X873995D01*
Y487242D01*
X874175D01*
Y485258D01*
X873995D01*
Y485077D01*
X873273D01*
Y485258D01*
X873093D01*
Y486340D01*
Y486521D01*
Y487242D01*
X871289D01*
Y487062D01*
X871108D01*
Y485077D01*
X870206D01*
Y487964D01*
X873634D01*
Y487783D01*
D02*
G37*
G36*
X869665Y485077D02*
X868763D01*
Y485258D01*
Y485438D01*
Y487964D01*
X869665D01*
Y485077D01*
D02*
G37*
G36*
X863350Y487783D02*
X863711D01*
Y487603D01*
X863892D01*
Y485077D01*
X862990D01*
Y487062D01*
X862809D01*
Y487242D01*
X861005D01*
Y485077D01*
X860103D01*
Y487964D01*
X863350D01*
Y487783D01*
D02*
G37*
G36*
X859562Y487964D02*
X855052D01*
Y487423D01*
X859562D01*
Y486521D01*
X855052D01*
Y485979D01*
X859562D01*
Y485077D01*
X855052D01*
Y485258D01*
X854510D01*
Y485438D01*
X854330D01*
Y485619D01*
X854150D01*
Y488505D01*
X854330D01*
Y488686D01*
X854510D01*
Y488866D01*
X859562D01*
Y487964D01*
D02*
G37*
G36*
X850722Y487783D02*
X850902D01*
Y487603D01*
X851083D01*
Y487242D01*
X851263D01*
Y485258D01*
X851083D01*
Y485077D01*
X850361D01*
Y485258D01*
X850180D01*
Y487242D01*
X848376D01*
Y487062D01*
X848196D01*
Y485619D01*
Y485438D01*
X848376D01*
Y485258D01*
X848196D01*
Y485077D01*
X847294D01*
Y487964D01*
X850722D01*
Y487783D01*
D02*
G37*
G36*
X846392D02*
X846572D01*
Y487603D01*
X846753D01*
Y487242D01*
X846933D01*
Y485799D01*
X846753D01*
Y485438D01*
X846572D01*
Y485258D01*
X846031D01*
Y485077D01*
X843866D01*
Y485258D01*
X843325D01*
Y485438D01*
X843144D01*
Y485619D01*
X842964D01*
Y487603D01*
X843144D01*
Y487783D01*
X843505D01*
Y487964D01*
X846392D01*
Y487783D01*
D02*
G37*
G36*
X842423Y485077D02*
X841521D01*
Y487964D01*
X842423D01*
Y485077D01*
D02*
G37*
G36*
X840619Y487964D02*
X841160D01*
Y487242D01*
X840619D01*
Y485077D01*
X839897D01*
Y485258D01*
X839717D01*
Y487242D01*
X839175D01*
Y487783D01*
Y487964D01*
X839717D01*
Y488866D01*
X840619D01*
Y487964D01*
D02*
G37*
G36*
X838634Y487783D02*
X838814D01*
Y487603D01*
X838995D01*
Y485619D01*
X838814D01*
Y485438D01*
X838634D01*
Y485258D01*
X838273D01*
Y485077D01*
X835928D01*
Y485258D01*
X835567D01*
Y485438D01*
X835387D01*
Y486701D01*
X835747D01*
Y486881D01*
X838093D01*
Y487062D01*
X837912D01*
Y487242D01*
X835387D01*
Y487964D01*
X838634D01*
Y487783D01*
D02*
G37*
G36*
X834845D02*
Y487242D01*
X832500D01*
Y485979D01*
X834845D01*
Y485799D01*
X835026D01*
Y485619D01*
X834845D01*
Y485438D01*
X835026D01*
Y485258D01*
X834845D01*
Y485077D01*
X832320D01*
Y485258D01*
X831778D01*
Y485438D01*
X831598D01*
Y485799D01*
X831417D01*
Y487242D01*
X831598D01*
Y487603D01*
X831778D01*
Y487783D01*
X831959D01*
Y487964D01*
X834845D01*
Y487783D01*
D02*
G37*
G36*
X831057Y485258D02*
X830876D01*
Y485077D01*
X830155D01*
Y485258D01*
X829974D01*
Y485619D01*
Y485799D01*
Y487964D01*
X831057D01*
Y485258D01*
D02*
G37*
G36*
X829072Y487783D02*
X829253D01*
Y487603D01*
X829433D01*
Y487423D01*
X829613D01*
Y485258D01*
X829433D01*
Y485077D01*
X828711D01*
Y485258D01*
X828531D01*
Y487242D01*
X826727D01*
Y486340D01*
Y486160D01*
Y485258D01*
X826546D01*
Y485077D01*
X825825D01*
Y485258D01*
X825644D01*
Y487964D01*
X829072D01*
Y487783D01*
D02*
G37*
G36*
X820412D02*
X820593D01*
Y487603D01*
X820773D01*
Y487423D01*
X820954D01*
Y485258D01*
X820773D01*
Y485077D01*
X820051D01*
Y485258D01*
X819871D01*
Y486881D01*
Y487062D01*
Y487242D01*
X818969D01*
Y487062D01*
X818789D01*
Y485438D01*
X818969D01*
Y485258D01*
X818789D01*
Y485077D01*
X817887D01*
Y487242D01*
X816804D01*
Y485258D01*
X816624D01*
Y485077D01*
X815902D01*
Y485258D01*
X815722D01*
Y487964D01*
X820412D01*
Y487783D01*
D02*
G37*
G36*
X814820D02*
X815000D01*
Y487603D01*
X815180D01*
Y487242D01*
X815361D01*
Y485258D01*
X815180D01*
Y485077D01*
X814459D01*
Y485258D01*
X814278D01*
Y487242D01*
X813196D01*
Y487062D01*
Y485077D01*
X812294D01*
Y485258D01*
X812113D01*
Y485438D01*
X812294D01*
Y487062D01*
X812113D01*
Y487242D01*
X811211D01*
Y485258D01*
X811031D01*
Y485077D01*
X810309D01*
Y485258D01*
X810129D01*
Y487964D01*
X814820D01*
Y487783D01*
D02*
G37*
G36*
X809227D02*
X809407D01*
Y487603D01*
X809588D01*
Y487423D01*
X809768D01*
Y485799D01*
X809588D01*
Y485438D01*
X809407D01*
Y485258D01*
X808866D01*
Y485077D01*
X806701D01*
Y485258D01*
X806160D01*
Y485438D01*
X805979D01*
Y485619D01*
X805799D01*
Y487423D01*
X805979D01*
Y487783D01*
X806340D01*
Y487964D01*
X809227D01*
Y487783D01*
D02*
G37*
G36*
X805438Y487242D02*
X803093D01*
Y487062D01*
X802912D01*
Y485979D01*
X805438D01*
Y485258D01*
X805258D01*
Y485077D01*
X802912D01*
Y485258D01*
X802371D01*
Y485438D01*
X802191D01*
Y485619D01*
X802010D01*
Y487603D01*
X802191D01*
Y487783D01*
X802552D01*
Y487964D01*
X805438D01*
Y487242D01*
D02*
G37*
G36*
X801289Y487783D02*
X801469D01*
Y486521D01*
X801289D01*
Y486340D01*
X798943D01*
Y485979D01*
X801469D01*
Y485077D01*
X798763D01*
Y485258D01*
X798222D01*
Y485438D01*
X798041D01*
Y485619D01*
X797861D01*
Y487603D01*
X798041D01*
Y487783D01*
X798402D01*
Y487964D01*
X801289D01*
Y487783D01*
D02*
G37*
G36*
X797320Y485077D02*
X796418D01*
Y486521D01*
Y486701D01*
Y489046D01*
X797320D01*
Y485077D01*
D02*
G37*
G36*
X795515Y487783D02*
X795876D01*
Y486521D01*
X795696D01*
Y486340D01*
X793170D01*
Y485979D01*
X795876D01*
Y485258D01*
X795696D01*
Y485077D01*
X792990D01*
Y485258D01*
X792629D01*
Y485438D01*
X792449D01*
Y485619D01*
X792268D01*
Y487603D01*
X792449D01*
Y487783D01*
X792629D01*
Y487964D01*
X795515D01*
Y487783D01*
D02*
G37*
G36*
X792268Y488144D02*
X792088D01*
Y487964D01*
X789923D01*
Y487062D01*
Y486881D01*
Y485077D01*
X789021D01*
Y487964D01*
X786675D01*
Y488866D01*
X792268D01*
Y488144D01*
D02*
G37*
G36*
X783789Y488866D02*
X783969D01*
Y488686D01*
X783789D01*
Y485619D01*
X783608D01*
Y485438D01*
X783428D01*
Y485258D01*
X782887D01*
Y485077D01*
X780902D01*
Y485258D01*
X780361D01*
Y485438D01*
X780180D01*
Y485619D01*
X780000D01*
Y487603D01*
X780180D01*
Y487783D01*
X780541D01*
Y487964D01*
X782887D01*
Y488866D01*
X783067D01*
Y489046D01*
X783789D01*
Y488866D01*
D02*
G37*
G36*
X778918Y487783D02*
X779278D01*
Y487423D01*
X779459D01*
Y485258D01*
X779278D01*
Y485077D01*
X778557D01*
Y485258D01*
X778376D01*
Y487242D01*
X776572D01*
Y485258D01*
X776392D01*
Y485077D01*
X775670D01*
Y485258D01*
X775490D01*
Y487964D01*
X778918D01*
Y487783D01*
D02*
G37*
G36*
X774588D02*
X774949D01*
Y487603D01*
X775129D01*
Y485619D01*
X774949D01*
Y485438D01*
X774768D01*
Y485258D01*
X774227D01*
Y485077D01*
X772062D01*
Y485258D01*
X771701D01*
Y485438D01*
X771521D01*
Y486340D01*
Y486521D01*
Y486701D01*
X771881D01*
Y486881D01*
X774227D01*
Y487062D01*
X774046D01*
Y487242D01*
X771521D01*
Y487964D01*
X774588D01*
Y487783D01*
D02*
G37*
G36*
X768634Y487242D02*
X766289D01*
Y485979D01*
X768634D01*
Y485077D01*
X766108D01*
Y485258D01*
X765567D01*
Y485438D01*
X765387D01*
Y485619D01*
X765206D01*
Y487423D01*
X765387D01*
Y487603D01*
X765567D01*
Y487783D01*
X765747D01*
Y487964D01*
X768634D01*
Y487242D01*
D02*
G37*
G36*
X764665Y487783D02*
X764845D01*
Y487603D01*
X764665D01*
Y485438D01*
X764845D01*
Y485258D01*
X764665D01*
Y485077D01*
X763763D01*
Y487964D01*
X764665D01*
Y487783D01*
D02*
G37*
G36*
X762680D02*
X763041D01*
Y487603D01*
X763222D01*
Y485077D01*
X762320D01*
Y487062D01*
X762139D01*
Y487242D01*
X760335D01*
Y485258D01*
X760155D01*
Y485077D01*
X759433D01*
Y485258D01*
X759253D01*
Y487964D01*
X762680D01*
Y487783D01*
D02*
G37*
G36*
X758351D02*
X758711D01*
Y487603D01*
X758892D01*
Y485619D01*
X758711D01*
Y485438D01*
X758531D01*
Y485258D01*
X757990D01*
Y485077D01*
X755825D01*
Y485258D01*
X755283D01*
Y485438D01*
X755103D01*
Y485799D01*
X754923D01*
Y486881D01*
Y487062D01*
Y487242D01*
X755103D01*
Y487603D01*
X755283D01*
Y487783D01*
X755464D01*
Y487964D01*
X758351D01*
Y487783D01*
D02*
G37*
G36*
X754742Y487242D02*
X753299D01*
Y487062D01*
X753119D01*
Y486881D01*
X753299D01*
Y485619D01*
Y485438D01*
Y485258D01*
X753119D01*
Y485077D01*
X752397D01*
Y485258D01*
X752216D01*
Y487423D01*
X752397D01*
Y487783D01*
X752758D01*
Y487964D01*
X754742D01*
Y487242D01*
D02*
G37*
G36*
X751314Y488686D02*
X751495D01*
Y487964D01*
X751856D01*
Y487783D01*
X752036D01*
Y487242D01*
X751495D01*
Y485258D01*
X751314D01*
Y485077D01*
X750593D01*
Y485258D01*
X750412D01*
Y487242D01*
X750052D01*
Y487964D01*
X750412D01*
Y488686D01*
X750593D01*
Y488866D01*
X751314D01*
Y488686D01*
D02*
G37*
G36*
X749691Y487242D02*
X747345D01*
Y485979D01*
X749691D01*
Y485799D01*
X749871D01*
Y485619D01*
X749691D01*
Y485438D01*
X749871D01*
Y485258D01*
X749691D01*
Y485077D01*
X747165D01*
Y485258D01*
X746624D01*
Y485438D01*
X746443D01*
Y485799D01*
X746263D01*
Y487242D01*
X746443D01*
Y487423D01*
Y487603D01*
X746624D01*
Y487783D01*
X746804D01*
Y487964D01*
X749691D01*
Y487242D01*
D02*
G37*
G36*
X745541Y487783D02*
X745902D01*
Y486521D01*
X745722D01*
Y486340D01*
X743196D01*
Y485979D01*
X745902D01*
Y485258D01*
X745722D01*
Y485077D01*
X743015D01*
Y485258D01*
X742655D01*
Y485438D01*
X742294D01*
Y487062D01*
Y487242D01*
Y487603D01*
X742474D01*
Y487783D01*
X742655D01*
Y487964D01*
X745541D01*
Y487783D01*
D02*
G37*
G36*
X741572Y488866D02*
X741753D01*
Y486521D01*
Y486340D01*
Y485077D01*
X740850D01*
Y485258D01*
X740670D01*
Y485438D01*
X740850D01*
Y488686D01*
X740670D01*
Y488866D01*
X740850D01*
Y489046D01*
X741572D01*
Y488866D01*
D02*
G37*
G36*
X740309Y487964D02*
X735799D01*
Y487423D01*
X740309D01*
Y486521D01*
X735799D01*
Y485979D01*
X740309D01*
Y485077D01*
X735619D01*
Y485258D01*
X735077D01*
Y485438D01*
X734897D01*
Y485799D01*
X734717D01*
Y488144D01*
X734897D01*
Y488505D01*
X735077D01*
Y488686D01*
X735258D01*
Y488866D01*
X740309D01*
Y487964D01*
D02*
G37*
G36*
X894923Y487783D02*
X895103D01*
Y487603D01*
X895284D01*
Y487423D01*
X895464D01*
Y485258D01*
Y485077D01*
X895284D01*
Y484717D01*
X895103D01*
Y484536D01*
X894923D01*
Y484356D01*
X894382D01*
Y484175D01*
X891675D01*
Y485077D01*
X894382D01*
Y485619D01*
X891675D01*
Y485799D01*
X891495D01*
Y487603D01*
X891675D01*
Y487783D01*
X891856D01*
Y487964D01*
X894923D01*
Y487783D01*
D02*
G37*
G36*
X867861D02*
X868041D01*
Y487603D01*
X868222D01*
Y484717D01*
X868041D01*
Y484536D01*
X867861D01*
Y484356D01*
X867320D01*
Y484175D01*
X864613D01*
Y484356D01*
X864433D01*
Y484536D01*
X864613D01*
Y484717D01*
X864433D01*
Y484897D01*
X864613D01*
Y485077D01*
X867320D01*
Y485619D01*
X864613D01*
Y485799D01*
X864433D01*
Y487603D01*
X864613D01*
Y487783D01*
X864794D01*
Y487964D01*
X867861D01*
Y487783D01*
D02*
G37*
%LPC*%
G36*
X764106Y508177D02*
X763570D01*
Y507642D01*
X764106D01*
Y508177D01*
D02*
G37*
G36*
X881392Y487242D02*
X879768D01*
Y487062D01*
X879588D01*
Y486881D01*
X881392D01*
Y487242D01*
D02*
G37*
G36*
X877242D02*
X875619D01*
Y487062D01*
X875438D01*
Y486881D01*
X877242D01*
Y487242D01*
D02*
G37*
G36*
X845850D02*
X844046D01*
Y487062D01*
X843866D01*
Y485979D01*
X845850D01*
Y487242D01*
D02*
G37*
G36*
X838093Y486340D02*
X836469D01*
Y486160D01*
X836289D01*
Y485979D01*
X838093D01*
Y486340D01*
D02*
G37*
G36*
X808686Y487242D02*
X806882D01*
Y487062D01*
X806701D01*
Y486881D01*
X806882D01*
Y485979D01*
X808686D01*
Y487062D01*
Y487242D01*
D02*
G37*
G36*
X800567D02*
X798943D01*
Y487062D01*
X798763D01*
Y486881D01*
X800567D01*
Y487242D01*
D02*
G37*
G36*
X794794D02*
X793351D01*
Y487062D01*
X793170D01*
Y486881D01*
X794974D01*
Y487062D01*
X794794D01*
Y487242D01*
D02*
G37*
G36*
X782887D02*
X781082D01*
Y487062D01*
X780902D01*
Y485979D01*
X782887D01*
Y486160D01*
Y486340D01*
Y487242D01*
D02*
G37*
G36*
X774046Y486340D02*
X772423D01*
Y485979D01*
X774046D01*
Y486340D01*
D02*
G37*
G36*
X757809Y487242D02*
X756005D01*
Y485979D01*
X757990D01*
Y487062D01*
X757809D01*
Y487242D01*
D02*
G37*
G36*
X744820D02*
X743376D01*
Y487062D01*
X743196D01*
Y486881D01*
X745000D01*
Y487062D01*
X744820D01*
Y487242D01*
D02*
G37*
G36*
X894382D02*
X892577D01*
Y487062D01*
X892397D01*
Y486340D01*
X894382D01*
Y487242D01*
D02*
G37*
G36*
X867320D02*
X865516D01*
Y487062D01*
X865335D01*
Y486340D01*
X867320D01*
Y487242D01*
D02*
G37*
%LPD*%
D10*
X911000Y430000D02*
G03*
X911000Y430000I-26000J0D01*
G01*
X296000Y355000D02*
G03*
X296000Y355000I-26000J0D01*
G01*
X851000Y430000D02*
G03*
X851000Y430000I-26000J0D01*
G01*
X796000D02*
G03*
X796000Y430000I-26000J0D01*
G01*
X736000D02*
G03*
X736000Y430000I-26000J0D01*
G01*
X676000D02*
G03*
X676000Y430000I-26000J0D01*
G01*
X616000D02*
G03*
X616000Y430000I-26000J0D01*
G01*
X556000D02*
G03*
X556000Y430000I-26000J0D01*
G01*
X771000Y155000D02*
G03*
X771000Y155000I-26000J0D01*
G01*
X911000Y235000D02*
G03*
X911000Y235000I-26000J0D01*
G01*
X556000Y295000D02*
G03*
X556000Y295000I-26000J0D01*
G01*
X396000Y495000D02*
G03*
X396000Y495000I-26000J0D01*
G01*
X906000Y365000D02*
G03*
X906000Y365000I-26000J0D01*
G01*
X636000Y495000D02*
G03*
X636000Y495000I-26000J0D01*
G01*
X696000D02*
G03*
X696000Y495000I-26000J0D01*
G01*
X456000D02*
G03*
X456000Y495000I-26000J0D01*
G01*
X71000D02*
G03*
X71000Y495000I-26000J0D01*
G01*
X126000D02*
G03*
X126000Y495000I-26000J0D01*
G01*
X281000D02*
G03*
X281000Y495000I-26000J0D01*
G01*
X336000D02*
G03*
X336000Y495000I-26000J0D01*
G01*
X836000Y90000D02*
G03*
X836000Y90000I-26000J0D01*
G01*
X891000D02*
G03*
X891000Y90000I-26000J0D01*
G01*
X491000Y105000D02*
G03*
X491000Y105000I-26000J0D01*
G01*
X191000Y285000D02*
G03*
X191000Y285000I-26000J0D01*
G01*
Y230000D02*
G03*
X191000Y230000I-26000J0D01*
G01*
Y175000D02*
G03*
X191000Y175000I-26000J0D01*
G01*
X846000Y235000D02*
G03*
X846000Y235000I-26000J0D01*
G01*
X556000D02*
G03*
X556000Y235000I-26000J0D01*
G01*
X61000Y275000D02*
G03*
X61000Y275000I-26000J0D01*
G01*
X131000D02*
G03*
X131000Y275000I-26000J0D01*
G01*
X556000Y360000D02*
G03*
X556000Y360000I-26000J0D01*
G01*
X846000Y305000D02*
G03*
X846000Y305000I-26000J0D01*
G01*
X296000Y410000D02*
G03*
X296000Y410000I-26000J0D01*
G01*
X846000Y365000D02*
G03*
X846000Y365000I-26000J0D01*
G01*
X906000Y305000D02*
G03*
X906000Y305000I-26000J0D01*
G01*
X131000Y185000D02*
G03*
X131000Y185000I-26000J0D01*
G01*
X8032Y162376D02*
X11312D01*
X11968Y163032D01*
Y164344D01*
X11312Y165000D01*
X8032D01*
X11968Y166312D02*
Y167624D01*
Y166968D01*
X8032D01*
X8688Y166312D01*
X169400Y517700D02*
Y521636D01*
X171368D01*
X172024Y520980D01*
Y519668D01*
X171368Y519012D01*
X169400D01*
X170712D02*
X172024Y517700D01*
X173336Y521636D02*
X175960D01*
Y520980D01*
X173336Y518356D01*
Y517700D01*
X177271Y520980D02*
X177927Y521636D01*
X179239D01*
X179895Y520980D01*
Y518356D01*
X179239Y517700D01*
X177927D01*
X177271Y518356D01*
Y520980D01*
X184400Y517700D02*
Y521636D01*
X186368D01*
X187024Y520980D01*
Y519668D01*
X186368Y519012D01*
X184400D01*
X185712D02*
X187024Y517700D01*
X190960Y521636D02*
X189648Y520980D01*
X188336Y519668D01*
Y518356D01*
X188992Y517700D01*
X190304D01*
X190960Y518356D01*
Y519012D01*
X190304Y519668D01*
X188336D01*
X192271Y518356D02*
X192927Y517700D01*
X194239D01*
X194895Y518356D01*
Y520980D01*
X194239Y521636D01*
X192927D01*
X192271Y520980D01*
Y520324D01*
X192927Y519668D01*
X194895D01*
X199400Y517700D02*
Y521636D01*
X201368D01*
X202024Y520980D01*
Y519668D01*
X201368Y519012D01*
X199400D01*
X200712D02*
X202024Y517700D01*
X205960Y521636D02*
X204648Y520980D01*
X203336Y519668D01*
Y518356D01*
X203992Y517700D01*
X205304D01*
X205960Y518356D01*
Y519012D01*
X205304Y519668D01*
X203336D01*
X207272Y520980D02*
X207927Y521636D01*
X209239D01*
X209895Y520980D01*
Y520324D01*
X209239Y519668D01*
X209895Y519012D01*
Y518356D01*
X209239Y517700D01*
X207927D01*
X207272Y518356D01*
Y519012D01*
X207927Y519668D01*
X207272Y520324D01*
Y520980D01*
X207927Y519668D02*
X209239D01*
X214400Y517700D02*
Y521636D01*
X216368D01*
X217024Y520980D01*
Y519668D01*
X216368Y519012D01*
X214400D01*
X215712D02*
X217024Y517700D01*
X220960Y521636D02*
X219648Y520980D01*
X218336Y519668D01*
Y518356D01*
X218992Y517700D01*
X220304D01*
X220960Y518356D01*
Y519012D01*
X220304Y519668D01*
X218336D01*
X222271Y521636D02*
X224895D01*
Y520980D01*
X222271Y518356D01*
Y517700D01*
X514400Y522700D02*
Y526636D01*
X516368D01*
X517024Y525980D01*
Y524668D01*
X516368Y524012D01*
X514400D01*
X515712D02*
X517024Y522700D01*
X520960Y526636D02*
X519648Y525980D01*
X518336Y524668D01*
Y523356D01*
X518992Y522700D01*
X520304D01*
X520960Y523356D01*
Y524012D01*
X520304Y524668D01*
X518336D01*
X524895Y526636D02*
X523583Y525980D01*
X522271Y524668D01*
Y523356D01*
X522927Y522700D01*
X524239D01*
X524895Y523356D01*
Y524012D01*
X524239Y524668D01*
X522271D01*
X529400Y522700D02*
Y526636D01*
X531368D01*
X532024Y525980D01*
Y524668D01*
X531368Y524012D01*
X529400D01*
X530712D02*
X532024Y522700D01*
X535960Y526636D02*
X534648Y525980D01*
X533336Y524668D01*
Y523356D01*
X533992Y522700D01*
X535304D01*
X535960Y523356D01*
Y524012D01*
X535304Y524668D01*
X533336D01*
X539895Y526636D02*
X537271D01*
Y524668D01*
X538583Y525324D01*
X539239D01*
X539895Y524668D01*
Y523356D01*
X539239Y522700D01*
X537927D01*
X537271Y523356D01*
X544400Y522700D02*
Y526636D01*
X546368D01*
X547024Y525980D01*
Y524668D01*
X546368Y524012D01*
X544400D01*
X545712D02*
X547024Y522700D01*
X550960Y526636D02*
X549648Y525980D01*
X548336Y524668D01*
Y523356D01*
X548992Y522700D01*
X550304D01*
X550960Y523356D01*
Y524012D01*
X550304Y524668D01*
X548336D01*
X554239Y522700D02*
Y526636D01*
X552272Y524668D01*
X554895D01*
X559400Y522700D02*
Y526636D01*
X561368D01*
X562024Y525980D01*
Y524668D01*
X561368Y524012D01*
X559400D01*
X560712D02*
X562024Y522700D01*
X565960Y526636D02*
X564648Y525980D01*
X563336Y524668D01*
Y523356D01*
X563992Y522700D01*
X565304D01*
X565960Y523356D01*
Y524012D01*
X565304Y524668D01*
X563336D01*
X567272Y525980D02*
X567927Y526636D01*
X569239D01*
X569895Y525980D01*
Y525324D01*
X569239Y524668D01*
X568583D01*
X569239D01*
X569895Y524012D01*
Y523356D01*
X569239Y522700D01*
X567927D01*
X567272Y523356D01*
X26720Y526968D02*
Y523032D01*
X28688D01*
X29344Y523688D01*
Y524344D01*
X28688Y525000D01*
X26720D01*
X28688D01*
X29344Y525656D01*
Y526312D01*
X28688Y526968D01*
X26720D01*
X33280Y523032D02*
X30656D01*
X33280Y525656D01*
Y526312D01*
X32624Y526968D01*
X31312D01*
X30656Y526312D01*
X72376Y521968D02*
Y518032D01*
X74344D01*
X75000Y518688D01*
Y519344D01*
X74344Y520000D01*
X72376D01*
X74344D01*
X75000Y520656D01*
Y521312D01*
X74344Y521968D01*
X72376D01*
X76312Y518032D02*
X77624D01*
X76968D01*
Y521968D01*
X76312Y521312D01*
X821700Y171536D02*
Y168256D01*
X822356Y167600D01*
X823668D01*
X824324Y168256D01*
Y171536D01*
X825636Y167600D02*
X826948D01*
X826292D01*
Y171536D01*
X825636Y170880D01*
X828916D02*
X829572Y171536D01*
X830883D01*
X831539Y170880D01*
Y170224D01*
X830883Y169568D01*
X830227D01*
X830883D01*
X831539Y168912D01*
Y168256D01*
X830883Y167600D01*
X829572D01*
X828916Y168256D01*
X789752Y188032D02*
Y191968D01*
X791720D01*
X792376Y191312D01*
Y190000D01*
X791720Y189344D01*
X789752D01*
X791064D02*
X792376Y188032D01*
X796312Y191968D02*
X795000Y191312D01*
X793688Y190000D01*
Y188688D01*
X794344Y188032D01*
X795656D01*
X796312Y188688D01*
Y189344D01*
X795656Y190000D01*
X793688D01*
X800248Y188032D02*
X797624D01*
X800248Y190656D01*
Y191312D01*
X799592Y191968D01*
X798280D01*
X797624Y191312D01*
X790408Y208032D02*
Y211968D01*
X792376D01*
X793032Y211312D01*
Y210000D01*
X792376Y209344D01*
X790408D01*
X791720D02*
X793032Y208032D01*
X796968Y211968D02*
X795656Y211312D01*
X794344Y210000D01*
Y208688D01*
X795000Y208032D01*
X796312D01*
X796968Y208688D01*
Y209344D01*
X796312Y210000D01*
X794344D01*
X798280Y208032D02*
X799592D01*
X798936D01*
Y211968D01*
X798280Y211312D01*
X859752Y208032D02*
Y211968D01*
X861720D01*
X862376Y211312D01*
Y210000D01*
X861720Y209344D01*
X859752D01*
X861064D02*
X862376Y208032D01*
X866312Y211968D02*
X865000Y211312D01*
X863688Y210000D01*
Y208688D01*
X864344Y208032D01*
X865656D01*
X866312Y208688D01*
Y209344D01*
X865656Y210000D01*
X863688D01*
X867624Y211312D02*
X868280Y211968D01*
X869592D01*
X870248Y211312D01*
Y208688D01*
X869592Y208032D01*
X868280D01*
X867624Y208688D01*
Y211312D01*
X849752Y178032D02*
Y181968D01*
X851720D01*
X852376Y181312D01*
Y180000D01*
X851720Y179344D01*
X849752D01*
X851064D02*
X852376Y178032D01*
X856312Y181968D02*
X853688D01*
Y180000D01*
X855000Y180656D01*
X855656D01*
X856312Y180000D01*
Y178688D01*
X855656Y178032D01*
X854344D01*
X853688Y178688D01*
X857624D02*
X858280Y178032D01*
X859592D01*
X860248Y178688D01*
Y181312D01*
X859592Y181968D01*
X858280D01*
X857624Y181312D01*
Y180656D01*
X858280Y180000D01*
X860248D01*
X782048Y116968D02*
X783360D01*
X782704D01*
Y113032D01*
X782048D01*
X783360D01*
X787296Y116968D02*
X785984D01*
X785328Y116312D01*
Y113688D01*
X785984Y113032D01*
X787296D01*
X787952Y113688D01*
Y116312D01*
X787296Y116968D01*
X793800Y268336D02*
X795112D01*
X794456D01*
Y264400D01*
X793800D01*
X795112D01*
X797080Y268336D02*
X798392D01*
X797736D01*
Y264400D01*
X797080D01*
X798392D01*
X891720Y111968D02*
Y108032D01*
X893688D01*
X894344Y108688D01*
Y111312D01*
X893688Y111968D01*
X891720D01*
X897624D02*
X896312D01*
X895656Y111312D01*
Y108688D01*
X896312Y108032D01*
X897624D01*
X898280Y108688D01*
Y111312D01*
X897624Y111968D01*
X858800Y268336D02*
Y264400D01*
X860768D01*
X861424Y265056D01*
Y267680D01*
X860768Y268336D01*
X858800D01*
X862736D02*
X864048D01*
X863392D01*
Y264400D01*
X862736D01*
X864048D01*
X794344Y166312D02*
X793688Y166968D01*
X792376D01*
X791720Y166312D01*
Y163688D01*
X792376Y163032D01*
X793688D01*
X794344Y163688D01*
X795656D02*
X796312Y163032D01*
X797624D01*
X798280Y163688D01*
Y166312D01*
X797624Y166968D01*
X796312D01*
X795656Y166312D01*
Y165656D01*
X796312Y165000D01*
X798280D01*
X904344Y161312D02*
X903688Y161968D01*
X902376D01*
X901720Y161312D01*
Y158688D01*
X902376Y158032D01*
X903688D01*
X904344Y158688D01*
X905656Y161312D02*
X906312Y161968D01*
X907624D01*
X908280Y161312D01*
Y160656D01*
X907624Y160000D01*
X908280Y159344D01*
Y158688D01*
X907624Y158032D01*
X906312D01*
X905656Y158688D01*
Y159344D01*
X906312Y160000D01*
X905656Y160656D01*
Y161312D01*
X906312Y160000D02*
X907624D01*
X874344Y131312D02*
X873688Y131968D01*
X872376D01*
X871720Y131312D01*
Y128688D01*
X872376Y128032D01*
X873688D01*
X874344Y128688D01*
X878280Y131968D02*
X876968Y131312D01*
X875656Y130000D01*
Y128688D01*
X876312Y128032D01*
X877624D01*
X878280Y128688D01*
Y129344D01*
X877624Y130000D01*
X875656D01*
X498100Y146536D02*
Y143912D01*
X499412Y142600D01*
X500724Y143912D01*
Y146536D01*
X502036Y142600D02*
Y146536D01*
X504004D01*
X504660Y145880D01*
Y144568D01*
X504004Y143912D01*
X502036D01*
X503348D02*
X504660Y142600D01*
X505971Y145880D02*
X506627Y146536D01*
X507939D01*
X508595Y145880D01*
Y145224D01*
X507939Y144568D01*
X507283D01*
X507939D01*
X508595Y143912D01*
Y143256D01*
X507939Y142600D01*
X506627D01*
X505971Y143256D01*
X670600Y197136D02*
Y193856D01*
X671256Y193200D01*
X672568D01*
X673224Y193856D01*
Y197136D01*
X677160D02*
X674536D01*
Y195168D01*
X675848Y195824D01*
X676504D01*
X677160Y195168D01*
Y193856D01*
X676504Y193200D01*
X675192D01*
X674536Y193856D01*
X625600Y197136D02*
Y193856D01*
X626256Y193200D01*
X627568D01*
X628224Y193856D01*
Y197136D01*
X631504Y193200D02*
Y197136D01*
X629536Y195168D01*
X632160D01*
X505000Y206536D02*
Y203256D01*
X505656Y202600D01*
X506968D01*
X507624Y203256D01*
Y206536D01*
X508936Y205880D02*
X509592Y206536D01*
X510904D01*
X511560Y205880D01*
Y205224D01*
X510904Y204568D01*
X510248D01*
X510904D01*
X511560Y203912D01*
Y203256D01*
X510904Y202600D01*
X509592D01*
X508936Y203256D01*
X736968Y99752D02*
X733032D01*
Y101720D01*
X733688Y102376D01*
X735000D01*
X735656Y101720D01*
Y99752D01*
Y101064D02*
X736968Y102376D01*
X733688Y103688D02*
X733032Y104344D01*
Y105656D01*
X733688Y106312D01*
X734344D01*
X735000Y105656D01*
Y105000D01*
Y105656D01*
X735656Y106312D01*
X736312D01*
X736968Y105656D01*
Y104344D01*
X736312Y103688D01*
Y107624D02*
X736968Y108280D01*
Y109592D01*
X736312Y110248D01*
X733688D01*
X733032Y109592D01*
Y108280D01*
X733688Y107624D01*
X734344D01*
X735000Y108280D01*
Y110248D01*
X609400Y132700D02*
Y136636D01*
X611368D01*
X612024Y135980D01*
Y134668D01*
X611368Y134012D01*
X609400D01*
X610712D02*
X612024Y132700D01*
X613336Y135980D02*
X613992Y136636D01*
X615304D01*
X615960Y135980D01*
Y135324D01*
X615304Y134668D01*
X614648D01*
X615304D01*
X615960Y134012D01*
Y133356D01*
X615304Y132700D01*
X613992D01*
X613336Y133356D01*
X617272Y135980D02*
X617927Y136636D01*
X619239D01*
X619895Y135980D01*
Y135324D01*
X619239Y134668D01*
X619895Y134012D01*
Y133356D01*
X619239Y132700D01*
X617927D01*
X617272Y133356D01*
Y134012D01*
X617927Y134668D01*
X617272Y135324D01*
Y135980D01*
X617927Y134668D02*
X619239D01*
X639400Y132700D02*
Y136636D01*
X641368D01*
X642024Y135980D01*
Y134668D01*
X641368Y134012D01*
X639400D01*
X640712D02*
X642024Y132700D01*
X643336Y135980D02*
X643992Y136636D01*
X645304D01*
X645960Y135980D01*
Y135324D01*
X645304Y134668D01*
X644648D01*
X645304D01*
X645960Y134012D01*
Y133356D01*
X645304Y132700D01*
X643992D01*
X643336Y133356D01*
X647271Y136636D02*
X649895D01*
Y135980D01*
X647271Y133356D01*
Y132700D01*
X624400D02*
Y136636D01*
X626368D01*
X627024Y135980D01*
Y134668D01*
X626368Y134012D01*
X624400D01*
X625712D02*
X627024Y132700D01*
X628336Y135980D02*
X628992Y136636D01*
X630304D01*
X630960Y135980D01*
Y135324D01*
X630304Y134668D01*
X629648D01*
X630304D01*
X630960Y134012D01*
Y133356D01*
X630304Y132700D01*
X628992D01*
X628336Y133356D01*
X634895Y136636D02*
X633583Y135980D01*
X632271Y134668D01*
Y133356D01*
X632927Y132700D01*
X634239D01*
X634895Y133356D01*
Y134012D01*
X634239Y134668D01*
X632271D01*
X654400Y132700D02*
Y136636D01*
X656368D01*
X657024Y135980D01*
Y134668D01*
X656368Y134012D01*
X654400D01*
X655712D02*
X657024Y132700D01*
X658336Y135980D02*
X658992Y136636D01*
X660304D01*
X660960Y135980D01*
Y135324D01*
X660304Y134668D01*
X659648D01*
X660304D01*
X660960Y134012D01*
Y133356D01*
X660304Y132700D01*
X658992D01*
X658336Y133356D01*
X664895Y136636D02*
X662271D01*
Y134668D01*
X663583Y135324D01*
X664239D01*
X664895Y134668D01*
Y133356D01*
X664239Y132700D01*
X662927D01*
X662271Y133356D01*
X689400Y132700D02*
Y136636D01*
X691368D01*
X692024Y135980D01*
Y134668D01*
X691368Y134012D01*
X689400D01*
X690712D02*
X692024Y132700D01*
X693336Y135980D02*
X693992Y136636D01*
X695304D01*
X695960Y135980D01*
Y135324D01*
X695304Y134668D01*
X694648D01*
X695304D01*
X695960Y134012D01*
Y133356D01*
X695304Y132700D01*
X693992D01*
X693336Y133356D01*
X699239Y132700D02*
Y136636D01*
X697271Y134668D01*
X699895D01*
X704752Y133032D02*
Y136968D01*
X706720D01*
X707376Y136312D01*
Y135000D01*
X706720Y134344D01*
X704752D01*
X706064D02*
X707376Y133032D01*
X708688Y136312D02*
X709344Y136968D01*
X710656D01*
X711312Y136312D01*
Y135656D01*
X710656Y135000D01*
X710000D01*
X710656D01*
X711312Y134344D01*
Y133688D01*
X710656Y133032D01*
X709344D01*
X708688Y133688D01*
X712624Y136312D02*
X713280Y136968D01*
X714592D01*
X715248Y136312D01*
Y135656D01*
X714592Y135000D01*
X713936D01*
X714592D01*
X715248Y134344D01*
Y133688D01*
X714592Y133032D01*
X713280D01*
X712624Y133688D01*
X669400Y132700D02*
Y136636D01*
X671368D01*
X672024Y135980D01*
Y134668D01*
X671368Y134012D01*
X669400D01*
X670712D02*
X672024Y132700D01*
X673336Y135980D02*
X673992Y136636D01*
X675304D01*
X675960Y135980D01*
Y135324D01*
X675304Y134668D01*
X674648D01*
X675304D01*
X675960Y134012D01*
Y133356D01*
X675304Y132700D01*
X673992D01*
X673336Y133356D01*
X679895Y132700D02*
X677272D01*
X679895Y135324D01*
Y135980D01*
X679239Y136636D01*
X677927D01*
X677272Y135980D01*
X589400Y202700D02*
Y206636D01*
X591368D01*
X592024Y205980D01*
Y204668D01*
X591368Y204012D01*
X589400D01*
X590712D02*
X592024Y202700D01*
X593336Y205980D02*
X593992Y206636D01*
X595304D01*
X595960Y205980D01*
Y205324D01*
X595304Y204668D01*
X594648D01*
X595304D01*
X595960Y204012D01*
Y203356D01*
X595304Y202700D01*
X593992D01*
X593336Y203356D01*
X597271Y202700D02*
X598583D01*
X597927D01*
Y206636D01*
X597271Y205980D01*
X604400Y202700D02*
Y206636D01*
X606368D01*
X607024Y205980D01*
Y204668D01*
X606368Y204012D01*
X604400D01*
X605712D02*
X607024Y202700D01*
X608336Y205980D02*
X608992Y206636D01*
X610304D01*
X610960Y205980D01*
Y205324D01*
X610304Y204668D01*
X609648D01*
X610304D01*
X610960Y204012D01*
Y203356D01*
X610304Y202700D01*
X608992D01*
X608336Y203356D01*
X612271Y205980D02*
X612927Y206636D01*
X614239D01*
X614895Y205980D01*
Y203356D01*
X614239Y202700D01*
X612927D01*
X612271Y203356D01*
Y205980D01*
X564400Y202700D02*
Y206636D01*
X566368D01*
X567024Y205980D01*
Y204668D01*
X566368Y204012D01*
X564400D01*
X565712D02*
X567024Y202700D01*
X570960D02*
X568336D01*
X570960Y205324D01*
Y205980D01*
X570304Y206636D01*
X568992D01*
X568336Y205980D01*
X572271Y203356D02*
X572927Y202700D01*
X574239D01*
X574895Y203356D01*
Y205980D01*
X574239Y206636D01*
X572927D01*
X572271Y205980D01*
Y205324D01*
X572927Y204668D01*
X574895D01*
X549400Y202700D02*
Y206636D01*
X551368D01*
X552024Y205980D01*
Y204668D01*
X551368Y204012D01*
X549400D01*
X550712D02*
X552024Y202700D01*
X555960D02*
X553336D01*
X555960Y205324D01*
Y205980D01*
X555304Y206636D01*
X553992D01*
X553336Y205980D01*
X557271D02*
X557927Y206636D01*
X559239D01*
X559895Y205980D01*
Y205324D01*
X559239Y204668D01*
X559895Y204012D01*
Y203356D01*
X559239Y202700D01*
X557927D01*
X557271Y203356D01*
Y204012D01*
X557927Y204668D01*
X557271Y205324D01*
Y205980D01*
X557927Y204668D02*
X559239D01*
X684752Y393032D02*
Y396968D01*
X686720D01*
X687376Y396312D01*
Y395000D01*
X686720Y394344D01*
X684752D01*
X686064D02*
X687376Y393032D01*
X691312D02*
X688688D01*
X691312Y395656D01*
Y396312D01*
X690656Y396968D01*
X689344D01*
X688688Y396312D01*
X692624Y396968D02*
X695248D01*
Y396312D01*
X692624Y393688D01*
Y393032D01*
X639400Y332700D02*
Y336636D01*
X641368D01*
X642024Y335980D01*
Y334668D01*
X641368Y334012D01*
X639400D01*
X640712D02*
X642024Y332700D01*
X645960D02*
X643336D01*
X645960Y335324D01*
Y335980D01*
X645304Y336636D01*
X643992D01*
X643336Y335980D01*
X649895Y336636D02*
X648583Y335980D01*
X647271Y334668D01*
Y333356D01*
X647927Y332700D01*
X649239D01*
X649895Y333356D01*
Y334012D01*
X649239Y334668D01*
X647271D01*
X684752Y368032D02*
Y371968D01*
X686720D01*
X687376Y371312D01*
Y370000D01*
X686720Y369344D01*
X684752D01*
X686064D02*
X687376Y368032D01*
X691312D02*
X688688D01*
X691312Y370656D01*
Y371312D01*
X690656Y371968D01*
X689344D01*
X688688Y371312D01*
X695248Y371968D02*
X692624D01*
Y370000D01*
X693936Y370656D01*
X694592D01*
X695248Y370000D01*
Y368688D01*
X694592Y368032D01*
X693280D01*
X692624Y368688D01*
X684752Y343032D02*
Y346968D01*
X686720D01*
X687376Y346312D01*
Y345000D01*
X686720Y344344D01*
X684752D01*
X686064D02*
X687376Y343032D01*
X691312D02*
X688688D01*
X691312Y345656D01*
Y346312D01*
X690656Y346968D01*
X689344D01*
X688688Y346312D01*
X694592Y343032D02*
Y346968D01*
X692624Y345000D01*
X695248D01*
X634752Y378032D02*
Y381968D01*
X636720D01*
X637376Y381312D01*
Y380000D01*
X636720Y379344D01*
X634752D01*
X636064D02*
X637376Y378032D01*
X641312D02*
X638688D01*
X641312Y380656D01*
Y381312D01*
X640656Y381968D01*
X639344D01*
X638688Y381312D01*
X642624D02*
X643280Y381968D01*
X644592D01*
X645248Y381312D01*
Y380656D01*
X644592Y380000D01*
X643936D01*
X644592D01*
X645248Y379344D01*
Y378688D01*
X644592Y378032D01*
X643280D01*
X642624Y378688D01*
X619752Y343032D02*
Y346968D01*
X621720D01*
X622376Y346312D01*
Y345000D01*
X621720Y344344D01*
X619752D01*
X621064D02*
X622376Y343032D01*
X626312D02*
X623688D01*
X626312Y345656D01*
Y346312D01*
X625656Y346968D01*
X624344D01*
X623688Y346312D01*
X630248Y343032D02*
X627624D01*
X630248Y345656D01*
Y346312D01*
X629592Y346968D01*
X628280D01*
X627624Y346312D01*
X719400Y252700D02*
Y256636D01*
X721368D01*
X722024Y255980D01*
Y254668D01*
X721368Y254012D01*
X719400D01*
X720712D02*
X722024Y252700D01*
X725960D02*
X723336D01*
X725960Y255324D01*
Y255980D01*
X725304Y256636D01*
X723992D01*
X723336Y255980D01*
X727272Y252700D02*
X728583D01*
X727927D01*
Y256636D01*
X727272Y255980D01*
X704400Y252700D02*
Y256636D01*
X706368D01*
X707024Y255980D01*
Y254668D01*
X706368Y254012D01*
X704400D01*
X705712D02*
X707024Y252700D01*
X710960D02*
X708336D01*
X710960Y255324D01*
Y255980D01*
X710304Y256636D01*
X708992D01*
X708336Y255980D01*
X712271D02*
X712927Y256636D01*
X714239D01*
X714895Y255980D01*
Y253356D01*
X714239Y252700D01*
X712927D01*
X712271Y253356D01*
Y255980D01*
X564400Y267700D02*
Y271636D01*
X566368D01*
X567024Y270980D01*
Y269668D01*
X566368Y269012D01*
X564400D01*
X565712D02*
X567024Y267700D01*
X568336D02*
X569648D01*
X568992D01*
Y271636D01*
X568336Y270980D01*
X571616Y268356D02*
X572271Y267700D01*
X573583D01*
X574239Y268356D01*
Y270980D01*
X573583Y271636D01*
X572271D01*
X571616Y270980D01*
Y270324D01*
X572271Y269668D01*
X574239D01*
X579400Y267700D02*
Y271636D01*
X581368D01*
X582024Y270980D01*
Y269668D01*
X581368Y269012D01*
X579400D01*
X580712D02*
X582024Y267700D01*
X583336D02*
X584648D01*
X583992D01*
Y271636D01*
X583336Y270980D01*
X586616D02*
X587271Y271636D01*
X588583D01*
X589239Y270980D01*
Y270324D01*
X588583Y269668D01*
X589239Y269012D01*
Y268356D01*
X588583Y267700D01*
X587271D01*
X586616Y268356D01*
Y269012D01*
X587271Y269668D01*
X586616Y270324D01*
Y270980D01*
X587271Y269668D02*
X588583D01*
X729400Y332700D02*
Y336636D01*
X731368D01*
X732024Y335980D01*
Y334668D01*
X731368Y334012D01*
X729400D01*
X730712D02*
X732024Y332700D01*
X733336D02*
X734648D01*
X733992D01*
Y336636D01*
X733336Y335980D01*
X736616Y336636D02*
X739239D01*
Y335980D01*
X736616Y333356D01*
Y332700D01*
X744400D02*
Y336636D01*
X746368D01*
X747024Y335980D01*
Y334668D01*
X746368Y334012D01*
X744400D01*
X745712D02*
X747024Y332700D01*
X748336D02*
X749648D01*
X748992D01*
Y336636D01*
X748336Y335980D01*
X754239Y336636D02*
X752927Y335980D01*
X751615Y334668D01*
Y333356D01*
X752272Y332700D01*
X753583D01*
X754239Y333356D01*
Y334012D01*
X753583Y334668D01*
X751615D01*
X670080Y218032D02*
Y221968D01*
X672048D01*
X672704Y221312D01*
Y220000D01*
X672048Y219344D01*
X670080D01*
X671392D02*
X672704Y218032D01*
X674016D02*
X675328D01*
X674672D01*
Y221968D01*
X674016Y221312D01*
X679920Y221968D02*
X677296D01*
Y220000D01*
X678608Y220656D01*
X679264D01*
X679920Y220000D01*
Y218688D01*
X679264Y218032D01*
X677952D01*
X677296Y218688D01*
X620080Y218032D02*
Y221968D01*
X622048D01*
X622704Y221312D01*
Y220000D01*
X622048Y219344D01*
X620080D01*
X621392D02*
X622704Y218032D01*
X624016D02*
X625328D01*
X624672D01*
Y221968D01*
X624016Y221312D01*
X629264Y218032D02*
Y221968D01*
X627296Y220000D01*
X629920D01*
X620080Y253032D02*
Y256968D01*
X622048D01*
X622704Y256312D01*
Y255000D01*
X622048Y254344D01*
X620080D01*
X621392D02*
X622704Y253032D01*
X624016D02*
X625328D01*
X624672D01*
Y256968D01*
X624016Y256312D01*
X627296D02*
X627952Y256968D01*
X629264D01*
X629920Y256312D01*
Y255656D01*
X629264Y255000D01*
X628608D01*
X629264D01*
X629920Y254344D01*
Y253688D01*
X629264Y253032D01*
X627952D01*
X627296Y253688D01*
X665080Y253032D02*
Y256968D01*
X667048D01*
X667704Y256312D01*
Y255000D01*
X667048Y254344D01*
X665080D01*
X666392D02*
X667704Y253032D01*
X669016D02*
X670328D01*
X669672D01*
Y256968D01*
X669016Y256312D01*
X674920Y253032D02*
X672296D01*
X674920Y255656D01*
Y256312D01*
X674264Y256968D01*
X672952D01*
X672296Y256312D01*
X595124Y333756D02*
Y336380D01*
X594468Y337036D01*
X593156D01*
X592500Y336380D01*
Y333756D01*
X593156Y333100D01*
X594468D01*
X593812Y334412D02*
X595124Y333100D01*
X594468D02*
X595124Y333756D01*
X599060Y337036D02*
X597748Y336380D01*
X596436Y335068D01*
Y333756D01*
X597092Y333100D01*
X598404D01*
X599060Y333756D01*
Y334412D01*
X598404Y335068D01*
X596436D01*
X665124Y333756D02*
Y336380D01*
X664468Y337036D01*
X663156D01*
X662500Y336380D01*
Y333756D01*
X663156Y333100D01*
X664468D01*
X663812Y334412D02*
X665124Y333100D01*
X664468D02*
X665124Y333756D01*
X669060Y337036D02*
X666436D01*
Y335068D01*
X667748Y335724D01*
X668404D01*
X669060Y335068D01*
Y333756D01*
X668404Y333100D01*
X667092D01*
X666436Y333756D01*
X664324Y301256D02*
Y303880D01*
X663668Y304536D01*
X662356D01*
X661700Y303880D01*
Y301256D01*
X662356Y300600D01*
X663668D01*
X663012Y301912D02*
X664324Y300600D01*
X663668D02*
X664324Y301256D01*
X667604Y300600D02*
Y304536D01*
X665636Y302568D01*
X668260D01*
X609324Y301256D02*
Y303880D01*
X608668Y304536D01*
X607356D01*
X606700Y303880D01*
Y301256D01*
X607356Y300600D01*
X608668D01*
X608012Y301912D02*
X609324Y300600D01*
X608668D02*
X609324Y301256D01*
X610636Y303880D02*
X611292Y304536D01*
X612604D01*
X613260Y303880D01*
Y303224D01*
X612604Y302568D01*
X611948D01*
X612604D01*
X613260Y301912D01*
Y301256D01*
X612604Y300600D01*
X611292D01*
X610636Y301256D01*
X694324D02*
Y303880D01*
X693668Y304536D01*
X692356D01*
X691700Y303880D01*
Y301256D01*
X692356Y300600D01*
X693668D01*
X693012Y301912D02*
X694324Y300600D01*
X693668D02*
X694324Y301256D01*
X698260Y300600D02*
X695636D01*
X698260Y303224D01*
Y303880D01*
X697604Y304536D01*
X696292D01*
X695636Y303880D01*
X579324Y301256D02*
Y303880D01*
X578668Y304536D01*
X577356D01*
X576700Y303880D01*
Y301256D01*
X577356Y300600D01*
X578668D01*
X578012Y301912D02*
X579324Y300600D01*
X578668D02*
X579324Y301256D01*
X580636Y300600D02*
X581948D01*
X581292D01*
Y304536D01*
X580636Y303880D01*
X506424Y268336D02*
X505112D01*
X505768D01*
Y265056D01*
X505112Y264400D01*
X504456D01*
X503800Y265056D01*
X507736Y264400D02*
X509048D01*
X508392D01*
Y268336D01*
X507736Y267680D01*
X513639Y268336D02*
X511016D01*
Y266368D01*
X512327Y267024D01*
X512983D01*
X513639Y266368D01*
Y265056D01*
X512983Y264400D01*
X511671D01*
X511016Y265056D01*
X502704Y321968D02*
X501392D01*
X502048D01*
Y318688D01*
X501392Y318032D01*
X500736D01*
X500080Y318688D01*
X504016Y318032D02*
X505328D01*
X504672D01*
Y321968D01*
X504016Y321312D01*
X507296D02*
X507952Y321968D01*
X509264D01*
X509920Y321312D01*
Y320656D01*
X509264Y320000D01*
X508608D01*
X509264D01*
X509920Y319344D01*
Y318688D01*
X509264Y318032D01*
X507952D01*
X507296Y318688D01*
X581724Y384380D02*
X581068Y385036D01*
X579756D01*
X579100Y384380D01*
Y381756D01*
X579756Y381100D01*
X581068D01*
X581724Y381756D01*
X585660Y385036D02*
X583036D01*
Y383068D01*
X584348Y383724D01*
X585004D01*
X585660Y383068D01*
Y381756D01*
X585004Y381100D01*
X583692D01*
X583036Y381756D01*
X721624Y379380D02*
X720968Y380036D01*
X719656D01*
X719000Y379380D01*
Y376756D01*
X719656Y376100D01*
X720968D01*
X721624Y376756D01*
X724904Y376100D02*
Y380036D01*
X722936Y378068D01*
X725560D01*
X566724Y339380D02*
X566068Y340036D01*
X564756D01*
X564100Y339380D01*
Y336756D01*
X564756Y336100D01*
X566068D01*
X566724Y336756D01*
X568036Y339380D02*
X568692Y340036D01*
X570004D01*
X570660Y339380D01*
Y338724D01*
X570004Y338068D01*
X569348D01*
X570004D01*
X570660Y337412D01*
Y336756D01*
X570004Y336100D01*
X568692D01*
X568036Y336756D01*
X736624Y259380D02*
X735968Y260036D01*
X734656D01*
X734000Y259380D01*
Y256756D01*
X734656Y256100D01*
X735968D01*
X736624Y256756D01*
X740560Y256100D02*
X737936D01*
X740560Y258724D01*
Y259380D01*
X739904Y260036D01*
X738592D01*
X737936Y259380D01*
X696624Y339380D02*
X695968Y340036D01*
X694656D01*
X694000Y339380D01*
Y336756D01*
X694656Y336100D01*
X695968D01*
X696624Y336756D01*
X697936Y336100D02*
X699248D01*
X698592D01*
Y340036D01*
X697936Y339380D01*
X329044Y143032D02*
Y146968D01*
X331012D01*
X331668Y146312D01*
Y145000D01*
X331012Y144344D01*
X329044D01*
X330356D02*
X331668Y143032D01*
X335603Y146968D02*
X332979D01*
Y145000D01*
X334291Y145656D01*
X334947D01*
X335603Y145000D01*
Y143688D01*
X334947Y143032D01*
X333635D01*
X332979Y143688D01*
X336915Y146312D02*
X337571Y146968D01*
X338883D01*
X339539Y146312D01*
Y145656D01*
X338883Y145000D01*
X339539Y144344D01*
Y143688D01*
X338883Y143032D01*
X337571D01*
X336915Y143688D01*
Y144344D01*
X337571Y145000D01*
X336915Y145656D01*
Y146312D01*
X337571Y145000D02*
X338883D01*
X796424Y398336D02*
X795112D01*
X795768D01*
Y395056D01*
X795112Y394400D01*
X794456D01*
X793800Y395056D01*
X800360Y394400D02*
X797736D01*
X800360Y397024D01*
Y397680D01*
X799704Y398336D01*
X798392D01*
X797736Y397680D01*
X803639Y394400D02*
Y398336D01*
X801672Y396368D01*
X804295D01*
X467376Y141968D02*
X466064D01*
X466720D01*
Y138688D01*
X466064Y138032D01*
X465408D01*
X464752Y138688D01*
X471312Y138032D02*
X468688D01*
X471312Y140656D01*
Y141312D01*
X470656Y141968D01*
X469344D01*
X468688Y141312D01*
X472624D02*
X473280Y141968D01*
X474592D01*
X475248Y141312D01*
Y140656D01*
X474592Y140000D01*
X473936D01*
X474592D01*
X475248Y139344D01*
Y138688D01*
X474592Y138032D01*
X473280D01*
X472624Y138688D01*
X246424Y443336D02*
X245112D01*
X245768D01*
Y440056D01*
X245112Y439400D01*
X244456D01*
X243800Y440056D01*
X250360Y439400D02*
X247736D01*
X250360Y442024D01*
Y442680D01*
X249704Y443336D01*
X248392D01*
X247736Y442680D01*
X254295Y439400D02*
X251672D01*
X254295Y442024D01*
Y442680D01*
X253639Y443336D01*
X252327D01*
X251672Y442680D01*
X798032Y456968D02*
X796720D01*
X797376D01*
Y453688D01*
X796720Y453032D01*
X796064D01*
X795408Y453688D01*
X801968Y453032D02*
X799344D01*
X801968Y455656D01*
Y456312D01*
X801312Y456968D01*
X800000D01*
X799344Y456312D01*
X803280Y453032D02*
X804592D01*
X803936D01*
Y456968D01*
X803280Y456312D01*
X247376Y386968D02*
X246064D01*
X246720D01*
Y383688D01*
X246064Y383032D01*
X245408D01*
X244752Y383688D01*
X251312Y383032D02*
X248688D01*
X251312Y385656D01*
Y386312D01*
X250656Y386968D01*
X249344D01*
X248688Y386312D01*
X252624D02*
X253280Y386968D01*
X254592D01*
X255248Y386312D01*
Y383688D01*
X254592Y383032D01*
X253280D01*
X252624Y383688D01*
Y386312D01*
X796424Y338336D02*
X795112D01*
X795768D01*
Y335056D01*
X795112Y334400D01*
X794456D01*
X793800Y335056D01*
X797736Y334400D02*
X799048D01*
X798392D01*
Y338336D01*
X797736Y337680D01*
X801015Y335056D02*
X801672Y334400D01*
X802983D01*
X803639Y335056D01*
Y337680D01*
X802983Y338336D01*
X801672D01*
X801015Y337680D01*
Y337024D01*
X801672Y336368D01*
X803639D01*
X507704Y461968D02*
X506392D01*
X507048D01*
Y458688D01*
X506392Y458032D01*
X505736D01*
X505080Y458688D01*
X509016Y458032D02*
X510328D01*
X509672D01*
Y461968D01*
X509016Y461312D01*
X512296D02*
X512952Y461968D01*
X514264D01*
X514920Y461312D01*
Y460656D01*
X514264Y460000D01*
X514920Y459344D01*
Y458688D01*
X514264Y458032D01*
X512952D01*
X512296Y458688D01*
Y459344D01*
X512952Y460000D01*
X512296Y460656D01*
Y461312D01*
X512952Y460000D02*
X514264D01*
X767704Y131968D02*
X766392D01*
X767048D01*
Y128688D01*
X766392Y128032D01*
X765736D01*
X765080Y128688D01*
X769016Y128032D02*
X770328D01*
X769672D01*
Y131968D01*
X769016Y131312D01*
X772296Y131968D02*
X774920D01*
Y131312D01*
X772296Y128688D01*
Y128032D01*
X687704Y461968D02*
X686392D01*
X687048D01*
Y458688D01*
X686392Y458032D01*
X685736D01*
X685080Y458688D01*
X689016Y458032D02*
X690328D01*
X689672D01*
Y461968D01*
X689016Y461312D01*
X694920Y461968D02*
X693608Y461312D01*
X692296Y460000D01*
Y458688D01*
X692952Y458032D01*
X694264D01*
X694920Y458688D01*
Y459344D01*
X694264Y460000D01*
X692296D01*
X742704Y456968D02*
X741392D01*
X742048D01*
Y453688D01*
X741392Y453032D01*
X740736D01*
X740080Y453688D01*
X744016Y453032D02*
X745328D01*
X744672D01*
Y456968D01*
X744016Y456312D01*
X749264Y453032D02*
Y456968D01*
X747296Y455000D01*
X749920D01*
X138032Y202704D02*
Y201392D01*
Y202048D01*
X141312D01*
X141968Y201392D01*
Y200736D01*
X141312Y200080D01*
X141968Y204016D02*
Y205328D01*
Y204672D01*
X138032D01*
X138688Y204016D01*
X141968Y209920D02*
Y207296D01*
X139344Y209920D01*
X138688D01*
X138032Y209264D01*
Y207952D01*
X138688Y207296D01*
X623360Y461968D02*
X622048D01*
X622704D01*
Y458688D01*
X622048Y458032D01*
X621392D01*
X620736Y458688D01*
X624672Y458032D02*
X625984D01*
X625328D01*
Y461968D01*
X624672Y461312D01*
X627952Y458032D02*
X629264D01*
X628608D01*
Y461968D01*
X627952Y461312D01*
X567704Y461968D02*
X566392D01*
X567048D01*
Y458688D01*
X566392Y458032D01*
X565736D01*
X565080Y458688D01*
X569016Y458032D02*
X570328D01*
X569672D01*
Y461968D01*
X569016Y461312D01*
X572296D02*
X572952Y461968D01*
X574264D01*
X574920Y461312D01*
Y458688D01*
X574264Y458032D01*
X572952D01*
X572296Y458688D01*
Y461312D01*
X138032Y144344D02*
Y143032D01*
Y143688D01*
X141312D01*
X141968Y143032D01*
Y142376D01*
X141312Y141720D01*
Y145656D02*
X141968Y146312D01*
Y147624D01*
X141312Y148280D01*
X138688D01*
X138032Y147624D01*
Y146312D01*
X138688Y145656D01*
X139344D01*
X140000Y146312D01*
Y148280D01*
X138032Y259344D02*
Y258032D01*
Y258688D01*
X141312D01*
X141968Y258032D01*
Y257376D01*
X141312Y256720D01*
X138688Y260656D02*
X138032Y261312D01*
Y262624D01*
X138688Y263280D01*
X139344D01*
X140000Y262624D01*
X140656Y263280D01*
X141312D01*
X141968Y262624D01*
Y261312D01*
X141312Y260656D01*
X140656D01*
X140000Y261312D01*
X139344Y260656D01*
X138688D01*
X140000Y261312D02*
Y262624D01*
X506424Y393336D02*
X505112D01*
X505768D01*
Y390056D01*
X505112Y389400D01*
X504456D01*
X503800Y390056D01*
X507736Y393336D02*
X510360D01*
Y392680D01*
X507736Y390056D01*
Y389400D01*
X9344Y301968D02*
X8032D01*
X8688D01*
Y298688D01*
X8032Y298032D01*
X7376D01*
X6720Y298688D01*
X13280Y301968D02*
X11968Y301312D01*
X10656Y300000D01*
Y298688D01*
X11312Y298032D01*
X12624D01*
X13280Y298688D01*
Y299344D01*
X12624Y300000D01*
X10656D01*
X894344Y396968D02*
X893032D01*
X893688D01*
Y393688D01*
X893032Y393032D01*
X892376D01*
X891720Y393688D01*
X898280Y396968D02*
X895656D01*
Y395000D01*
X896968Y395656D01*
X897624D01*
X898280Y395000D01*
Y393688D01*
X897624Y393032D01*
X896312D01*
X895656Y393688D01*
X856424Y338336D02*
X855112D01*
X855768D01*
Y335056D01*
X855112Y334400D01*
X854456D01*
X853800Y335056D01*
X859704Y334400D02*
Y338336D01*
X857736Y336368D01*
X860360D01*
X81424Y218336D02*
X80112D01*
X80768D01*
Y215056D01*
X80112Y214400D01*
X79456D01*
X78800Y215056D01*
X82736Y217680D02*
X83392Y218336D01*
X84704D01*
X85360Y217680D01*
Y217024D01*
X84704Y216368D01*
X84048D01*
X84704D01*
X85360Y215712D01*
Y215056D01*
X84704Y214400D01*
X83392D01*
X82736Y215056D01*
X79344Y301968D02*
X78032D01*
X78688D01*
Y298688D01*
X78032Y298032D01*
X77376D01*
X76720Y298688D01*
X83280Y298032D02*
X80656D01*
X83280Y300656D01*
Y301312D01*
X82624Y301968D01*
X81312D01*
X80656Y301312D01*
X860000Y456968D02*
X858688D01*
X859344D01*
Y453688D01*
X858688Y453032D01*
X858032D01*
X857376Y453688D01*
X861312Y453032D02*
X862624D01*
X861968D01*
Y456968D01*
X861312Y456312D01*
X4224Y470936D02*
X2912D01*
X3568D01*
Y467656D01*
X2912Y467000D01*
X2256D01*
X1600Y467656D01*
X8160Y467000D02*
X5536D01*
X8160Y469624D01*
Y470280D01*
X7504Y470936D01*
X6192D01*
X5536Y470280D01*
X9471Y470936D02*
X12095D01*
Y470280D01*
X9471Y467656D01*
Y467000D01*
X4124Y360936D02*
X2812D01*
X3468D01*
Y357656D01*
X2812Y357000D01*
X2156D01*
X1500Y357656D01*
X8060Y357000D02*
X5436D01*
X8060Y359624D01*
Y360280D01*
X7404Y360936D01*
X6092D01*
X5436Y360280D01*
X11995Y360936D02*
X10683Y360280D01*
X9371Y358968D01*
Y357656D01*
X10027Y357000D01*
X11339D01*
X11995Y357656D01*
Y358312D01*
X11339Y358968D01*
X9371D01*
X4124Y415936D02*
X2812D01*
X3468D01*
Y412656D01*
X2812Y412000D01*
X2156D01*
X1500Y412656D01*
X8060Y412000D02*
X5436D01*
X8060Y414624D01*
Y415280D01*
X7404Y415936D01*
X6092D01*
X5436Y415280D01*
X11995Y415936D02*
X9371D01*
Y413968D01*
X10683Y414624D01*
X11339D01*
X11995Y413968D01*
Y412656D01*
X11339Y412000D01*
X10027D01*
X9371Y412656D01*
X419300Y226536D02*
Y223256D01*
X419956Y222600D01*
X421268D01*
X421924Y223256D01*
Y226536D01*
X423236Y223256D02*
X423892Y222600D01*
X425204D01*
X425860Y223256D01*
Y225880D01*
X425204Y226536D01*
X423892D01*
X423236Y225880D01*
Y225224D01*
X423892Y224568D01*
X425860D01*
X275000Y146536D02*
Y143256D01*
X275656Y142600D01*
X276968D01*
X277624Y143256D01*
Y146536D01*
X278936Y142600D02*
X280248D01*
X279592D01*
Y146536D01*
X278936Y145880D01*
X284839Y142600D02*
X282215D01*
X284839Y145224D01*
Y145880D01*
X284183Y146536D01*
X282872D01*
X282215Y145880D01*
X434300Y391536D02*
Y388256D01*
X434956Y387600D01*
X436268D01*
X436924Y388256D01*
Y391536D01*
X438236Y387600D02*
X439548D01*
X438892D01*
Y391536D01*
X438236Y390880D01*
X441515Y387600D02*
X442827D01*
X442171D01*
Y391536D01*
X441515Y390880D01*
X424300Y321536D02*
Y318256D01*
X424956Y317600D01*
X426268D01*
X426924Y318256D01*
Y321536D01*
X428236Y317600D02*
X429548D01*
X428892D01*
Y321536D01*
X428236Y320880D01*
X431516D02*
X432171Y321536D01*
X433483D01*
X434139Y320880D01*
Y318256D01*
X433483Y317600D01*
X432171D01*
X431516Y318256D01*
Y320880D01*
X308600Y236536D02*
Y233256D01*
X309256Y232600D01*
X310568D01*
X311224Y233256D01*
Y236536D01*
X312536Y235880D02*
X313192Y236536D01*
X314504D01*
X315160Y235880D01*
Y235224D01*
X314504Y234568D01*
X315160Y233912D01*
Y233256D01*
X314504Y232600D01*
X313192D01*
X312536Y233256D01*
Y233912D01*
X313192Y234568D01*
X312536Y235224D01*
Y235880D01*
X313192Y234568D02*
X314504D01*
X336012Y321968D02*
Y318688D01*
X336668Y318032D01*
X337980D01*
X338635Y318688D01*
Y321968D01*
X339947D02*
X342571D01*
Y321312D01*
X339947Y318688D01*
Y318032D01*
X354900Y451536D02*
Y448256D01*
X355556Y447600D01*
X356868D01*
X357524Y448256D01*
Y451536D01*
X361460D02*
X360148Y450880D01*
X358836Y449568D01*
Y448256D01*
X359492Y447600D01*
X360804D01*
X361460Y448256D01*
Y448912D01*
X360804Y449568D01*
X358836D01*
X416259Y359752D02*
X412324D01*
Y361720D01*
X412980Y362376D01*
X414291D01*
X414947Y361720D01*
Y359752D01*
Y361064D02*
X416259Y362376D01*
X412324Y366312D02*
Y363688D01*
X414291D01*
X413635Y365000D01*
Y365656D01*
X414291Y366312D01*
X415603D01*
X416259Y365656D01*
Y364344D01*
X415603Y363688D01*
X412324Y367624D02*
Y370248D01*
X412980D01*
X415603Y367624D01*
X416259D01*
X381259Y359752D02*
X377324D01*
Y361720D01*
X377979Y362376D01*
X379291D01*
X379947Y361720D01*
Y359752D01*
Y361064D02*
X381259Y362376D01*
X377324Y366312D02*
Y363688D01*
X379291D01*
X378635Y365000D01*
Y365656D01*
X379291Y366312D01*
X380603D01*
X381259Y365656D01*
Y364344D01*
X380603Y363688D01*
X377324Y370248D02*
X377979Y368936D01*
X379291Y367624D01*
X380603D01*
X381259Y368280D01*
Y369592D01*
X380603Y370248D01*
X379947D01*
X379291Y369592D01*
Y367624D01*
X444044Y318032D02*
Y321968D01*
X446012D01*
X446668Y321312D01*
Y320000D01*
X446012Y319344D01*
X444044D01*
X445356D02*
X446668Y318032D01*
X450603Y321968D02*
X447979D01*
Y320000D01*
X449291Y320656D01*
X449947D01*
X450603Y320000D01*
Y318688D01*
X449947Y318032D01*
X448635D01*
X447979Y318688D01*
X454539Y321968D02*
X451915D01*
Y320000D01*
X453227Y320656D01*
X453883D01*
X454539Y320000D01*
Y318688D01*
X453883Y318032D01*
X452571D01*
X451915Y318688D01*
X463700Y227700D02*
Y231636D01*
X465668D01*
X466324Y230980D01*
Y229668D01*
X465668Y229012D01*
X463700D01*
X465012D02*
X466324Y227700D01*
X470260Y231636D02*
X467636D01*
Y229668D01*
X468948Y230324D01*
X469604D01*
X470260Y229668D01*
Y228356D01*
X469604Y227700D01*
X468292D01*
X467636Y228356D01*
X473539Y227700D02*
Y231636D01*
X471571Y229668D01*
X474195D01*
X476259Y259752D02*
X472324D01*
Y261720D01*
X472979Y262376D01*
X474291D01*
X474947Y261720D01*
Y259752D01*
Y261064D02*
X476259Y262376D01*
X472324Y266312D02*
Y263688D01*
X474291D01*
X473635Y265000D01*
Y265656D01*
X474291Y266312D01*
X475603D01*
X476259Y265656D01*
Y264344D01*
X475603Y263688D01*
X472979Y267624D02*
X472324Y268280D01*
Y269592D01*
X472979Y270248D01*
X473635D01*
X474291Y269592D01*
Y268936D01*
Y269592D01*
X474947Y270248D01*
X475603D01*
X476259Y269592D01*
Y268280D01*
X475603Y267624D01*
X478700Y227700D02*
Y231636D01*
X480668D01*
X481324Y230980D01*
Y229668D01*
X480668Y229012D01*
X478700D01*
X480012D02*
X481324Y227700D01*
X485260Y231636D02*
X482636D01*
Y229668D01*
X483948Y230324D01*
X484604D01*
X485260Y229668D01*
Y228356D01*
X484604Y227700D01*
X483292D01*
X482636Y228356D01*
X489195Y227700D02*
X486572D01*
X489195Y230324D01*
Y230980D01*
X488539Y231636D01*
X487227D01*
X486572Y230980D01*
X440408Y238032D02*
Y241968D01*
X442376D01*
X443032Y241312D01*
Y240000D01*
X442376Y239344D01*
X440408D01*
X441720D02*
X443032Y238032D01*
X446968Y241968D02*
X444344D01*
Y240000D01*
X445656Y240656D01*
X446312D01*
X446968Y240000D01*
Y238688D01*
X446312Y238032D01*
X445000D01*
X444344Y238688D01*
X448280Y238032D02*
X449592D01*
X448936D01*
Y241968D01*
X448280Y241312D01*
X329800Y338800D02*
Y342736D01*
X331768D01*
X332424Y342080D01*
Y340768D01*
X331768Y340112D01*
X329800D01*
X331112D02*
X332424Y338800D01*
X336360Y342736D02*
X333736D01*
Y340768D01*
X335048Y341424D01*
X335704D01*
X336360Y340768D01*
Y339456D01*
X335704Y338800D01*
X334392D01*
X333736Y339456D01*
X337671Y342080D02*
X338327Y342736D01*
X339639D01*
X340295Y342080D01*
Y339456D01*
X339639Y338800D01*
X338327D01*
X337671Y339456D01*
Y342080D01*
X444044Y153032D02*
Y156968D01*
X446012D01*
X446668Y156312D01*
Y155000D01*
X446012Y154344D01*
X444044D01*
X445356D02*
X446668Y153032D01*
X449947D02*
Y156968D01*
X447979Y155000D01*
X450603D01*
X451915Y153688D02*
X452571Y153032D01*
X453883D01*
X454539Y153688D01*
Y156312D01*
X453883Y156968D01*
X452571D01*
X451915Y156312D01*
Y155656D01*
X452571Y155000D01*
X454539D01*
X438700Y452700D02*
Y456636D01*
X440668D01*
X441324Y455980D01*
Y454668D01*
X440668Y454012D01*
X438700D01*
X440012D02*
X441324Y452700D01*
X444604D02*
Y456636D01*
X442636Y454668D01*
X445260D01*
X446571Y455980D02*
X447227Y456636D01*
X448539D01*
X449195Y455980D01*
Y455324D01*
X448539Y454668D01*
X449195Y454012D01*
Y453356D01*
X448539Y452700D01*
X447227D01*
X446571Y453356D01*
Y454012D01*
X447227Y454668D01*
X446571Y455324D01*
Y455980D01*
X447227Y454668D02*
X448539D01*
X358700Y227700D02*
Y231636D01*
X360668D01*
X361324Y230980D01*
Y229668D01*
X360668Y229012D01*
X358700D01*
X360012D02*
X361324Y227700D01*
X364604D02*
Y231636D01*
X362636Y229668D01*
X365260D01*
X366571Y231636D02*
X369195D01*
Y230980D01*
X366571Y228356D01*
Y227700D01*
X321259Y239752D02*
X317323D01*
Y241720D01*
X317980Y242376D01*
X319291D01*
X319947Y241720D01*
Y239752D01*
Y241064D02*
X321259Y242376D01*
Y245656D02*
X317323D01*
X319291Y243688D01*
Y246312D01*
X317323Y250248D02*
X317980Y248936D01*
X319291Y247624D01*
X320603D01*
X321259Y248280D01*
Y249592D01*
X320603Y250248D01*
X319947D01*
X319291Y249592D01*
Y247624D01*
X373700Y227700D02*
Y231636D01*
X375668D01*
X376324Y230980D01*
Y229668D01*
X375668Y229012D01*
X373700D01*
X375012D02*
X376324Y227700D01*
X379604D02*
Y231636D01*
X377636Y229668D01*
X380260D01*
X384195Y231636D02*
X381572D01*
Y229668D01*
X382883Y230324D01*
X383539D01*
X384195Y229668D01*
Y228356D01*
X383539Y227700D01*
X382227D01*
X381572Y228356D01*
X321259Y254752D02*
X317323D01*
Y256720D01*
X317980Y257376D01*
X319291D01*
X319947Y256720D01*
Y254752D01*
Y256064D02*
X321259Y257376D01*
Y260656D02*
X317323D01*
X319291Y258688D01*
Y261312D01*
X321259Y264592D02*
X317323D01*
X319291Y262624D01*
Y265248D01*
X303700Y447700D02*
Y451636D01*
X305668D01*
X306324Y450980D01*
Y449668D01*
X305668Y449012D01*
X303700D01*
X305012D02*
X306324Y447700D01*
X309604D02*
Y451636D01*
X307636Y449668D01*
X310260D01*
X311572Y450980D02*
X312227Y451636D01*
X313539D01*
X314195Y450980D01*
Y450324D01*
X313539Y449668D01*
X312883D01*
X313539D01*
X314195Y449012D01*
Y448356D01*
X313539Y447700D01*
X312227D01*
X311572Y448356D01*
X319044Y173032D02*
Y176968D01*
X321012D01*
X321668Y176312D01*
Y175000D01*
X321012Y174344D01*
X319044D01*
X320356D02*
X321668Y173032D01*
X324947D02*
Y176968D01*
X322979Y175000D01*
X325603D01*
X329539Y173032D02*
X326915D01*
X329539Y175656D01*
Y176312D01*
X328883Y176968D01*
X327571D01*
X326915Y176312D01*
X408700Y452700D02*
Y456636D01*
X410668D01*
X411324Y455980D01*
Y454668D01*
X410668Y454012D01*
X408700D01*
X410012D02*
X411324Y452700D01*
X414604D02*
Y456636D01*
X412636Y454668D01*
X415260D01*
X416572Y452700D02*
X417883D01*
X417227D01*
Y456636D01*
X416572Y455980D01*
X423700Y452700D02*
Y456636D01*
X425668D01*
X426324Y455980D01*
Y454668D01*
X425668Y454012D01*
X423700D01*
X425012D02*
X426324Y452700D01*
X429604D02*
Y456636D01*
X427636Y454668D01*
X430260D01*
X431571Y455980D02*
X432227Y456636D01*
X433539D01*
X434195Y455980D01*
Y453356D01*
X433539Y452700D01*
X432227D01*
X431571Y453356D01*
Y455980D01*
X333700Y447700D02*
Y451636D01*
X335668D01*
X336324Y450980D01*
Y449668D01*
X335668Y449012D01*
X333700D01*
X335012D02*
X336324Y447700D01*
X337636D02*
X338948D01*
X338292D01*
Y451636D01*
X337636Y450980D01*
X340915D02*
X341571Y451636D01*
X342883D01*
X343539Y450980D01*
Y448356D01*
X342883Y447700D01*
X341571D01*
X340915Y448356D01*
Y450980D01*
X318700Y447700D02*
Y451636D01*
X320668D01*
X321324Y450980D01*
Y449668D01*
X320668Y449012D01*
X318700D01*
X320012D02*
X321324Y447700D01*
X322636Y450980D02*
X323292Y451636D01*
X324604D01*
X325260Y450980D01*
Y450324D01*
X324604Y449668D01*
X323948D01*
X324604D01*
X325260Y449012D01*
Y448356D01*
X324604Y447700D01*
X323292D01*
X322636Y448356D01*
X389372Y226968D02*
Y223032D01*
X391340D01*
X391996Y223688D01*
Y226312D01*
X391340Y226968D01*
X389372D01*
X393307Y223032D02*
X394619D01*
X393963D01*
Y226968D01*
X393307Y226312D01*
X399211Y223032D02*
X396587D01*
X399211Y225656D01*
Y226312D01*
X398555Y226968D01*
X397243D01*
X396587Y226312D01*
X405028Y226968D02*
Y223032D01*
X406996D01*
X407652Y223688D01*
Y226312D01*
X406996Y226968D01*
X405028D01*
X408963Y223032D02*
X410275D01*
X409619D01*
Y226968D01*
X408963Y226312D01*
X412243Y223032D02*
X413555D01*
X412899D01*
Y226968D01*
X412243Y226312D01*
X479372Y321968D02*
Y318032D01*
X481340D01*
X481996Y318688D01*
Y321312D01*
X481340Y321968D01*
X479372D01*
X483308Y318032D02*
X484619D01*
X483963D01*
Y321968D01*
X483308Y321312D01*
X486587D02*
X487243Y321968D01*
X488555D01*
X489211Y321312D01*
Y318688D01*
X488555Y318032D01*
X487243D01*
X486587Y318688D01*
Y321312D01*
X471012Y321968D02*
Y318032D01*
X472979D01*
X473635Y318688D01*
Y321312D01*
X472979Y321968D01*
X471012D01*
X474947Y318688D02*
X475603Y318032D01*
X476915D01*
X477571Y318688D01*
Y321312D01*
X476915Y321968D01*
X475603D01*
X474947Y321312D01*
Y320656D01*
X475603Y320000D01*
X477571D01*
X401012Y321968D02*
Y318032D01*
X402980D01*
X403635Y318688D01*
Y321312D01*
X402980Y321968D01*
X401012D01*
X404947Y321312D02*
X405603Y321968D01*
X406915D01*
X407571Y321312D01*
Y320656D01*
X406915Y320000D01*
X407571Y319344D01*
Y318688D01*
X406915Y318032D01*
X405603D01*
X404947Y318688D01*
Y319344D01*
X405603Y320000D01*
X404947Y320656D01*
Y321312D01*
X405603Y320000D02*
X406915D01*
X410400Y322036D02*
Y318100D01*
X412368D01*
X413024Y318756D01*
Y321380D01*
X412368Y322036D01*
X410400D01*
X414336D02*
X416960D01*
Y321380D01*
X414336Y318756D01*
Y318100D01*
X290400Y232036D02*
Y228100D01*
X292368D01*
X293024Y228756D01*
Y231380D01*
X292368Y232036D01*
X290400D01*
X296960D02*
X295648Y231380D01*
X294336Y230068D01*
Y228756D01*
X294992Y228100D01*
X296304D01*
X296960Y228756D01*
Y229412D01*
X296304Y230068D01*
X294336D01*
X281012Y231968D02*
Y228032D01*
X282979D01*
X283635Y228688D01*
Y231312D01*
X282979Y231968D01*
X281012D01*
X287571D02*
X284947D01*
Y230000D01*
X286259Y230656D01*
X286915D01*
X287571Y230000D01*
Y228688D01*
X286915Y228032D01*
X285603D01*
X284947Y228688D01*
X375400Y322036D02*
Y318100D01*
X377368D01*
X378024Y318756D01*
Y321380D01*
X377368Y322036D01*
X375400D01*
X381304Y318100D02*
Y322036D01*
X379336Y320068D01*
X381960D01*
X386012Y321968D02*
Y318032D01*
X387980D01*
X388635Y318688D01*
Y321312D01*
X387980Y321968D01*
X386012D01*
X389947Y321312D02*
X390603Y321968D01*
X391915D01*
X392571Y321312D01*
Y320656D01*
X391915Y320000D01*
X391259D01*
X391915D01*
X392571Y319344D01*
Y318688D01*
X391915Y318032D01*
X390603D01*
X389947Y318688D01*
X306012Y326968D02*
Y323032D01*
X307979D01*
X308635Y323688D01*
Y326312D01*
X307979Y326968D01*
X306012D01*
X312571Y323032D02*
X309947D01*
X312571Y325656D01*
Y326312D01*
X311915Y326968D01*
X310603D01*
X309947Y326312D01*
X315400Y327036D02*
Y323100D01*
X317368D01*
X318024Y323756D01*
Y326380D01*
X317368Y327036D01*
X315400D01*
X319336Y323100D02*
X320648D01*
X319992D01*
Y327036D01*
X319336Y326380D01*
X20408Y141968D02*
Y139344D01*
X21720Y138032D01*
X23032Y139344D01*
Y141968D01*
X24344Y138032D02*
Y141968D01*
X26312D01*
X26968Y141312D01*
Y140000D01*
X26312Y139344D01*
X24344D01*
X25656D02*
X26968Y138032D01*
X28280D02*
X29592D01*
X28936D01*
Y141968D01*
X28280Y141312D01*
X149752Y111968D02*
Y109344D01*
X151064Y108032D01*
X152376Y109344D01*
Y111968D01*
X153688Y108032D02*
Y111968D01*
X155656D01*
X156312Y111312D01*
Y110000D01*
X155656Y109344D01*
X153688D01*
X155000D02*
X156312Y108032D01*
X160248D02*
X157624D01*
X160248Y110656D01*
Y111312D01*
X159592Y111968D01*
X158280D01*
X157624Y111312D01*
X246968Y170736D02*
X243032D01*
Y172704D01*
X243688Y173360D01*
X245000D01*
X245656Y172704D01*
Y170736D01*
Y172048D02*
X246968Y173360D01*
Y174672D02*
Y175984D01*
Y175328D01*
X243032D01*
X243688Y174672D01*
X246968Y177952D02*
Y179264D01*
Y178608D01*
X243032D01*
X243688Y177952D01*
X211720Y213032D02*
Y216968D01*
X213688D01*
X214344Y216312D01*
Y215000D01*
X213688Y214344D01*
X211720D01*
X213032D02*
X214344Y213032D01*
X215656Y213688D02*
X216312Y213032D01*
X217624D01*
X218280Y213688D01*
Y216312D01*
X217624Y216968D01*
X216312D01*
X215656Y216312D01*
Y215656D01*
X216312Y215000D01*
X218280D01*
X211720Y238032D02*
Y241968D01*
X213688D01*
X214344Y241312D01*
Y240000D01*
X213688Y239344D01*
X211720D01*
X213032D02*
X214344Y238032D01*
X215656Y241312D02*
X216312Y241968D01*
X217624D01*
X218280Y241312D01*
Y240656D01*
X217624Y240000D01*
X218280Y239344D01*
Y238688D01*
X217624Y238032D01*
X216312D01*
X215656Y238688D01*
Y239344D01*
X216312Y240000D01*
X215656Y240656D01*
Y241312D01*
X216312Y240000D02*
X217624D01*
X246968Y236720D02*
X243032D01*
Y238688D01*
X243688Y239344D01*
X245000D01*
X245656Y238688D01*
Y236720D01*
Y238032D02*
X246968Y239344D01*
X243032Y240656D02*
Y243280D01*
X243688D01*
X246312Y240656D01*
X246968D01*
X211720Y263032D02*
Y266968D01*
X213688D01*
X214344Y266312D01*
Y265000D01*
X213688Y264344D01*
X211720D01*
X213032D02*
X214344Y263032D01*
X218280Y266968D02*
X216968Y266312D01*
X215656Y265000D01*
Y263688D01*
X216312Y263032D01*
X217624D01*
X218280Y263688D01*
Y264344D01*
X217624Y265000D01*
X215656D01*
X66720Y203032D02*
Y206968D01*
X68688D01*
X69344Y206312D01*
Y205000D01*
X68688Y204344D01*
X66720D01*
X68032D02*
X69344Y203032D01*
X73280Y206968D02*
X70656D01*
Y205000D01*
X71968Y205656D01*
X72624D01*
X73280Y205000D01*
Y203688D01*
X72624Y203032D01*
X71312D01*
X70656Y203688D01*
X101720Y238032D02*
Y241968D01*
X103688D01*
X104344Y241312D01*
Y240000D01*
X103688Y239344D01*
X101720D01*
X103032D02*
X104344Y238032D01*
X107624D02*
Y241968D01*
X105656Y240000D01*
X108280D01*
X31720Y208032D02*
Y211968D01*
X33688D01*
X34344Y211312D01*
Y210000D01*
X33688Y209344D01*
X31720D01*
X33032D02*
X34344Y208032D01*
X38280D02*
X35656D01*
X38280Y210656D01*
Y211312D01*
X37624Y211968D01*
X36312D01*
X35656Y211312D01*
X47376Y218032D02*
Y221968D01*
X49344D01*
X50000Y221312D01*
Y220000D01*
X49344Y219344D01*
X47376D01*
X48688D02*
X50000Y218032D01*
X51312D02*
X52624D01*
X51968D01*
Y221968D01*
X51312Y221312D01*
X195600Y192136D02*
Y188856D01*
X196256Y188200D01*
X197568D01*
X198224Y188856D01*
Y192136D01*
X202160Y188200D02*
X199536D01*
X202160Y190824D01*
Y191480D01*
X201504Y192136D01*
X200192D01*
X199536Y191480D01*
D11*
X163740Y111122D02*
G03*
X163740Y111122I-394J0D01*
G01*
X895394Y150827D02*
G03*
X895394Y150827I-394J0D01*
G01*
Y190827D02*
G03*
X895394Y190827I-394J0D01*
G01*
X414724Y135000D02*
G03*
X414724Y135000I-394J0D01*
G01*
X734724Y115000D02*
G03*
X734724Y115000I-394J0D01*
G01*
X275571Y135000D02*
G03*
X275571Y135000I-394J0D01*
G01*
X50394Y184823D02*
G03*
X50394Y184823I-394J0D01*
G01*
X130571Y505000D02*
G03*
X130571Y505000I-394J0D01*
G01*
X465571Y510000D02*
G03*
X465571Y510000I-394J0D01*
G01*
X800394Y160748D02*
G03*
X800394Y160748I-394J0D01*
G01*
X860217Y130000D02*
G03*
X860217Y130000I-394J0D01*
G01*
X660394Y189823D02*
G03*
X660394Y189823I-394J0D01*
G01*
X705394D02*
G03*
X705394Y189823I-394J0D01*
G01*
X505571Y195000D02*
G03*
X505571Y195000I-394J0D01*
G01*
X694567Y320000D02*
G03*
X694567Y320000I-394J0D01*
G01*
X734567Y240000D02*
G03*
X734567Y240000I-394J0D01*
G01*
X719567Y360000D02*
G03*
X719567Y360000I-394J0D01*
G01*
X564646Y320000D02*
G03*
X564646Y320000I-394J0D01*
G01*
X579724Y365000D02*
G03*
X579724Y365000I-394J0D01*
G01*
X498740Y111122D02*
G03*
X498740Y111122I-394J0D01*
G01*
X230394Y184823D02*
G03*
X230394Y184823I-394J0D01*
G01*
X317165Y111122D02*
G03*
X317165Y111122I-394J0D01*
G01*
X409685Y180315D02*
G03*
X409685Y180315I-394J0D01*
G01*
X399685Y219685D02*
G03*
X399685Y219685I-394J0D01*
G01*
X284685Y185315D02*
G03*
X284685Y185315I-394J0D01*
G01*
X424862Y310000D02*
G03*
X424862Y310000I-394J0D01*
G01*
X474685Y314685D02*
G03*
X474685Y314685I-394J0D01*
G01*
X484685Y275315D02*
G03*
X484685Y275315I-394J0D01*
G01*
X404685D02*
G03*
X404685Y275315I-394J0D01*
G01*
X389685D02*
G03*
X389685Y275315I-394J0D01*
G01*
X329232Y310000D02*
G03*
X329232Y310000I-394J0D01*
G01*
X309685Y280315D02*
G03*
X309685Y280315I-394J0D01*
G01*
X309232Y225000D02*
G03*
X309232Y225000I-394J0D01*
G01*
X419862Y215000D02*
G03*
X419862Y215000I-394J0D01*
G01*
X355492Y440000D02*
G03*
X355492Y440000I-394J0D01*
G01*
X319685Y319685D02*
G03*
X319685Y319685I-394J0D01*
G01*
X379685Y314685D02*
G03*
X379685Y314685I-394J0D01*
G01*
X434862Y380000D02*
G03*
X434862Y380000I-394J0D01*
G01*
X294685Y224685D02*
G03*
X294685Y224685I-394J0D01*
G01*
X414685Y314685D02*
G03*
X414685Y314685I-394J0D01*
G01*
X28740Y111122D02*
G03*
X28740Y111122I-394J0D01*
G01*
X170709Y443110D02*
X209291D01*
Y406890D02*
Y443110D01*
X170709Y406890D02*
X209291D01*
X170709D02*
Y443110D01*
Y383110D02*
X209291D01*
Y346890D02*
Y383110D01*
X170709Y346890D02*
X209291D01*
X170709D02*
Y383110D01*
X90079Y353622D02*
X119843D01*
X130079D02*
X131654D01*
Y306378D02*
Y353622D01*
X90079Y306378D02*
X119843D01*
X130079D02*
X131654D01*
X90118Y463622D02*
X119882D01*
X130118D02*
X131693D01*
Y416378D02*
Y463622D01*
X90118Y416378D02*
X119882D01*
X130118D02*
X131693D01*
X130079Y361378D02*
X131654D01*
X90079D02*
X119843D01*
X131654D02*
Y408622D01*
X130079D02*
X131654D01*
X90079D02*
X119843D01*
D12*
X907402Y135079D02*
G03*
X907402Y135079I-12402J0D01*
G01*
Y175079D02*
G03*
X907402Y175079I-12402J0D01*
G01*
X442480Y135000D02*
G03*
X442480Y135000I-12402J0D01*
G01*
X762480Y115000D02*
G03*
X762480Y115000I-12402J0D01*
G01*
X812402Y145000D02*
G03*
X812402Y145000I-12402J0D01*
G01*
X580284Y285968D02*
G03*
X599866Y286139I9766J2986D01*
G01*
X599158Y293695D02*
G03*
X596571Y296947I-7582J-3376D01*
G01*
X583469Y296951D02*
G03*
X580882Y293699I4995J-6628D01*
G01*
X695284Y285968D02*
G03*
X714866Y286139I9766J2986D01*
G01*
X714158Y293695D02*
G03*
X711571Y296947I-7582J-3376D01*
G01*
X698469Y296951D02*
G03*
X695882Y293699I4995J-6628D01*
G01*
X722323Y320000D02*
G03*
X722323Y320000I-12402J0D01*
G01*
X665284Y285968D02*
G03*
X684867Y286139I9766J2986D01*
G01*
X684158Y293695D02*
G03*
X681571Y296947I-7582J-3376D01*
G01*
X668469Y296951D02*
G03*
X665882Y293699I4995J-6628D01*
G01*
X610284Y285968D02*
G03*
X629867Y286139I9766J2986D01*
G01*
X629158Y293695D02*
G03*
X626571Y296947I-7582J-3376D01*
G01*
X613469Y296951D02*
G03*
X610882Y293699I4995J-6628D01*
G01*
X762323Y240000D02*
G03*
X762323Y240000I-12402J0D01*
G01*
X689716Y320676D02*
G03*
X670133Y320505I-9766J-2986D01*
G01*
X670842Y312949D02*
G03*
X673429Y309697I7582J3376D01*
G01*
X686531Y309693D02*
G03*
X689118Y312945I-4995J6628D01*
G01*
X747323Y360000D02*
G03*
X747323Y360000I-12402J0D01*
G01*
X592402Y320000D02*
G03*
X592402Y320000I-12402J0D01*
G01*
X619716Y320676D02*
G03*
X600134Y320505I-9766J-2986D01*
G01*
X600842Y312949D02*
G03*
X603429Y309697I7582J3376D01*
G01*
X616531Y309693D02*
G03*
X619118Y312945I-4995J6628D01*
G01*
X607480Y365000D02*
G03*
X607480Y365000I-12402J0D01*
G01*
X167756Y138878D02*
X262244D01*
Y99508D02*
Y138878D01*
X167756Y99508D02*
Y138878D01*
X282500Y101122D02*
X307500D01*
X282500Y138878D02*
X307500D01*
X16122Y152500D02*
Y177500D01*
X53878Y152500D02*
Y177500D01*
X565000Y508386D02*
X570118D01*
X559882D02*
X565000D01*
X559882Y481614D02*
Y508386D01*
Y481614D02*
X565000D01*
X570118D01*
Y508386D01*
X565000D02*
Y513031D01*
Y476968D02*
Y481614D01*
X137500Y471122D02*
X162500D01*
X137500Y508878D02*
X162500D01*
X220000Y503386D02*
X225118D01*
X214882D02*
X220000D01*
X214882Y476614D02*
Y503386D01*
Y476614D02*
X220000D01*
X225118D01*
Y503386D01*
X220000D02*
Y508032D01*
Y471969D02*
Y476614D01*
X184882D02*
X190000D01*
X195118D01*
Y503386D01*
X190000D02*
X195118D01*
X184882D02*
X190000D01*
X184882Y476614D02*
Y503386D01*
X190000Y471969D02*
Y476614D01*
Y503386D02*
Y508032D01*
X199882Y476614D02*
X205000D01*
X210118D01*
Y503386D01*
X205000D02*
X210118D01*
X199882D02*
X205000D01*
X199882Y476614D02*
Y503386D01*
X205000Y471969D02*
Y476614D01*
Y503386D02*
Y508032D01*
X169882Y476614D02*
X175000D01*
X180118D01*
Y503386D01*
X175000D02*
X180118D01*
X169882D02*
X175000D01*
X169882Y476614D02*
Y503386D01*
X175000Y471969D02*
Y476614D01*
Y503386D02*
Y508032D01*
X472500Y476122D02*
X497500D01*
X472500Y513878D02*
X497500D01*
X544882Y481614D02*
X550000D01*
X555118D01*
Y508386D01*
X550000D02*
X555118D01*
X544882D02*
X550000D01*
X544882Y481614D02*
Y508386D01*
X550000Y476968D02*
Y481614D01*
Y508386D02*
Y513031D01*
X535000Y508386D02*
X540118D01*
X529882D02*
X535000D01*
X529882Y481614D02*
Y508386D01*
Y481614D02*
X535000D01*
X540118D01*
Y508386D01*
X535000D02*
Y513031D01*
Y476968D02*
Y481614D01*
X514882D02*
X520000D01*
X525118D01*
Y508386D01*
X520000D02*
X525118D01*
X514882D02*
X520000D01*
X514882Y481614D02*
Y508386D01*
X520000Y476968D02*
Y481614D01*
Y508386D02*
Y513031D01*
X653386Y349882D02*
Y355000D01*
Y360118D01*
X626614D02*
X653386D01*
X626614Y355000D02*
Y360118D01*
Y349882D02*
Y355000D01*
Y349882D02*
X653386D01*
Y355000D02*
X658032D01*
X621969D02*
X626614D01*
X653386Y364882D02*
Y370000D01*
Y375118D01*
X626614D02*
X653386D01*
X626614Y370000D02*
Y375118D01*
Y364882D02*
Y370000D01*
Y364882D02*
X653386D01*
Y370000D02*
X658032D01*
X621969D02*
X626614D01*
X676614Y385000D02*
Y390118D01*
Y379882D02*
Y385000D01*
Y379882D02*
X703386D01*
Y385000D01*
Y390118D01*
X676614D02*
X703386D01*
X671969Y385000D02*
X676614D01*
X703386D02*
X708032D01*
X676614Y370000D02*
Y375118D01*
Y364882D02*
Y370000D01*
Y364882D02*
X703386D01*
Y370000D01*
Y375118D01*
X676614D02*
X703386D01*
X671969Y370000D02*
X676614D01*
X703386D02*
X708032D01*
X676614Y355000D02*
Y360118D01*
Y349882D02*
Y355000D01*
Y349882D02*
X703386D01*
Y355000D01*
Y360118D01*
X676614D02*
X703386D01*
X671969Y355000D02*
X676614D01*
X703386D02*
X708032D01*
X661614Y245000D02*
Y250118D01*
Y239882D02*
Y245000D01*
Y239882D02*
X688386D01*
Y245000D01*
Y250118D01*
X661614D02*
X688386D01*
X656968Y245000D02*
X661614D01*
X688386D02*
X693032D01*
X611614D02*
Y250118D01*
Y239882D02*
Y245000D01*
Y239882D02*
X638386D01*
Y245000D01*
Y250118D01*
X611614D02*
X638386D01*
X606968Y245000D02*
X611614D01*
X638386D02*
X643032D01*
X611614Y230000D02*
Y235118D01*
Y224882D02*
Y230000D01*
Y224882D02*
X638386D01*
Y230000D01*
Y235118D01*
X611614D02*
X638386D01*
X606968Y230000D02*
X611614D01*
X638386D02*
X643032D01*
X688386Y224882D02*
Y230000D01*
Y235118D01*
X661614D02*
X688386D01*
X661614Y230000D02*
Y235118D01*
Y224882D02*
Y230000D01*
Y224882D02*
X688386D01*
Y230000D02*
X693032D01*
X656968D02*
X661614D01*
X719882Y91614D02*
X725000D01*
X730118D01*
Y118386D01*
X725000D02*
X730118D01*
X719882D02*
X725000D01*
X719882Y91614D02*
Y118386D01*
X725000Y86968D02*
Y91614D01*
Y118386D02*
Y123031D01*
X898386Y194882D02*
Y200000D01*
Y205118D01*
X871614D02*
X898386D01*
X871614Y200000D02*
Y205118D01*
Y194882D02*
Y200000D01*
Y194882D02*
X898386D01*
Y200000D02*
X903032D01*
X866969D02*
X871614D01*
X864882Y151614D02*
X870000D01*
X875118D01*
Y178386D01*
X870000D02*
X875118D01*
X864882D02*
X870000D01*
X864882Y151614D02*
Y178386D01*
X870000Y146968D02*
Y151614D01*
Y178386D02*
Y183031D01*
X796614Y180000D02*
Y185118D01*
Y174882D02*
Y180000D01*
Y174882D02*
X823386D01*
Y180000D01*
Y185118D01*
X796614D02*
X823386D01*
X791968Y180000D02*
X796614D01*
X823386D02*
X828032D01*
X823386Y194882D02*
Y200000D01*
Y205118D01*
X796614D02*
X823386D01*
X796614Y200000D02*
Y205118D01*
Y194882D02*
Y200000D01*
Y194882D02*
X823386D01*
Y200000D02*
X828032D01*
X791968D02*
X796614D01*
X255000Y188386D02*
X260118D01*
X249882D02*
X255000D01*
X249882Y161614D02*
Y188386D01*
Y161614D02*
X255000D01*
X260118D01*
Y188386D01*
X255000D02*
Y193032D01*
Y156969D02*
Y161614D01*
X249882Y226614D02*
X255000D01*
X260118D01*
Y253386D01*
X255000D02*
X260118D01*
X249882D02*
X255000D01*
X249882Y226614D02*
Y253386D01*
X255000Y221969D02*
Y226614D01*
Y253386D02*
Y258032D01*
X201614Y205000D02*
Y210118D01*
Y199882D02*
Y205000D01*
Y199882D02*
X228386D01*
Y205000D01*
Y210118D01*
X201614D02*
X228386D01*
X196969Y205000D02*
X201614D01*
X228386D02*
X233032D01*
X201614Y230000D02*
Y235118D01*
Y224882D02*
Y230000D01*
Y224882D02*
X228386D01*
Y230000D01*
Y235118D01*
X201614D02*
X228386D01*
X196969Y230000D02*
X201614D01*
X228386D02*
X233032D01*
X201614Y255000D02*
Y260118D01*
Y249882D02*
Y255000D01*
Y249882D02*
X228386D01*
Y255000D01*
Y260118D01*
X201614D02*
X228386D01*
X196969Y255000D02*
X201614D01*
X228386D02*
X233032D01*
X70000Y188386D02*
X75118D01*
X64882D02*
X70000D01*
X64882Y161614D02*
Y188386D01*
Y161614D02*
X70000D01*
X75118D01*
Y188386D01*
X70000D02*
Y193032D01*
Y156969D02*
Y161614D01*
X827500Y163878D02*
X852500D01*
X827500Y126122D02*
X852500D01*
X583461Y296971D02*
X596539D01*
X626122Y157500D02*
Y182500D01*
X663878Y157500D02*
Y182500D01*
X671122Y157500D02*
Y182500D01*
X708878Y157500D02*
Y182500D01*
X704882Y91614D02*
X710000D01*
X715118D01*
Y118386D01*
X710000D02*
X715118D01*
X704882D02*
X710000D01*
X704882Y91614D02*
Y118386D01*
X710000Y86968D02*
Y91614D01*
Y118386D02*
Y123031D01*
X549882Y161614D02*
X555000D01*
X560118D01*
Y188386D01*
X555000D02*
X560118D01*
X549882D02*
X555000D01*
X549882Y161614D02*
Y188386D01*
X555000Y156968D02*
Y161614D01*
Y188386D02*
Y193032D01*
X512500Y161122D02*
X537500D01*
X512500Y198878D02*
X537500D01*
X564882Y161614D02*
X570000D01*
X575118D01*
Y188386D01*
X570000D02*
X575118D01*
X564882D02*
X570000D01*
X564882Y161614D02*
Y188386D01*
X570000Y156968D02*
Y161614D01*
Y188386D02*
Y193032D01*
X604882Y161614D02*
X610000D01*
X615118D01*
Y188386D01*
X610000D02*
X615118D01*
X604882D02*
X610000D01*
X604882Y161614D02*
Y188386D01*
X610000Y156968D02*
Y161614D01*
Y188386D02*
Y193032D01*
X589882Y161614D02*
X595000D01*
X600118D01*
Y188386D01*
X595000D02*
X600118D01*
X589882D02*
X595000D01*
X589882Y161614D02*
Y188386D01*
X595000Y156968D02*
Y161614D01*
Y188386D02*
Y193032D01*
X744882Y291614D02*
X750000D01*
X755118D01*
Y318386D01*
X750000D02*
X755118D01*
X744882D02*
X750000D01*
X744882Y291614D02*
Y318386D01*
X750000Y286968D02*
Y291614D01*
Y318386D02*
Y323031D01*
X698461Y296971D02*
X711539D01*
X735000Y318386D02*
X740118D01*
X729882D02*
X735000D01*
X729882Y291614D02*
Y318386D01*
Y291614D02*
X735000D01*
X740118D01*
Y318386D01*
X735000D02*
Y323031D01*
Y286968D02*
Y291614D01*
X668461Y296971D02*
X681539D01*
X613461D02*
X626539D01*
X669882Y91614D02*
X675000D01*
X680118D01*
Y118386D01*
X675000D02*
X680118D01*
X669882D02*
X675000D01*
X669882Y91614D02*
Y118386D01*
X675000Y86968D02*
Y91614D01*
Y118386D02*
Y123031D01*
X719882Y211614D02*
X725000D01*
X730118D01*
Y238386D01*
X725000D02*
X730118D01*
X719882D02*
X725000D01*
X719882Y211614D02*
Y238386D01*
X725000Y206968D02*
Y211614D01*
Y238386D02*
Y243032D01*
X704882Y211614D02*
X710000D01*
X715118D01*
Y238386D01*
X710000D02*
X715118D01*
X704882D02*
X710000D01*
X704882Y211614D02*
Y238386D01*
X710000Y206968D02*
Y211614D01*
Y238386D02*
Y243032D01*
X564882Y226614D02*
X570000D01*
X575118D01*
Y253386D01*
X570000D02*
X575118D01*
X564882D02*
X570000D01*
X564882Y226614D02*
Y253386D01*
X570000Y221969D02*
Y226614D01*
Y253386D02*
Y258032D01*
X579882Y226614D02*
X585000D01*
X590118D01*
Y253386D01*
X585000D02*
X590118D01*
X579882D02*
X585000D01*
X579882Y226614D02*
Y253386D01*
X585000Y221969D02*
Y226614D01*
Y253386D02*
Y258032D01*
X695000Y118386D02*
X700118D01*
X689882D02*
X695000D01*
X689882Y91614D02*
Y118386D01*
Y91614D02*
X695000D01*
X700118D01*
Y118386D01*
X695000D02*
Y123031D01*
Y86968D02*
Y91614D01*
X660000Y118386D02*
X665118D01*
X654882D02*
X660000D01*
X654882Y91614D02*
Y118386D01*
Y91614D02*
X660000D01*
X665118D01*
Y118386D01*
X660000D02*
Y123031D01*
Y86968D02*
Y91614D01*
X624882D02*
X630000D01*
X635118D01*
Y118386D01*
X630000D02*
X635118D01*
X624882D02*
X630000D01*
X624882Y91614D02*
Y118386D01*
X630000Y86968D02*
Y91614D01*
Y118386D02*
Y123031D01*
X673461Y309673D02*
X686539D01*
X639882Y91614D02*
X645000D01*
X650118D01*
Y118386D01*
X645000D02*
X650118D01*
X639882D02*
X645000D01*
X639882Y91614D02*
Y118386D01*
X645000Y86968D02*
Y91614D01*
Y118386D02*
Y123031D01*
X603461Y309673D02*
X616539D01*
X609882Y91614D02*
X615000D01*
X620118D01*
Y118386D01*
X615000D02*
X620118D01*
X609882D02*
X615000D01*
X609882Y91614D02*
Y118386D01*
X615000Y86968D02*
Y91614D01*
Y118386D02*
Y123031D01*
X639882Y291614D02*
X645000D01*
X650118D01*
Y318386D01*
X645000D02*
X650118D01*
X639882D02*
X645000D01*
X639882Y291614D02*
Y318386D01*
X645000Y286968D02*
Y291614D01*
Y318386D02*
Y323031D01*
X502756Y138878D02*
X597244D01*
Y99508D02*
Y138878D01*
X502756Y99508D02*
Y138878D01*
X196122Y152500D02*
Y177500D01*
X233878Y152500D02*
Y177500D01*
X321181Y99508D02*
Y138878D01*
X415669Y99508D02*
Y138878D01*
X321181D02*
X415669D01*
X306260Y165000D02*
X310906D01*
X337677D02*
X342323D01*
X310906Y159882D02*
X337677D01*
X310906D02*
Y165000D01*
Y170118D01*
X337677D01*
Y165000D02*
Y170118D01*
Y159882D02*
Y165000D01*
X431260D02*
X435906D01*
X462677D02*
X467323D01*
X435906Y159882D02*
X462677D01*
X435906D02*
Y165000D01*
Y170118D01*
X462677D01*
Y165000D02*
Y170118D01*
Y159882D02*
Y165000D01*
X405906Y192510D02*
Y207490D01*
X412677D01*
Y192510D02*
Y207490D01*
X405906Y192510D02*
X412677D01*
X402677D02*
Y207490D01*
X395906Y192510D02*
X402677D01*
X395906D02*
Y207490D01*
X402677D01*
X280906Y197510D02*
Y212490D01*
X287677D01*
Y197510D02*
Y212490D01*
X280906Y197510D02*
X287677D01*
X331260Y260000D02*
X335906D01*
X362677D02*
X367323D01*
X335906Y254882D02*
X362677D01*
X335906D02*
Y260000D01*
Y265118D01*
X362677D01*
Y260000D02*
Y265118D01*
Y254882D02*
Y260000D01*
X331260Y245000D02*
X335906D01*
X362677D02*
X367323D01*
X335906Y239882D02*
X362677D01*
X335906D02*
Y245000D01*
Y250118D01*
X362677D01*
Y245000D02*
Y250118D01*
Y239882D02*
Y245000D01*
X426260Y265000D02*
X430906D01*
X457677D02*
X462323D01*
X430906Y259882D02*
X457677D01*
X430906D02*
Y265000D01*
Y270118D01*
X457677D01*
Y265000D02*
Y270118D01*
Y259882D02*
Y265000D01*
X431791Y276122D02*
X456791D01*
X431791Y313878D02*
X456791D01*
X457677Y250000D02*
X462323D01*
X426260D02*
X430906D01*
Y255118D02*
X457677D01*
Y250000D02*
Y255118D01*
Y244882D02*
Y250000D01*
X430906Y244882D02*
X457677D01*
X430906D02*
Y250000D01*
Y255118D01*
X389291Y346969D02*
Y351614D01*
Y378386D02*
Y383032D01*
X394410Y351614D02*
Y378386D01*
X389291Y351614D02*
X394410D01*
X384173D02*
X389291D01*
X384173D02*
Y378386D01*
X389291D01*
X394410D01*
X404291D02*
Y383032D01*
Y346969D02*
Y351614D01*
X399173D02*
Y378386D01*
X404291D01*
X409410D01*
Y351614D02*
Y378386D01*
X404291Y351614D02*
X409410D01*
X399173D02*
X404291D01*
X477677Y287510D02*
Y302490D01*
X470906Y287510D02*
X477677D01*
X470906D02*
Y302490D01*
X477677D01*
X480906Y287510D02*
Y302490D01*
X487677D01*
Y287510D02*
Y302490D01*
X480906Y287510D02*
X487677D01*
X462677Y330000D02*
X467323D01*
X431260D02*
X435906D01*
Y335118D02*
X462677D01*
Y330000D02*
Y335118D01*
Y324882D02*
Y330000D01*
X435906Y324882D02*
X462677D01*
X435906D02*
Y330000D01*
Y335118D01*
X400906Y287510D02*
Y302490D01*
X407677D01*
Y287510D02*
Y302490D01*
X400906Y287510D02*
X407677D01*
X385906D02*
Y302490D01*
X392677D01*
Y287510D02*
Y302490D01*
X385906Y287510D02*
X392677D01*
X336161Y276122D02*
X361161D01*
X336161Y313878D02*
X361161D01*
X305906Y292510D02*
Y307490D01*
X312677D01*
Y292510D02*
Y307490D01*
X305906Y292510D02*
X312677D01*
X118386Y224882D02*
Y230000D01*
Y235118D01*
X91614D02*
X118386D01*
X91614Y230000D02*
Y235118D01*
Y224882D02*
Y230000D01*
Y224882D02*
X118386D01*
Y230000D02*
X123032D01*
X86969D02*
X91614D01*
X26614Y200000D02*
Y205118D01*
Y194882D02*
Y200000D01*
Y194882D02*
X53386D01*
Y200000D01*
Y205118D01*
X26614D02*
X53386D01*
X21969Y200000D02*
X26614D01*
X53386D02*
X58032D01*
X36614Y230000D02*
Y235118D01*
Y224882D02*
Y230000D01*
Y224882D02*
X63386D01*
Y230000D01*
Y235118D01*
X36614D02*
X63386D01*
X31969Y230000D02*
X36614D01*
X63386D02*
X68032D01*
X316161Y191122D02*
X341161D01*
X316161Y228878D02*
X341161D01*
X426791Y181122D02*
X451791D01*
X426791Y218878D02*
X451791D01*
X324291Y433386D02*
Y438032D01*
Y401969D02*
Y406614D01*
X319173D02*
Y433386D01*
X324291D01*
X329410D01*
Y406614D02*
Y433386D01*
X324291Y406614D02*
X329410D01*
X319173D02*
X324291D01*
X362421Y406122D02*
X387421D01*
X362421Y443878D02*
X387421D01*
X339291Y401969D02*
Y406614D01*
Y433386D02*
Y438032D01*
X344410Y406614D02*
Y433386D01*
X339291Y406614D02*
X344410D01*
X334173D02*
X339291D01*
X334173D02*
Y433386D01*
X339291D01*
X344410D01*
X414291Y406969D02*
Y411614D01*
Y438386D02*
Y443032D01*
X419410Y411614D02*
Y438386D01*
X414291Y411614D02*
X419410D01*
X409173D02*
X414291D01*
X409173D02*
Y438386D01*
X414291D01*
X419410D01*
X429291D02*
Y443032D01*
Y406969D02*
Y411614D01*
X424173D02*
Y438386D01*
X429291D01*
X434410D01*
Y411614D02*
Y438386D01*
X429291Y411614D02*
X434410D01*
X424173D02*
X429291D01*
X322677Y292510D02*
Y307490D01*
X315906Y292510D02*
X322677D01*
X315906D02*
Y307490D01*
X322677D01*
X309291Y401969D02*
Y406614D01*
Y433386D02*
Y438032D01*
X314410Y406614D02*
Y433386D01*
X309291Y406614D02*
X314410D01*
X304173D02*
X309291D01*
X304173D02*
Y433386D01*
X309291D01*
X314410D01*
X379291Y181969D02*
Y186614D01*
Y213386D02*
Y218032D01*
X384410Y186614D02*
Y213386D01*
X379291Y186614D02*
X384410D01*
X374173D02*
X379291D01*
X374173D02*
Y213386D01*
X379291D01*
X384410D01*
X364291Y181969D02*
Y186614D01*
Y213386D02*
Y218032D01*
X369410Y186614D02*
Y213386D01*
X364291Y186614D02*
X369410D01*
X359173D02*
X364291D01*
X359173D02*
Y213386D01*
X364291D01*
X369410D01*
X444291Y406969D02*
Y411614D01*
Y438386D02*
Y443032D01*
X449410Y411614D02*
Y438386D01*
X444291Y411614D02*
X449410D01*
X439173D02*
X444291D01*
X439173D02*
Y438386D01*
X444291D01*
X449410D01*
X382677Y287510D02*
Y302490D01*
X375906Y287510D02*
X382677D01*
X375906D02*
Y302490D01*
X382677D01*
X441791Y346122D02*
X466791D01*
X441791Y383878D02*
X466791D01*
X297677Y197510D02*
Y212490D01*
X290906Y197510D02*
X297677D01*
X290906D02*
Y212490D01*
X297677D01*
X417677Y287510D02*
Y302490D01*
X410906Y287510D02*
X417677D01*
X410906D02*
Y302490D01*
X417677D01*
X367677Y330000D02*
X372323D01*
X336260D02*
X340906D01*
Y335118D02*
X367677D01*
Y330000D02*
Y335118D01*
Y324882D02*
Y330000D01*
X340906Y324882D02*
X367677D01*
X340906D02*
Y330000D01*
Y335118D01*
X484291Y181969D02*
Y186614D01*
Y213386D02*
Y218032D01*
X489410Y186614D02*
Y213386D01*
X484291Y186614D02*
X489410D01*
X479173D02*
X484291D01*
X479173D02*
Y213386D01*
X484291D01*
X489410D01*
X469291Y181969D02*
Y186614D01*
Y213386D02*
Y218032D01*
X474410Y186614D02*
Y213386D01*
X469291Y186614D02*
X474410D01*
X464173D02*
X469291D01*
X464173D02*
Y213386D01*
X469291D01*
X474410D01*
X32756Y138878D02*
X127244D01*
Y99508D02*
Y138878D01*
X32756Y99508D02*
Y138878D01*
D13*
X22874Y80000D02*
G03*
X22874Y80000I-7874J0D01*
G01*
X302874D02*
G03*
X302874Y80000I-7874J0D01*
G01*
X767874D02*
G03*
X767874Y80000I-7874J0D01*
G01*
X907874D02*
G03*
X907874Y80000I-7874J0D01*
G01*
X777874Y270000D02*
G03*
X777874Y270000I-7874J0D01*
G01*
X357874Y370000D02*
G03*
X357874Y370000I-7874J0D01*
G01*
X22874Y515000D02*
G03*
X22874Y515000I-7874J0D01*
G01*
X742874Y475000D02*
G03*
X742874Y475000I-7874J0D01*
G01*
X907874D02*
G03*
X907874Y475000I-7874J0D01*
G01*
X22874Y515000D02*
G03*
X22874Y515000I-7874J0D01*
G01*
Y80000D02*
G03*
X22874Y80000I-7874J0D01*
G01*
X777874Y270000D02*
G03*
X777874Y270000I-7874J0D01*
G01*
X907874Y80000D02*
G03*
X907874Y80000I-7874J0D01*
G01*
X767874D02*
G03*
X767874Y80000I-7874J0D01*
G01*
X302874D02*
G03*
X302874Y80000I-7874J0D01*
G01*
X357874Y370000D02*
G03*
X357874Y370000I-7874J0D01*
G01*
X742874Y475000D02*
G03*
X742874Y475000I-7874J0D01*
G01*
X907874D02*
G03*
X907874Y475000I-7874J0D01*
G01*
D14*
X169331Y436811D02*
G03*
X169331Y436811I-492J0D01*
G01*
Y376811D02*
G03*
X169331Y376811I-492J0D01*
G01*
X134508Y330000D02*
G03*
X134508Y330000I-492J0D01*
G01*
X134547Y440000D02*
G03*
X134547Y440000I-492J0D01*
G01*
X134508Y385000D02*
G03*
X134508Y385000I-492J0D01*
G01*
D15*
X607486Y290581D02*
G03*
X607486Y290581I-557J0D01*
G01*
X722486D02*
G03*
X722486Y290581I-557J0D01*
G01*
X692486D02*
G03*
X692486Y290581I-557J0D01*
G01*
X637486D02*
G03*
X637486Y290581I-557J0D01*
G01*
X663628Y316063D02*
G03*
X663628Y316063I-557J0D01*
G01*
X593628D02*
G03*
X593628Y316063I-557J0D01*
G01*
D16*
X910000Y460000D02*
X915000D01*
X0Y65000D02*
Y90000D01*
X135000Y65000D02*
Y80000D01*
X495000Y65000D02*
X780000D01*
X0D02*
X265000D01*
X135000Y75000D02*
Y305000D01*
X265000Y65000D02*
X495000D01*
X265000Y65185D02*
Y315000D01*
X0Y70000D02*
Y305000D01*
X495000Y325000D02*
X560000D01*
Y395000D01*
X565000Y400000D01*
X780000D01*
X135000Y315000D02*
Y465000D01*
X720000Y460000D02*
X910000D01*
X0Y465000D02*
X240000D01*
X720000Y460000D02*
Y530000D01*
X495000Y465000D02*
X720000D01*
X780000Y60000D02*
Y75000D01*
Y275000D02*
X915000D01*
X780000Y65088D02*
Y400000D01*
X235000Y315000D02*
X240000D01*
Y465000D01*
X495000D01*
X240000D02*
X495000D01*
Y60088D02*
Y465000D01*
X135000Y315000D02*
X265000D01*
X135000Y305000D02*
Y315000D01*
X0Y305000D02*
X140000D01*
X879999Y271998D02*
Y266000D01*
X877000D01*
X876000Y267000D01*
Y268999D01*
X877000Y269999D01*
X879999D01*
X881998Y266000D02*
X883997D01*
X882998D01*
Y269999D01*
X881998D01*
X887996Y266000D02*
Y270998D01*
Y268999D01*
X886996D01*
X888996D01*
X887996D01*
Y270998D01*
X888996Y271998D01*
X892994Y266000D02*
Y270998D01*
Y268999D01*
X891995D01*
X893994D01*
X892994D01*
Y270998D01*
X893994Y271998D01*
X806000D02*
X807999D01*
X807000D01*
Y266000D01*
X806000D01*
X807999D01*
X810998D02*
Y269999D01*
X813997D01*
X814997Y268999D01*
Y266000D01*
X817996Y270998D02*
Y269999D01*
X816996D01*
X818996D01*
X817996D01*
Y267000D01*
X818996Y266000D01*
X846248Y397560D02*
X844936Y398871D01*
X842312D01*
X841000Y397560D01*
Y392312D01*
X842312Y391000D01*
X844936D01*
X846248Y392312D01*
Y394936D01*
X843624D01*
X848872Y391000D02*
Y398871D01*
X854119Y391000D01*
Y398871D01*
X856743D02*
Y391000D01*
X860679D01*
X861991Y392312D01*
Y397560D01*
X860679Y398871D01*
X856743D01*
X769002Y354999D02*
X768002Y353999D01*
Y352000D01*
X769002Y351000D01*
X773000D01*
X774000Y352000D01*
Y353999D01*
X773000Y354999D01*
X774000Y359997D02*
Y357998D01*
X773000Y356998D01*
X771001D01*
X770001Y357998D01*
Y359997D01*
X771001Y360997D01*
X772001D01*
Y356998D01*
X774000Y362996D02*
Y364996D01*
Y363996D01*
X768002D01*
Y362996D01*
X774000Y367994D02*
Y369994D01*
Y368994D01*
X768002D01*
Y367994D01*
X759002Y354999D02*
X758002Y353999D01*
Y352000D01*
X759002Y351000D01*
X763000D01*
X764000Y352000D01*
Y353999D01*
X763000Y354999D01*
X761001D01*
Y352999D01*
X764000Y356998D02*
Y358997D01*
Y357998D01*
X760001D01*
Y356998D01*
X764000Y361996D02*
Y363996D01*
Y362996D01*
X758002D01*
Y361996D01*
Y366995D02*
X764000D01*
Y369994D01*
X763000Y370993D01*
X762001D01*
X761001D01*
X760001Y369994D01*
Y366995D01*
X764000Y375992D02*
Y373993D01*
X763000Y372993D01*
X761001D01*
X760001Y373993D01*
Y375992D01*
X761001Y376992D01*
X762001D01*
Y372993D01*
X760001Y378991D02*
X764000D01*
X762001D01*
X761001Y379991D01*
X760001Y380990D01*
Y381990D01*
X759002Y385989D02*
X760001D01*
Y384989D01*
Y386988D01*
Y385989D01*
X763000D01*
X764000Y386988D01*
X287001Y251000D02*
X281003D01*
X283002Y252999D01*
X281003Y254999D01*
X287001D01*
X283002Y256998D02*
X286001D01*
X287001Y257998D01*
Y260997D01*
X283002D01*
X287001Y262996D02*
Y264996D01*
Y263996D01*
X281003D01*
Y262996D01*
X282002Y268994D02*
X283002D01*
Y267994D01*
Y269994D01*
Y268994D01*
X286001D01*
X287001Y269994D01*
Y272993D02*
Y274992D01*
Y273993D01*
X283002D01*
Y272993D01*
X289000Y277991D02*
X283002D01*
Y280990D01*
X284002Y281990D01*
X286001D01*
X287001Y280990D01*
Y277991D01*
Y283989D02*
Y285989D01*
Y284989D01*
X281003D01*
Y283989D01*
X287001Y288988D02*
Y290987D01*
Y289987D01*
X283002D01*
Y288988D01*
X287001Y296985D02*
Y294986D01*
X286001Y293986D01*
X284002D01*
X283002Y294986D01*
Y296985D01*
X284002Y297985D01*
X285001D01*
Y293986D01*
X283002Y299984D02*
X287001D01*
X285001D01*
X284002Y300984D01*
X283002Y301983D01*
Y302983D01*
X271003Y266000D02*
X277001D01*
Y269999D01*
Y272998D02*
Y274997D01*
X276001Y275997D01*
X274002D01*
X273002Y274997D01*
Y272998D01*
X274002Y271998D01*
X276001D01*
X277001Y272998D01*
X279000Y279995D02*
Y280995D01*
X278000Y281995D01*
X273002D01*
Y278996D01*
X274002Y277996D01*
X276001D01*
X277001Y278996D01*
Y281995D01*
X171000Y326000D02*
Y331998D01*
X173999D01*
X174999Y330998D01*
Y328999D01*
X173999Y327999D01*
X171000D01*
X179997Y331998D02*
X177998D01*
X176998Y330998D01*
Y327000D01*
X177998Y326000D01*
X179997D01*
X180997Y327000D01*
Y330998D01*
X179997Y331998D01*
X182996D02*
Y326000D01*
X184995Y327999D01*
X186995Y326000D01*
Y331998D01*
X192993D02*
X188994D01*
Y326000D01*
X192993D01*
X188994Y328999D02*
X190993D01*
X194992Y326000D02*
Y331998D01*
X197991D01*
X198991Y330998D01*
Y328999D01*
X197991Y327999D01*
X194992D01*
X196992D02*
X198991Y326000D01*
X101000Y146000D02*
Y149999D01*
X102999Y151998D01*
X104999Y149999D01*
Y146000D01*
Y148999D01*
X101000D01*
X110997Y151998D02*
Y146000D01*
X107998D01*
X106998Y147000D01*
Y148999D01*
X107998Y149999D01*
X110997D01*
X116995Y151998D02*
Y146000D01*
X113996D01*
X112996Y147000D01*
Y148999D01*
X113996Y149999D01*
X116995D01*
X121993Y146000D02*
X119994D01*
X118994Y147000D01*
Y148999D01*
X119994Y149999D01*
X121993D01*
X122993Y148999D01*
Y147999D01*
X118994D01*
X124992Y149999D02*
Y146000D01*
Y147999D01*
X125992Y148999D01*
X126992Y149999D01*
X127991D01*
X204999Y300998D02*
X203999Y301998D01*
X202000D01*
X201000Y300998D01*
Y299999D01*
X202000Y298999D01*
X203999D01*
X204999Y297999D01*
Y297000D01*
X203999Y296000D01*
X202000D01*
X201000Y297000D01*
X206998Y299999D02*
Y297000D01*
X207998Y296000D01*
X210997D01*
Y299999D01*
X212996Y301998D02*
Y296000D01*
X215995D01*
X216995Y297000D01*
Y297999D01*
Y298999D01*
X215995Y299999D01*
X212996D01*
X219994Y300998D02*
Y299999D01*
X218994D01*
X220993D01*
X219994D01*
Y297000D01*
X220993Y296000D01*
X223993Y299999D02*
Y296000D01*
Y297999D01*
X224992Y298999D01*
X225992Y299999D01*
X226992D01*
X230990D02*
X232990D01*
X233989Y298999D01*
Y296000D01*
X230990D01*
X229991Y297000D01*
X230990Y297999D01*
X233989D01*
X239987Y299999D02*
X236988D01*
X235989Y298999D01*
Y297000D01*
X236988Y296000D01*
X239987D01*
X242986Y300998D02*
Y299999D01*
X241987D01*
X243986D01*
X242986D01*
Y297000D01*
X243986Y296000D01*
X247985D02*
X249984D01*
X250984Y297000D01*
Y298999D01*
X249984Y299999D01*
X247985D01*
X246985Y298999D01*
Y297000D01*
X247985Y296000D01*
X252983Y299999D02*
Y296000D01*
Y297999D01*
X253983Y298999D01*
X254982Y299999D01*
X255982D01*
X418499Y156498D02*
X417499Y157498D01*
X415500D01*
X414500Y156498D01*
Y152500D01*
X415500Y151500D01*
X417499D01*
X418499Y152500D01*
X420498Y151500D02*
X422497D01*
X421498D01*
Y157498D01*
X420498Y156498D01*
X425496D02*
X426496Y157498D01*
X428496D01*
X429495Y156498D01*
Y152500D01*
X428496Y151500D01*
X426496D01*
X425496Y152500D01*
Y156498D01*
X744079Y96999D02*
X743079Y97999D01*
X741080D01*
X740080Y96999D01*
Y93001D01*
X741080Y92001D01*
X743079D01*
X744079Y93001D01*
X746078Y97999D02*
X750077D01*
Y96999D01*
X746078Y93001D01*
Y92001D01*
X172899Y391898D02*
X171899Y392898D01*
X169900D01*
X168900Y391898D01*
Y390899D01*
X169900Y389899D01*
X171899D01*
X172899Y388899D01*
Y387900D01*
X171899Y386900D01*
X169900D01*
X168900Y387900D01*
X174898Y392898D02*
Y386900D01*
X176897Y388899D01*
X178897Y386900D01*
Y392898D01*
X184895Y386900D02*
X180896D01*
X184895Y390899D01*
Y391898D01*
X183895Y392898D01*
X181896D01*
X180896Y391898D01*
X172899Y451898D02*
X171899Y452898D01*
X169900D01*
X168900Y451898D01*
Y450899D01*
X169900Y449899D01*
X171899D01*
X172899Y448899D01*
Y447900D01*
X171899Y446900D01*
X169900D01*
X168900Y447900D01*
X174898Y452898D02*
Y446900D01*
X176897Y448899D01*
X178897Y446900D01*
Y452898D01*
X180896Y446900D02*
X182896D01*
X181896D01*
Y452898D01*
X180896Y451898D01*
X130400Y518998D02*
Y514000D01*
X131400Y513000D01*
X133399D01*
X134399Y514000D01*
Y518998D01*
X136398Y513000D02*
X138397D01*
X137398D01*
Y518998D01*
X136398Y517998D01*
X145395Y518998D02*
X141396D01*
Y515999D01*
X143396Y516999D01*
X144395D01*
X145395Y515999D01*
Y514000D01*
X144395Y513000D01*
X142396D01*
X141396Y514000D01*
X465400Y523998D02*
Y519000D01*
X466400Y518000D01*
X468399D01*
X469399Y519000D01*
Y523998D01*
X471398Y518000D02*
X473397D01*
X472398D01*
Y523998D01*
X471398Y522998D01*
X479395Y518000D02*
Y523998D01*
X476396Y520999D01*
X480395D01*
X232003Y527999D02*
Y522001D01*
X235002D01*
X236001Y523001D01*
Y524000D01*
X235002Y525000D01*
X232003D01*
X235002D01*
X236001Y526000D01*
Y526999D01*
X235002Y527999D01*
X232003D01*
X238001Y524000D02*
X241999D01*
X238001Y526000D02*
X241999D01*
X243999Y526999D02*
X244998Y527999D01*
X246998D01*
X247997Y526999D01*
Y526000D01*
X246998Y525000D01*
X245998D01*
X246998D01*
X247997Y524000D01*
Y523001D01*
X246998Y522001D01*
X244998D01*
X243999Y523001D01*
X277003Y527999D02*
Y522001D01*
X280002D01*
X281001Y523001D01*
Y524000D01*
X280002Y525000D01*
X277003D01*
X280002D01*
X281001Y526000D01*
Y526999D01*
X280002Y527999D01*
X277003D01*
X283001Y524000D02*
X286999D01*
X283001Y526000D02*
X286999D01*
X292997Y522001D02*
X288999D01*
X292997Y526000D01*
Y526999D01*
X291998Y527999D01*
X289998D01*
X288999Y526999D01*
X582003Y522001D02*
Y526000D01*
X584002Y527999D01*
X586001Y526000D01*
Y522001D01*
Y525000D01*
X582003D01*
X588001Y524000D02*
X591999D01*
X588001Y526000D02*
X591999D01*
X593999Y526999D02*
X594998Y527999D01*
X596998D01*
X597997Y526999D01*
Y526000D01*
X596998Y525000D01*
X595998D01*
X596998D01*
X597997Y524000D01*
Y523001D01*
X596998Y522001D01*
X594998D01*
X593999Y523001D01*
X637003Y517001D02*
Y521000D01*
X639002Y522999D01*
X641001Y521000D01*
Y517001D01*
Y520000D01*
X637003D01*
X643001Y519000D02*
X646999D01*
X643001Y521000D02*
X646999D01*
X652997Y517001D02*
X648999D01*
X652997Y521000D01*
Y521999D01*
X651998Y522999D01*
X649998D01*
X648999Y521999D01*
X340002Y517001D02*
Y521000D01*
X342001Y522999D01*
X344000Y521000D01*
Y517001D01*
Y520000D01*
X340002D01*
X349998Y517001D02*
X346000D01*
X349998Y521000D01*
Y521999D01*
X348999Y522999D01*
X346999D01*
X346000Y521999D01*
X401001Y517001D02*
Y521000D01*
X403001Y522999D01*
X405000Y521000D01*
Y517001D01*
Y520000D01*
X401001D01*
X406999Y517001D02*
X408999D01*
X407999D01*
Y522999D01*
X406999Y521999D01*
D17*
X767362Y467362D02*
Y479169D01*
X775234Y467362D01*
Y479169D01*
X785073Y467362D02*
X781137D01*
X779169Y469330D01*
Y473266D01*
X781137Y475234D01*
X785073D01*
X787041Y473266D01*
Y471298D01*
X779169D01*
X790977Y475234D02*
Y469330D01*
X792944Y467362D01*
X798848D01*
Y475234D01*
X802784Y479169D02*
X810655D01*
X806719D01*
Y467362D01*
X814591Y475234D02*
Y467362D01*
Y471298D01*
X816559Y473266D01*
X818527Y475234D01*
X820495D01*
X828366Y467362D02*
X832302D01*
X834270Y469330D01*
Y473266D01*
X832302Y475234D01*
X828366D01*
X826398Y473266D01*
Y469330D01*
X828366Y467362D01*
X838205D02*
Y475234D01*
X844109D01*
X846077Y473266D01*
Y467362D01*
X850013D02*
X853948D01*
X851980D01*
Y475234D01*
X850013D01*
X867723D02*
X861820D01*
X859852Y473266D01*
Y469330D01*
X861820Y467362D01*
X867723D01*
M02*
