G04*
G04 #@! TF.GenerationSoftware,Altium Limited,Altium Designer,25.3.3 (18)*
G04*
G04 Layer_Color=32768*
%FSLAX25Y25*%
%MOIN*%
G70*
G04*
G04 #@! TF.SameCoordinates,B8643030-5FD7-41C3-8E4B-713DA0037FD2*
G04*
G04*
G04 #@! TF.FilePolarity,Positive*
G04*
G01*
G75*
%ADD56C,0.00197*%
D56*
X908386Y135079D02*
G03*
X908386Y135079I-13386J0D01*
G01*
Y175079D02*
G03*
X908386Y175079I-13386J0D01*
G01*
X443465Y135000D02*
G03*
X443465Y135000I-13386J0D01*
G01*
X763465Y115000D02*
G03*
X763465Y115000I-13386J0D01*
G01*
X813386Y145000D02*
G03*
X813386Y145000I-13386J0D01*
G01*
X576221Y290020D02*
G03*
X603780Y290020I13780J0D01*
G01*
X691221D02*
G03*
X718780Y290020I13780J0D01*
G01*
X723307Y320000D02*
G03*
X723307Y320000I-13386J0D01*
G01*
X661221Y290020D02*
G03*
X688779Y290020I13780J0D01*
G01*
X606220D02*
G03*
X633779Y290020I13780J0D01*
G01*
X763307Y240000D02*
G03*
X763307Y240000I-13386J0D01*
G01*
X693780Y316624D02*
G03*
X666221Y316624I-13780J0D01*
G01*
X748307Y360000D02*
G03*
X748307Y360000I-13386J0D01*
G01*
X593386Y320000D02*
G03*
X593386Y320000I-13386J0D01*
G01*
X623779Y316624D02*
G03*
X596220Y316624I-13780J0D01*
G01*
X608465Y365000D02*
G03*
X608465Y365000I-13386J0D01*
G01*
X263228Y98D02*
Y139862D01*
X166772Y98D02*
Y139862D01*
Y98D02*
X263228D01*
X166772Y139862D02*
X263228D01*
X276162Y100138D02*
Y139862D01*
X313839Y100138D02*
Y139862D01*
X276162Y100138D02*
X313839D01*
X276162Y139862D02*
X313839D01*
X15138Y183839D02*
X54862D01*
X15138Y146161D02*
X54862D01*
X15138D02*
Y183839D01*
X54862Y146161D02*
Y183839D01*
X568347Y509370D02*
Y520000D01*
Y509370D02*
X571102D01*
Y480630D02*
Y509370D01*
X568347Y480630D02*
X571102D01*
X568347Y470000D02*
Y480630D01*
X561654Y470000D02*
X568347D01*
X561654D02*
Y480630D01*
X558898D02*
X561654D01*
X558898D02*
Y509370D01*
X561654D01*
Y520000D01*
X568347D01*
X131161Y470138D02*
Y509862D01*
X168839Y470138D02*
Y509862D01*
X131161Y470138D02*
X168839D01*
X131161Y509862D02*
X168839D01*
X223346Y504370D02*
Y515000D01*
Y504370D02*
X226102D01*
Y475630D02*
Y504370D01*
X223346Y475630D02*
X226102D01*
X223346Y465000D02*
Y475630D01*
X216653Y465000D02*
X223346D01*
X216653D02*
Y475630D01*
X213898D02*
X216653D01*
X213898D02*
Y504370D01*
X216653D01*
Y515000D01*
X223346D01*
X186653Y465000D02*
Y475630D01*
X183898D02*
X186653D01*
X183898D02*
Y504370D01*
X186653D01*
Y515000D01*
X193347D01*
Y504370D02*
Y515000D01*
Y504370D02*
X196102D01*
Y475630D02*
Y504370D01*
X193347Y475630D02*
X196102D01*
X193347Y465000D02*
Y475630D01*
X186653Y465000D02*
X193347D01*
X201654D02*
Y475630D01*
X198898D02*
X201654D01*
X198898D02*
Y504370D01*
X201654D01*
Y515000D01*
X208347D01*
Y504370D02*
Y515000D01*
Y504370D02*
X211102D01*
Y475630D02*
Y504370D01*
X208347Y475630D02*
X211102D01*
X208347Y465000D02*
Y475630D01*
X201654Y465000D02*
X208347D01*
X171653D02*
Y475630D01*
X168898D02*
X171653D01*
X168898D02*
Y504370D01*
X171653D01*
Y515000D01*
X178347D01*
Y504370D02*
Y515000D01*
Y504370D02*
X181102D01*
Y475630D02*
Y504370D01*
X178347Y475630D02*
X181102D01*
X178347Y465000D02*
Y475630D01*
X171653Y465000D02*
X178347D01*
X466161Y475138D02*
Y514862D01*
X503839Y475138D02*
Y514862D01*
X466161Y475138D02*
X503839D01*
X466161Y514862D02*
X503839D01*
X546654Y470000D02*
Y480630D01*
X543898D02*
X546654D01*
X543898D02*
Y509370D01*
X546654D01*
Y520000D01*
X553346D01*
Y509370D02*
Y520000D01*
Y509370D02*
X556102D01*
Y480630D02*
Y509370D01*
X553346Y480630D02*
X556102D01*
X553346Y470000D02*
Y480630D01*
X546654Y470000D02*
X553346D01*
X538346Y509370D02*
Y520000D01*
Y509370D02*
X541102D01*
Y480630D02*
Y509370D01*
X538346Y480630D02*
X541102D01*
X538346Y470000D02*
Y480630D01*
X531653Y470000D02*
X538346D01*
X531653D02*
Y480630D01*
X528898D02*
X531653D01*
X528898D02*
Y509370D01*
X531653D01*
Y520000D01*
X538346D01*
X516653Y470000D02*
Y480630D01*
X513898D02*
X516653D01*
X513898D02*
Y509370D01*
X516653D01*
Y520000D01*
X523347D01*
Y509370D02*
Y520000D01*
Y509370D02*
X526102D01*
Y480630D02*
Y509370D01*
X523347Y480630D02*
X526102D01*
X523347Y470000D02*
Y480630D01*
X516653Y470000D02*
X523347D01*
X654370Y351654D02*
X665000D01*
X654370Y348898D02*
Y351654D01*
X625630Y348898D02*
X654370D01*
X625630D02*
Y351654D01*
X615000D02*
X625630D01*
X615000D02*
Y358347D01*
X625630D01*
Y361102D01*
X654370D01*
Y358347D02*
Y361102D01*
Y358347D02*
X665000D01*
Y351654D02*
Y358347D01*
X654370Y366653D02*
X665000D01*
X654370Y363898D02*
Y366653D01*
X625630Y363898D02*
X654370D01*
X625630D02*
Y366653D01*
X615000D02*
X625630D01*
X615000D02*
Y373346D01*
X625630D01*
Y376102D01*
X654370D01*
Y373346D02*
Y376102D01*
Y373346D02*
X665000D01*
Y366653D02*
Y373346D01*
Y388347D02*
X675630D01*
Y391102D01*
X704370D01*
Y388347D02*
Y391102D01*
Y388347D02*
X715000D01*
Y381653D02*
Y388347D01*
X704370Y381653D02*
X715000D01*
X704370Y378898D02*
Y381653D01*
X675630Y378898D02*
X704370D01*
X675630D02*
Y381653D01*
X665000D02*
X675630D01*
X665000D02*
Y388347D01*
Y373346D02*
X675630D01*
Y376102D01*
X704370D01*
Y373346D02*
Y376102D01*
Y373346D02*
X715000D01*
Y366653D02*
Y373346D01*
X704370Y366653D02*
X715000D01*
X704370Y363898D02*
Y366653D01*
X675630Y363898D02*
X704370D01*
X675630D02*
Y366653D01*
X665000D02*
X675630D01*
X665000D02*
Y373346D01*
Y358347D02*
X675630D01*
Y361102D01*
X704370D01*
Y358347D02*
Y361102D01*
Y358347D02*
X715000D01*
Y351654D02*
Y358347D01*
X704370Y351654D02*
X715000D01*
X704370Y348898D02*
Y351654D01*
X675630Y348898D02*
X704370D01*
X675630D02*
Y351654D01*
X665000D02*
X675630D01*
X665000D02*
Y358347D01*
X650000Y248346D02*
X660630D01*
Y251102D01*
X689370D01*
Y248346D02*
Y251102D01*
Y248346D02*
X700000D01*
Y241653D02*
Y248346D01*
X689370Y241653D02*
X700000D01*
X689370Y238898D02*
Y241653D01*
X660630Y238898D02*
X689370D01*
X660630D02*
Y241653D01*
X650000D02*
X660630D01*
X650000D02*
Y248346D01*
X600000D02*
X610630D01*
Y251102D01*
X639370D01*
Y248346D02*
Y251102D01*
Y248346D02*
X650000D01*
Y241653D02*
Y248346D01*
X639370Y241653D02*
X650000D01*
X639370Y238898D02*
Y241653D01*
X610630Y238898D02*
X639370D01*
X610630D02*
Y241653D01*
X600000D02*
X610630D01*
X600000D02*
Y248346D01*
Y233347D02*
X610630D01*
Y236102D01*
X639370D01*
Y233347D02*
Y236102D01*
Y233347D02*
X650000D01*
Y226654D02*
Y233347D01*
X639370Y226654D02*
X650000D01*
X639370Y223898D02*
Y226654D01*
X610630Y223898D02*
X639370D01*
X610630D02*
Y226654D01*
X600000D02*
X610630D01*
X600000D02*
Y233347D01*
X689370Y226654D02*
X700000D01*
X689370Y223898D02*
Y226654D01*
X660630Y223898D02*
X689370D01*
X660630D02*
Y226654D01*
X650000D02*
X660630D01*
X650000D02*
Y233347D01*
X660630D01*
Y236102D01*
X689370D01*
Y233347D02*
Y236102D01*
Y233347D02*
X700000D01*
Y226654D02*
Y233347D01*
X721654Y80000D02*
Y90630D01*
X718898D02*
X721654D01*
X718898D02*
Y119370D01*
X721654D01*
Y130000D01*
X728346D01*
Y119370D02*
Y130000D01*
Y119370D02*
X731102D01*
Y90630D02*
Y119370D01*
X728346Y90630D02*
X731102D01*
X728346Y80000D02*
Y90630D01*
X721654Y80000D02*
X728346D01*
X899370Y196653D02*
X910000D01*
X899370Y193898D02*
Y196653D01*
X870630Y193898D02*
X899370D01*
X870630D02*
Y196653D01*
X860000D02*
X870630D01*
X860000D02*
Y203346D01*
X870630D01*
Y206102D01*
X899370D01*
Y203346D02*
Y206102D01*
Y203346D02*
X910000D01*
Y196653D02*
Y203346D01*
X866654Y140000D02*
Y150630D01*
X863898D02*
X866654D01*
X863898D02*
Y179370D01*
X866654D01*
Y190000D01*
X873347D01*
Y179370D02*
Y190000D01*
Y179370D02*
X876102D01*
Y150630D02*
Y179370D01*
X873347Y150630D02*
X876102D01*
X873347Y140000D02*
Y150630D01*
X866654Y140000D02*
X873347D01*
X785000Y183346D02*
X795630D01*
Y186102D01*
X824370D01*
Y183346D02*
Y186102D01*
Y183346D02*
X835000D01*
Y176654D02*
Y183346D01*
X824370Y176654D02*
X835000D01*
X824370Y173898D02*
Y176654D01*
X795630Y173898D02*
X824370D01*
X795630D02*
Y176654D01*
X785000D02*
X795630D01*
X785000D02*
Y183346D01*
X824370Y196653D02*
X835000D01*
X824370Y193898D02*
Y196653D01*
X795630Y193898D02*
X824370D01*
X795630D02*
Y196653D01*
X785000D02*
X795630D01*
X785000D02*
Y203346D01*
X795630D01*
Y206102D01*
X824370D01*
Y203346D02*
Y206102D01*
Y203346D02*
X835000D01*
Y196653D02*
Y203346D01*
X258346Y189370D02*
Y200000D01*
Y189370D02*
X261102D01*
Y160630D02*
Y189370D01*
X258346Y160630D02*
X261102D01*
X258346Y150000D02*
Y160630D01*
X251654Y150000D02*
X258346D01*
X251654D02*
Y160630D01*
X248898D02*
X251654D01*
X248898D02*
Y189370D01*
X251654D01*
Y200000D01*
X258346D01*
X251654Y215000D02*
Y225630D01*
X248898D02*
X251654D01*
X248898D02*
Y254370D01*
X251654D01*
Y265000D01*
X258346D01*
Y254370D02*
Y265000D01*
Y254370D02*
X261102D01*
Y225630D02*
Y254370D01*
X258346Y225630D02*
X261102D01*
X258346Y215000D02*
Y225630D01*
X251654Y215000D02*
X258346D01*
X190000Y208346D02*
X200630D01*
Y211102D01*
X229370D01*
Y208346D02*
Y211102D01*
Y208346D02*
X240000D01*
Y201654D02*
Y208346D01*
X229370Y201654D02*
X240000D01*
X229370Y198898D02*
Y201654D01*
X200630Y198898D02*
X229370D01*
X200630D02*
Y201654D01*
X190000D02*
X200630D01*
X190000D02*
Y208346D01*
Y233346D02*
X200630D01*
Y236102D01*
X229370D01*
Y233346D02*
Y236102D01*
Y233346D02*
X240000D01*
Y226654D02*
Y233346D01*
X229370Y226654D02*
X240000D01*
X229370Y223898D02*
Y226654D01*
X200630Y223898D02*
X229370D01*
X200630D02*
Y226654D01*
X190000D02*
X200630D01*
X190000D02*
Y233346D01*
Y258346D02*
X200630D01*
Y261102D01*
X229370D01*
Y258346D02*
Y261102D01*
Y258346D02*
X240000D01*
Y251654D02*
Y258346D01*
X229370Y251654D02*
X240000D01*
X229370Y248898D02*
Y251654D01*
X200630Y248898D02*
X229370D01*
X200630D02*
Y251654D01*
X190000D02*
X200630D01*
X190000D02*
Y258346D01*
X73346Y189370D02*
Y200000D01*
Y189370D02*
X76102D01*
Y160630D02*
Y189370D01*
X73346Y160630D02*
X76102D01*
X73346Y150000D02*
Y160630D01*
X66654Y150000D02*
X73346D01*
X66654D02*
Y160630D01*
X63898D02*
X66654D01*
X63898D02*
Y189370D01*
X66654D01*
Y200000D01*
X73346D01*
X858839Y125138D02*
Y164862D01*
X821161Y125138D02*
Y164862D01*
X858839D01*
X821161Y125138D02*
X858839D01*
X603780Y290020D02*
Y297955D01*
X576221D02*
X603780D01*
X576221Y290020D02*
Y297955D01*
X625138Y188839D02*
X664862D01*
X625138Y151161D02*
X664862D01*
X625138D02*
Y188839D01*
X664862Y151161D02*
Y188839D01*
X670138D02*
X709862D01*
X670138Y151161D02*
X709862D01*
X670138D02*
Y188839D01*
X709862Y151161D02*
Y188839D01*
X706653Y80000D02*
Y90630D01*
X703898D02*
X706653D01*
X703898D02*
Y119370D01*
X706653D01*
Y130000D01*
X713346D01*
Y119370D02*
Y130000D01*
Y119370D02*
X716102D01*
Y90630D02*
Y119370D01*
X713346Y90630D02*
X716102D01*
X713346Y80000D02*
Y90630D01*
X706653Y80000D02*
X713346D01*
X551653Y150000D02*
Y160630D01*
X548898D02*
X551653D01*
X548898D02*
Y189370D01*
X551653D01*
Y200000D01*
X558347D01*
Y189370D02*
Y200000D01*
Y189370D02*
X561102D01*
Y160630D02*
Y189370D01*
X558347Y160630D02*
X561102D01*
X558347Y150000D02*
Y160630D01*
X551653Y150000D02*
X558347D01*
X506161Y160138D02*
Y199862D01*
X543839Y160138D02*
Y199862D01*
X506161Y160138D02*
X543839D01*
X506161Y199862D02*
X543839D01*
X566653Y150000D02*
Y160630D01*
X563898D02*
X566653D01*
X563898D02*
Y189370D01*
X566653D01*
Y200000D01*
X573347D01*
Y189370D02*
Y200000D01*
Y189370D02*
X576102D01*
Y160630D02*
Y189370D01*
X573347Y160630D02*
X576102D01*
X573347Y150000D02*
Y160630D01*
X566653Y150000D02*
X573347D01*
X606653D02*
Y160630D01*
X603898D02*
X606653D01*
X603898D02*
Y189370D01*
X606653D01*
Y200000D01*
X613346D01*
Y189370D02*
Y200000D01*
Y189370D02*
X616102D01*
Y160630D02*
Y189370D01*
X613346Y160630D02*
X616102D01*
X613346Y150000D02*
Y160630D01*
X606653Y150000D02*
X613346D01*
X591653D02*
Y160630D01*
X588898D02*
X591653D01*
X588898D02*
Y189370D01*
X591653D01*
Y200000D01*
X598347D01*
Y189370D02*
Y200000D01*
Y189370D02*
X601102D01*
Y160630D02*
Y189370D01*
X598347Y160630D02*
X601102D01*
X598347Y150000D02*
Y160630D01*
X591653Y150000D02*
X598347D01*
X746654Y280000D02*
Y290630D01*
X743898D02*
X746654D01*
X743898D02*
Y319370D01*
X746654D01*
Y330000D01*
X753346D01*
Y319370D02*
Y330000D01*
Y319370D02*
X756102D01*
Y290630D02*
Y319370D01*
X753346Y290630D02*
X756102D01*
X753346Y280000D02*
Y290630D01*
X746654Y280000D02*
X753346D01*
X718780Y290020D02*
Y297955D01*
X691221D02*
X718780D01*
X691221Y290020D02*
Y297955D01*
X738346Y319370D02*
Y330000D01*
Y319370D02*
X741102D01*
Y290630D02*
Y319370D01*
X738346Y290630D02*
X741102D01*
X738346Y280000D02*
Y290630D01*
X731653Y280000D02*
X738346D01*
X731653D02*
Y290630D01*
X728898D02*
X731653D01*
X728898D02*
Y319370D01*
X731653D01*
Y330000D01*
X738346D01*
X688779Y290020D02*
Y297955D01*
X661221D02*
X688779D01*
X661221Y290020D02*
Y297955D01*
X633779Y290020D02*
Y297955D01*
X606220D02*
X633779D01*
X606220Y290020D02*
Y297955D01*
X671654Y80000D02*
Y90630D01*
X668898D02*
X671654D01*
X668898D02*
Y119370D01*
X671654D01*
Y130000D01*
X678346D01*
Y119370D02*
Y130000D01*
Y119370D02*
X681102D01*
Y90630D02*
Y119370D01*
X678346Y90630D02*
X681102D01*
X678346Y80000D02*
Y90630D01*
X671654Y80000D02*
X678346D01*
X721654Y200000D02*
Y210630D01*
X718898D02*
X721654D01*
X718898D02*
Y239370D01*
X721654D01*
Y250000D01*
X728346D01*
Y239370D02*
Y250000D01*
Y239370D02*
X731102D01*
Y210630D02*
Y239370D01*
X728346Y210630D02*
X731102D01*
X728346Y200000D02*
Y210630D01*
X721654Y200000D02*
X728346D01*
X706653D02*
Y210630D01*
X703898D02*
X706653D01*
X703898D02*
Y239370D01*
X706653D01*
Y250000D01*
X713346D01*
Y239370D02*
Y250000D01*
Y239370D02*
X716102D01*
Y210630D02*
Y239370D01*
X713346Y210630D02*
X716102D01*
X713346Y200000D02*
Y210630D01*
X706653Y200000D02*
X713346D01*
X566653Y215000D02*
Y225630D01*
X563898D02*
X566653D01*
X563898D02*
Y254370D01*
X566653D01*
Y265000D01*
X573347D01*
Y254370D02*
Y265000D01*
Y254370D02*
X576102D01*
Y225630D02*
Y254370D01*
X573347Y225630D02*
X576102D01*
X573347Y215000D02*
Y225630D01*
X566653Y215000D02*
X573347D01*
X581653D02*
Y225630D01*
X578898D02*
X581653D01*
X578898D02*
Y254370D01*
X581653D01*
Y265000D01*
X588346D01*
Y254370D02*
Y265000D01*
Y254370D02*
X591102D01*
Y225630D02*
Y254370D01*
X588346Y225630D02*
X591102D01*
X588346Y215000D02*
Y225630D01*
X581653Y215000D02*
X588346D01*
X698347Y119370D02*
Y130000D01*
Y119370D02*
X701102D01*
Y90630D02*
Y119370D01*
X698347Y90630D02*
X701102D01*
X698347Y80000D02*
Y90630D01*
X691653Y80000D02*
X698347D01*
X691653D02*
Y90630D01*
X688898D02*
X691653D01*
X688898D02*
Y119370D01*
X691653D01*
Y130000D01*
X698347D01*
X663346Y119370D02*
Y130000D01*
Y119370D02*
X666102D01*
Y90630D02*
Y119370D01*
X663346Y90630D02*
X666102D01*
X663346Y80000D02*
Y90630D01*
X656653Y80000D02*
X663346D01*
X656653D02*
Y90630D01*
X653898D02*
X656653D01*
X653898D02*
Y119370D01*
X656653D01*
Y130000D01*
X663346D01*
X626653Y80000D02*
Y90630D01*
X623898D02*
X626653D01*
X623898D02*
Y119370D01*
X626653D01*
Y130000D01*
X633347D01*
Y119370D02*
Y130000D01*
Y119370D02*
X636102D01*
Y90630D02*
Y119370D01*
X633347Y90630D02*
X636102D01*
X633347Y80000D02*
Y90630D01*
X626653Y80000D02*
X633347D01*
X666221Y308689D02*
Y316624D01*
Y308689D02*
X693780D01*
Y316624D01*
X641653Y80000D02*
Y90630D01*
X638898D02*
X641653D01*
X638898D02*
Y119370D01*
X641653D01*
Y130000D01*
X648347D01*
Y119370D02*
Y130000D01*
Y119370D02*
X651102D01*
Y90630D02*
Y119370D01*
X648347Y90630D02*
X651102D01*
X648347Y80000D02*
Y90630D01*
X641653Y80000D02*
X648347D01*
X596220Y308689D02*
Y316624D01*
Y308689D02*
X623779D01*
Y316624D01*
X611654Y80000D02*
Y90630D01*
X608898D02*
X611654D01*
X608898D02*
Y119370D01*
X611654D01*
Y130000D01*
X618347D01*
Y119370D02*
Y130000D01*
Y119370D02*
X621102D01*
Y90630D02*
Y119370D01*
X618347Y90630D02*
X621102D01*
X618347Y80000D02*
Y90630D01*
X611654Y80000D02*
X618347D01*
X641653Y280000D02*
Y290630D01*
X638898D02*
X641653D01*
X638898D02*
Y319370D01*
X641653D01*
Y330000D01*
X648347D01*
Y319370D02*
Y330000D01*
Y319370D02*
X651102D01*
Y290630D02*
Y319370D01*
X648347Y290630D02*
X651102D01*
X648347Y280000D02*
Y290630D01*
X641653Y280000D02*
X648347D01*
X598228Y98D02*
Y139862D01*
X501772Y98D02*
Y139862D01*
Y98D02*
X598228D01*
X501772Y139862D02*
X598228D01*
X195138Y183839D02*
X234862D01*
X195138Y146161D02*
X234862D01*
X195138D02*
Y183839D01*
X234862Y146161D02*
Y183839D01*
X320197Y139862D02*
X416654D01*
X320197Y98D02*
X416654D01*
X320197D02*
Y139862D01*
X416654Y98D02*
Y139862D01*
X349291Y161654D02*
Y168346D01*
X338661D02*
X349291D01*
X338661D02*
Y171102D01*
X309921D02*
X338661D01*
X309921Y168346D02*
Y171102D01*
X299291Y168346D02*
X309921D01*
X299291Y161654D02*
Y168346D01*
Y161654D02*
X309921D01*
Y158898D02*
Y161654D01*
Y158898D02*
X338661D01*
Y161654D01*
X349291D01*
X474291D02*
Y168346D01*
X463661D02*
X474291D01*
X463661D02*
Y171102D01*
X434921D02*
X463661D01*
X434921Y168346D02*
Y171102D01*
X424291Y168346D02*
X434921D01*
X424291Y161654D02*
Y168346D01*
Y161654D02*
X434921D01*
Y158898D02*
Y161654D01*
Y158898D02*
X463661D01*
Y161654D01*
X474291D01*
X404921Y181742D02*
Y218258D01*
X413661D01*
Y181742D02*
Y218258D01*
X404921Y181742D02*
X413661D01*
X403661D02*
Y218258D01*
X394921Y181742D02*
X403661D01*
X394921D02*
Y218258D01*
X403661D01*
X279921Y186742D02*
Y223258D01*
X288661D01*
Y186742D02*
Y223258D01*
X279921Y186742D02*
X288661D01*
X374291Y256654D02*
Y263346D01*
X363661D02*
X374291D01*
X363661D02*
Y266102D01*
X334921D02*
X363661D01*
X334921Y263346D02*
Y266102D01*
X324291Y263346D02*
X334921D01*
X324291Y256654D02*
Y263346D01*
Y256654D02*
X334921D01*
Y253898D02*
Y256654D01*
Y253898D02*
X363661D01*
Y256654D01*
X374291D01*
Y241654D02*
Y248346D01*
X363661D02*
X374291D01*
X363661D02*
Y251102D01*
X334921D02*
X363661D01*
X334921Y248346D02*
Y251102D01*
X324291Y248346D02*
X334921D01*
X324291Y241654D02*
Y248346D01*
Y241654D02*
X334921D01*
Y238898D02*
Y241654D01*
Y238898D02*
X363661D01*
Y241654D01*
X374291D01*
X469291Y261654D02*
Y268346D01*
X458661D02*
X469291D01*
X458661D02*
Y271102D01*
X429921D02*
X458661D01*
X429921Y268346D02*
Y271102D01*
X419291Y268346D02*
X429921D01*
X419291Y261654D02*
Y268346D01*
Y261654D02*
X429921D01*
Y258898D02*
Y261654D01*
Y258898D02*
X458661D01*
Y261654D01*
X469291D01*
X425453Y275138D02*
Y314862D01*
X463130Y275138D02*
Y314862D01*
X425453Y275138D02*
X463130D01*
X425453Y314862D02*
X463130D01*
X419291Y246654D02*
Y253346D01*
Y246654D02*
X429921D01*
Y243898D02*
Y246654D01*
Y243898D02*
X458661D01*
Y246654D01*
X469291D01*
Y253346D01*
X458661D02*
X469291D01*
X458661D02*
Y256102D01*
X429921D02*
X458661D01*
X429921Y253346D02*
Y256102D01*
X419291Y253346D02*
X429921D01*
X385945Y390000D02*
X392638D01*
X385945Y379370D02*
Y390000D01*
X383189Y379370D02*
X385945D01*
X383189Y350630D02*
Y379370D01*
Y350630D02*
X385945D01*
Y340000D02*
Y350630D01*
Y340000D02*
X392638D01*
Y350630D01*
X395394D01*
Y379370D01*
X392638D02*
X395394D01*
X392638D02*
Y390000D01*
X400945Y340000D02*
X407638D01*
Y350630D01*
X410394D01*
Y379370D01*
X407638D02*
X410394D01*
X407638D02*
Y390000D01*
X400945D02*
X407638D01*
X400945Y379370D02*
Y390000D01*
X398189Y379370D02*
X400945D01*
X398189Y350630D02*
Y379370D01*
Y350630D02*
X400945D01*
Y340000D02*
Y350630D01*
X478661Y276742D02*
Y313258D01*
X469921Y276742D02*
X478661D01*
X469921D02*
Y313258D01*
X478661D01*
X479921Y276742D02*
Y313258D01*
X488661D01*
Y276742D02*
Y313258D01*
X479921Y276742D02*
X488661D01*
X424291Y326654D02*
Y333346D01*
Y326654D02*
X434921D01*
Y323898D02*
Y326654D01*
Y323898D02*
X463661D01*
Y326654D01*
X474291D01*
Y333346D01*
X463661D02*
X474291D01*
X463661D02*
Y336102D01*
X434921D02*
X463661D01*
X434921Y333346D02*
Y336102D01*
X424291Y333346D02*
X434921D01*
X399921Y276742D02*
Y313258D01*
X408661D01*
Y276742D02*
Y313258D01*
X399921Y276742D02*
X408661D01*
X384921D02*
Y313258D01*
X393661D01*
Y276742D02*
Y313258D01*
X384921Y276742D02*
X393661D01*
X329823Y275138D02*
Y314862D01*
X367500Y275138D02*
Y314862D01*
X329823Y275138D02*
X367500D01*
X329823Y314862D02*
X367500D01*
X304921Y281742D02*
Y318258D01*
X313661D01*
Y281742D02*
Y318258D01*
X304921Y281742D02*
X313661D01*
X119370Y226654D02*
X130000D01*
X119370Y223898D02*
Y226654D01*
X90630Y223898D02*
X119370D01*
X90630D02*
Y226654D01*
X80000D02*
X90630D01*
X80000D02*
Y233346D01*
X90630D01*
Y236102D01*
X119370D01*
Y233346D02*
Y236102D01*
Y233346D02*
X130000D01*
Y226654D02*
Y233346D01*
X15000Y203346D02*
X25630D01*
Y206102D01*
X54370D01*
Y203346D02*
Y206102D01*
Y203346D02*
X65000D01*
Y196654D02*
Y203346D01*
X54370Y196654D02*
X65000D01*
X54370Y193898D02*
Y196654D01*
X25630Y193898D02*
X54370D01*
X25630D02*
Y196654D01*
X15000D02*
X25630D01*
X15000D02*
Y203346D01*
X25000Y233346D02*
X35630D01*
Y236102D01*
X64370D01*
Y233346D02*
Y236102D01*
Y233346D02*
X75000D01*
Y226654D02*
Y233346D01*
X64370Y226654D02*
X75000D01*
X64370Y223898D02*
Y226654D01*
X35630Y223898D02*
X64370D01*
X35630D02*
Y226654D01*
X25000D02*
X35630D01*
X25000D02*
Y233346D01*
X309823Y190138D02*
Y229862D01*
X347500Y190138D02*
Y229862D01*
X309823Y190138D02*
X347500D01*
X309823Y229862D02*
X347500D01*
X420453Y180138D02*
Y219862D01*
X458130Y180138D02*
Y219862D01*
X420453Y180138D02*
X458130D01*
X420453Y219862D02*
X458130D01*
X320945Y395000D02*
X327638D01*
Y405630D01*
X330394D01*
Y434370D01*
X327638D02*
X330394D01*
X327638D02*
Y445000D01*
X320945D02*
X327638D01*
X320945Y434370D02*
Y445000D01*
X318189Y434370D02*
X320945D01*
X318189Y405630D02*
Y434370D01*
Y405630D02*
X320945D01*
Y395000D02*
Y405630D01*
X356083Y405138D02*
Y444862D01*
X393760Y405138D02*
Y444862D01*
X356083Y405138D02*
X393760D01*
X356083Y444862D02*
X393760D01*
X335945Y445000D02*
X342638D01*
X335945Y434370D02*
Y445000D01*
X333189Y434370D02*
X335945D01*
X333189Y405630D02*
Y434370D01*
Y405630D02*
X335945D01*
Y395000D02*
Y405630D01*
Y395000D02*
X342638D01*
Y405630D01*
X345394D01*
Y434370D01*
X342638D02*
X345394D01*
X342638D02*
Y445000D01*
X410945Y450000D02*
X417638D01*
X410945Y439370D02*
Y450000D01*
X408189Y439370D02*
X410945D01*
X408189Y410630D02*
Y439370D01*
Y410630D02*
X410945D01*
Y400000D02*
Y410630D01*
Y400000D02*
X417638D01*
Y410630D01*
X420394D01*
Y439370D01*
X417638D02*
X420394D01*
X417638D02*
Y450000D01*
X425945Y400000D02*
X432638D01*
Y410630D01*
X435394D01*
Y439370D01*
X432638D02*
X435394D01*
X432638D02*
Y450000D01*
X425945D02*
X432638D01*
X425945Y439370D02*
Y450000D01*
X423189Y439370D02*
X425945D01*
X423189Y410630D02*
Y439370D01*
Y410630D02*
X425945D01*
Y400000D02*
Y410630D01*
X323661Y281742D02*
Y318258D01*
X314921Y281742D02*
X323661D01*
X314921D02*
Y318258D01*
X323661D01*
X305945Y445000D02*
X312638D01*
X305945Y434370D02*
Y445000D01*
X303189Y434370D02*
X305945D01*
X303189Y405630D02*
Y434370D01*
Y405630D02*
X305945D01*
Y395000D02*
Y405630D01*
Y395000D02*
X312638D01*
Y405630D01*
X315394D01*
Y434370D01*
X312638D02*
X315394D01*
X312638D02*
Y445000D01*
X375945Y225000D02*
X382638D01*
X375945Y214370D02*
Y225000D01*
X373189Y214370D02*
X375945D01*
X373189Y185630D02*
Y214370D01*
Y185630D02*
X375945D01*
Y175000D02*
Y185630D01*
Y175000D02*
X382638D01*
Y185630D01*
X385394D01*
Y214370D01*
X382638D02*
X385394D01*
X382638D02*
Y225000D01*
X360945D02*
X367638D01*
X360945Y214370D02*
Y225000D01*
X358189Y214370D02*
X360945D01*
X358189Y185630D02*
Y214370D01*
Y185630D02*
X360945D01*
Y175000D02*
Y185630D01*
Y175000D02*
X367638D01*
Y185630D01*
X370394D01*
Y214370D01*
X367638D02*
X370394D01*
X367638D02*
Y225000D01*
X440945Y450000D02*
X447638D01*
X440945Y439370D02*
Y450000D01*
X438189Y439370D02*
X440945D01*
X438189Y410630D02*
Y439370D01*
Y410630D02*
X440945D01*
Y400000D02*
Y410630D01*
Y400000D02*
X447638D01*
Y410630D01*
X450394D01*
Y439370D01*
X447638D02*
X450394D01*
X447638D02*
Y450000D01*
X383661Y276742D02*
Y313258D01*
X374921Y276742D02*
X383661D01*
X374921D02*
Y313258D01*
X383661D01*
X435453Y345138D02*
Y384862D01*
X473130Y345138D02*
Y384862D01*
X435453Y345138D02*
X473130D01*
X435453Y384862D02*
X473130D01*
X298661Y186742D02*
Y223258D01*
X289921Y186742D02*
X298661D01*
X289921D02*
Y223258D01*
X298661D01*
X418661Y276742D02*
Y313258D01*
X409921Y276742D02*
X418661D01*
X409921D02*
Y313258D01*
X418661D01*
X329291Y326654D02*
Y333346D01*
Y326654D02*
X339921D01*
Y323898D02*
Y326654D01*
Y323898D02*
X368661D01*
Y326654D01*
X379291D01*
Y333346D01*
X368661D02*
X379291D01*
X368661D02*
Y336102D01*
X339921D02*
X368661D01*
X339921Y333346D02*
Y336102D01*
X329291Y333346D02*
X339921D01*
X480945Y225000D02*
X487638D01*
X480945Y214370D02*
Y225000D01*
X478189Y214370D02*
X480945D01*
X478189Y185630D02*
Y214370D01*
Y185630D02*
X480945D01*
Y175000D02*
Y185630D01*
Y175000D02*
X487638D01*
Y185630D01*
X490394D01*
Y214370D01*
X487638D02*
X490394D01*
X487638D02*
Y225000D01*
X465945D02*
X472638D01*
X465945Y214370D02*
Y225000D01*
X463189Y214370D02*
X465945D01*
X463189Y185630D02*
Y214370D01*
Y185630D02*
X465945D01*
Y175000D02*
Y185630D01*
Y175000D02*
X472638D01*
Y185630D01*
X475394D01*
Y214370D01*
X472638D02*
X475394D01*
X472638D02*
Y225000D01*
X128228Y98D02*
Y139862D01*
X31772Y98D02*
Y139862D01*
Y98D02*
X128228D01*
X31772Y139862D02*
X128228D01*
M02*
