G04*
G04 #@! TF.GenerationSoftware,Altium Limited,Altium Designer,25.3.3 (18)*
G04*
G04 Layer_Color=8388736*
%FSLAX25Y25*%
%MOIN*%
G70*
G04*
G04 #@! TF.SameCoordinates,B8643030-5FD7-41C3-8E4B-713DA0037FD2*
G04*
G04*
G04 #@! TF.FilePolarity,Positive*
G04*
G01*
G75*
%ADD10C,0.00591*%
%ADD11C,0.00787*%
D10*
X911000Y430000D02*
G03*
X911000Y430000I-26000J0D01*
G01*
X296000Y355000D02*
G03*
X296000Y355000I-26000J0D01*
G01*
X851000Y430000D02*
G03*
X851000Y430000I-26000J0D01*
G01*
X796000D02*
G03*
X796000Y430000I-26000J0D01*
G01*
X736000D02*
G03*
X736000Y430000I-26000J0D01*
G01*
X676000D02*
G03*
X676000Y430000I-26000J0D01*
G01*
X616000D02*
G03*
X616000Y430000I-26000J0D01*
G01*
X556000D02*
G03*
X556000Y430000I-26000J0D01*
G01*
X771000Y155000D02*
G03*
X771000Y155000I-26000J0D01*
G01*
X911000Y235000D02*
G03*
X911000Y235000I-26000J0D01*
G01*
X556000Y295000D02*
G03*
X556000Y295000I-26000J0D01*
G01*
X396000Y495000D02*
G03*
X396000Y495000I-26000J0D01*
G01*
X906000Y365000D02*
G03*
X906000Y365000I-26000J0D01*
G01*
X636000Y495000D02*
G03*
X636000Y495000I-26000J0D01*
G01*
X696000D02*
G03*
X696000Y495000I-26000J0D01*
G01*
X456000D02*
G03*
X456000Y495000I-26000J0D01*
G01*
X71000D02*
G03*
X71000Y495000I-26000J0D01*
G01*
X126000D02*
G03*
X126000Y495000I-26000J0D01*
G01*
X281000D02*
G03*
X281000Y495000I-26000J0D01*
G01*
X336000D02*
G03*
X336000Y495000I-26000J0D01*
G01*
X836000Y90000D02*
G03*
X836000Y90000I-26000J0D01*
G01*
X891000D02*
G03*
X891000Y90000I-26000J0D01*
G01*
X491000Y105000D02*
G03*
X491000Y105000I-26000J0D01*
G01*
X191000Y285000D02*
G03*
X191000Y285000I-26000J0D01*
G01*
Y230000D02*
G03*
X191000Y230000I-26000J0D01*
G01*
Y175000D02*
G03*
X191000Y175000I-26000J0D01*
G01*
X846000Y235000D02*
G03*
X846000Y235000I-26000J0D01*
G01*
X556000D02*
G03*
X556000Y235000I-26000J0D01*
G01*
X61000Y275000D02*
G03*
X61000Y275000I-26000J0D01*
G01*
X131000D02*
G03*
X131000Y275000I-26000J0D01*
G01*
X556000Y360000D02*
G03*
X556000Y360000I-26000J0D01*
G01*
X846000Y305000D02*
G03*
X846000Y305000I-26000J0D01*
G01*
X296000Y410000D02*
G03*
X296000Y410000I-26000J0D01*
G01*
X846000Y365000D02*
G03*
X846000Y365000I-26000J0D01*
G01*
X906000Y305000D02*
G03*
X906000Y305000I-26000J0D01*
G01*
X131000Y185000D02*
G03*
X131000Y185000I-26000J0D01*
G01*
D11*
X170709Y443110D02*
X209291D01*
Y406890D02*
Y443110D01*
X170709Y406890D02*
X209291D01*
X170709D02*
Y443110D01*
Y383110D02*
X209291D01*
Y346890D02*
Y383110D01*
X170709Y346890D02*
X209291D01*
X170709D02*
Y383110D01*
X1732Y353622D02*
X131654D01*
Y306378D02*
Y353622D01*
X1732Y306378D02*
X131654D01*
X1732D02*
Y353622D01*
X56850Y305965D02*
Y354035D01*
X1772Y463622D02*
X131693D01*
Y416378D02*
Y463622D01*
X1772Y416378D02*
X131693D01*
X1772D02*
Y463622D01*
X56890Y415965D02*
Y464035D01*
X56850Y360965D02*
Y409035D01*
X1732Y361378D02*
Y408622D01*
Y361378D02*
X131654D01*
Y408622D01*
X1732D02*
X131654D01*
M02*
