G04*
G04 #@! TF.GenerationSoftware,Altium Limited,Altium Designer,25.3.3 (18)*
G04*
G04 Layer_Color=32896*
%FSLAX25Y25*%
%MOIN*%
G70*
G04*
G04 #@! TF.SameCoordinates,B8643030-5FD7-41C3-8E4B-713DA0037FD2*
G04*
G04*
G04 #@! TF.FilePolarity,Positive*
G04*
G01*
G75*
%ADD11C,0.00787*%
D11*
X858606Y430000D02*
G03*
X911394Y430000I26394J0D01*
G01*
D02*
G03*
X858606Y430000I-26394J0D01*
G01*
X243606Y355000D02*
G03*
X296394Y355000I26394J0D01*
G01*
D02*
G03*
X243606Y355000I-26394J0D01*
G01*
X798606Y430000D02*
G03*
X851394Y430000I26394J0D01*
G01*
D02*
G03*
X798606Y430000I-26394J0D01*
G01*
X743606D02*
G03*
X796394Y430000I26394J0D01*
G01*
D02*
G03*
X743606Y430000I-26394J0D01*
G01*
X683606D02*
G03*
X736394Y430000I26394J0D01*
G01*
D02*
G03*
X683606Y430000I-26394J0D01*
G01*
X623606D02*
G03*
X676394Y430000I26394J0D01*
G01*
D02*
G03*
X623606Y430000I-26394J0D01*
G01*
X563606D02*
G03*
X616394Y430000I26394J0D01*
G01*
D02*
G03*
X563606Y430000I-26394J0D01*
G01*
X503606D02*
G03*
X556394Y430000I26394J0D01*
G01*
D02*
G03*
X503606Y430000I-26394J0D01*
G01*
X771394Y155000D02*
G03*
X718606Y155000I-26394J0D01*
G01*
D02*
G03*
X771394Y155000I26394J0D01*
G01*
X911394Y235000D02*
G03*
X858606Y235000I-26394J0D01*
G01*
D02*
G03*
X911394Y235000I26394J0D01*
G01*
X503606Y295000D02*
G03*
X556394Y295000I26394J0D01*
G01*
D02*
G03*
X503606Y295000I-26394J0D01*
G01*
X343606Y495000D02*
G03*
X396394Y495000I26394J0D01*
G01*
D02*
G03*
X343606Y495000I-26394J0D01*
G01*
X853606Y365000D02*
G03*
X906394Y365000I26394J0D01*
G01*
D02*
G03*
X853606Y365000I-26394J0D01*
G01*
X636394Y495000D02*
G03*
X583606Y495000I-26394J0D01*
G01*
D02*
G03*
X636394Y495000I26394J0D01*
G01*
X696394D02*
G03*
X643606Y495000I-26394J0D01*
G01*
D02*
G03*
X696394Y495000I26394J0D01*
G01*
X456394D02*
G03*
X403606Y495000I-26394J0D01*
G01*
D02*
G03*
X456394Y495000I26394J0D01*
G01*
X71394D02*
G03*
X18606Y495000I-26394J0D01*
G01*
D02*
G03*
X71394Y495000I26394J0D01*
G01*
X126394D02*
G03*
X73606Y495000I-26394J0D01*
G01*
D02*
G03*
X126394Y495000I26394J0D01*
G01*
X281394D02*
G03*
X228606Y495000I-26394J0D01*
G01*
D02*
G03*
X281394Y495000I26394J0D01*
G01*
X336394D02*
G03*
X283606Y495000I-26394J0D01*
G01*
D02*
G03*
X336394Y495000I26394J0D01*
G01*
X783606Y90000D02*
G03*
X836394Y90000I26394J0D01*
G01*
D02*
G03*
X783606Y90000I-26394J0D01*
G01*
X838606D02*
G03*
X891394Y90000I26394J0D01*
G01*
D02*
G03*
X838606Y90000I-26394J0D01*
G01*
X438606Y105000D02*
G03*
X491394Y105000I26394J0D01*
G01*
D02*
G03*
X438606Y105000I-26394J0D01*
G01*
X138606Y285000D02*
G03*
X191394Y285000I26394J0D01*
G01*
D02*
G03*
X138606Y285000I-26394J0D01*
G01*
Y230000D02*
G03*
X191394Y230000I26394J0D01*
G01*
D02*
G03*
X138606Y230000I-26394J0D01*
G01*
Y175000D02*
G03*
X191394Y175000I26394J0D01*
G01*
D02*
G03*
X138606Y175000I-26394J0D01*
G01*
X793606Y235000D02*
G03*
X846394Y235000I26394J0D01*
G01*
D02*
G03*
X793606Y235000I-26394J0D01*
G01*
X556394D02*
G03*
X503606Y235000I-26394J0D01*
G01*
D02*
G03*
X556394Y235000I26394J0D01*
G01*
X61394Y275000D02*
G03*
X8606Y275000I-26394J0D01*
G01*
D02*
G03*
X61394Y275000I26394J0D01*
G01*
X131394D02*
G03*
X78606Y275000I-26394J0D01*
G01*
D02*
G03*
X131394Y275000I26394J0D01*
G01*
X556394Y360000D02*
G03*
X503606Y360000I-26394J0D01*
G01*
D02*
G03*
X556394Y360000I26394J0D01*
G01*
X846394Y305000D02*
G03*
X793606Y305000I-26394J0D01*
G01*
D02*
G03*
X846394Y305000I26394J0D01*
G01*
X296394Y410000D02*
G03*
X243606Y410000I-26394J0D01*
G01*
D02*
G03*
X296394Y410000I26394J0D01*
G01*
X846394Y365000D02*
G03*
X793606Y365000I-26394J0D01*
G01*
D02*
G03*
X846394Y365000I26394J0D01*
G01*
X906394Y305000D02*
G03*
X853606Y305000I-26394J0D01*
G01*
D02*
G03*
X906394Y305000I26394J0D01*
G01*
X131394Y185000D02*
G03*
X78606Y185000I-26394J0D01*
G01*
D02*
G03*
X131394Y185000I26394J0D01*
G01*
X170315Y443504D02*
X209685D01*
Y406496D02*
Y443504D01*
X170315Y406496D02*
X209685D01*
X170315D02*
Y443504D01*
Y383504D02*
X209685D01*
Y346496D02*
Y383504D01*
X170315Y346496D02*
X209685D01*
X170315D02*
Y383504D01*
X1339Y354035D02*
X132047D01*
Y305965D02*
Y354035D01*
X1339Y305965D02*
X132047D01*
X1339D02*
Y354035D01*
X1378Y464035D02*
X132087D01*
Y415965D02*
Y464035D01*
X1378Y415965D02*
X132087D01*
X1378D02*
Y464035D01*
X1339Y360965D02*
Y409035D01*
Y360965D02*
X132047D01*
Y409035D01*
X1339D02*
X132047D01*
M02*
